SeanSlab_1.ufo
<glyph name="parenright" format="1">
  <advance width="381"/>
  <unicode hex="0029"/>
  <outline>
    <contour>
      <point x="82" y="-296" type="curve"/>
      <point x="251" y="-100"/>
      <point x="342" y="68"/>
      <point x="342" y="329" type="curve"/>
      <point x="342" y="584"/>
      <point x="258" y="749"/>
      <point x="85" y="935" type="curve"/>
      <point x="-2" y="855"/>
      <point x="85" y="935"/>
      <point x="-2" y="855" type="curve"/>
      <point x="143" y="694"/>
      <point x="198" y="542"/>
      <point x="198" y="324" type="curve"/>
      <point x="198" y="101"/>
      <point x="135" y="-52"/>
      <point x="-5" y="-223" type="curve"/>
      <point x="82" y="-296"/>
      <point x="-5" y="-223"/>
    </contour>
  </outline>
</glyph>
<glyph name="comma" format="1">
  <advance width="305"/>
  <unicode hex="002C"/>
  <outline>
    <contour>
      <point x="62" y="-120" type="line"/>
      <point x="166" y="-120"/>
      <point x="236" y="-49"/>
      <point x="236" y="59" type="curve"/>
      <point x="236" y="146"/>
      <point x="199" y="197"/>
      <point x="146" y="197" type="curve"/>
      <point x="101" y="197"/>
      <point x="68" y="172"/>
      <point x="68" y="124" type="curve"/>
      <point x="68" y="82"/>
      <point x="95" y="53"/>
      <point x="139" y="53" type="curve"/>
      <point x="138" y="21"/>
      <point x="131" y="-30"/>
      <point x="62" y="-41" type="curve"/>
    </contour>
  </outline>
</glyph>
<glyph name="slash" format="1">
  <advance width="578"/>
  <unicode hex="002F"/>
  <outline>
    <contour>
      <point x="172" y="-12" type="curve"/>
      <point x="299" y="252"/>
      <point x="427" y="516"/>
      <point x="554" y="781" type="curve"/>
      <point x="406" y="781"/>
      <point x="554" y="781"/>
      <point x="406" y="781" type="curve"/>
      <point x="279" y="516"/>
      <point x="152" y="252"/>
      <point x="25" y="-12" type="curve"/>
      <point x="172" y="-12"/>
      <point x="25" y="-12"/>
    </contour>
  </outline>
</glyph>
<glyph name="four" format="1">
  <advance width="588"/>
  <unicode hex="0034"/>
  <outline>
    <contour>
      <point x="375" y="112" type="line"/>
      <point x="242" y="112" type="line"/>
      <point x="242" y="0" type="line"/>
      <point x="375" y="0" type="line"/>
    </contour>
    <contour>
      <point x="375" y="0" type="line"/>
      <point x="510" y="0" type="line"/>
      <point x="510" y="112" type="line"/>
      <point x="375" y="112" type="line"/>
    </contour>
    <contour>
      <point x="89" y="244" type="line"/>
      <point x="422" y="679" type="line"/>
      <point x="303" y="696" type="line"/>
      <point x="32" y="349" type="line"/>
    </contour>
    <contour>
      <point x="553" y="349" type="line"/>
      <point x="32" y="349" type="line"/>
      <point x="33" y="225" type="line"/>
      <point x="553" y="225" type="line"/>
    </contour>
    <contour>
      <point x="450" y="48" type="line"/>
      <point x="450" y="696" type="line"/>
      <point x="305" y="696" type="line"/>
      <point x="305" y="48" type="line"/>
    </contour>
  </outline>
</glyph>
<glyph name="nine" format="1">
  <advance width="608"/>
  <unicode hex="0039"/>
  <outline>
    <contour>
      <point x="446" y="481" type="curve"/>
      <point x="415" y="411"/>
      <point x="373" y="388"/>
      <point x="301" y="388" type="curve"/>
      <point x="232" y="388"/>
      <point x="191" y="431"/>
      <point x="191" y="502" type="curve"/>
      <point x="191" y="563"/>
      <point x="229" y="600"/>
      <point x="289" y="600" type="curve"/>
      <point x="374" y="600"/>
      <point x="417" y="548"/>
      <point x="417" y="462" type="curve"/>
      <point x="417" y="262"/>
      <point x="290" y="163"/>
      <point x="90" y="101" type="curve"/>
      <point x="139" y="-12"/>
      <point x="90" y="101"/>
      <point x="139" y="-12" type="curve"/>
      <point x="377" y="54"/>
      <point x="558" y="201"/>
      <point x="558" y="468" type="curve"/>
      <point x="558" y="633"/>
      <point x="459" y="734"/>
      <point x="295" y="734" type="curve"/>
      <point x="143" y="734"/>
      <point x="48" y="646"/>
      <point x="48" y="496" type="curve"/>
      <point x="48" y="351"/>
      <point x="142" y="270"/>
      <point x="288" y="270" type="curve"/>
      <point x="412" y="270"/>
      <point x="480" y="362"/>
      <point x="517" y="451" type="curve"/>
      <point x="446" y="481"/>
      <point x="517" y="451"/>
    </contour>
  </outline>
</glyph>
<glyph name="colon" format="1">
  <advance width="292"/>
  <unicode hex="003A"/>
  <outline>
    <contour>
      <point x="225" y="365" type="curve"/>
      <point x="225" y="414"/>
      <point x="192" y="438"/>
      <point x="145" y="438" type="curve"/>
      <point x="98" y="438"/>
      <point x="67" y="412"/>
      <point x="67" y="365" type="curve"/>
      <point x="225" y="365"/>
      <point x="67" y="365"/>
      <point x="225" y="365" type="curve"/>
      <point x="225" y="315"/>
      <point x="192" y="293"/>
      <point x="145" y="293" type="curve"/>
      <point x="98" y="293"/>
      <point x="67" y="317"/>
      <point x="67" y="365" type="curve"/>
      <point x="225" y="365"/>
      <point x="67" y="365"/>
    </contour>
    <contour>
      <point x="225" y="66" type="curve"/>
      <point x="225" y="115"/>
      <point x="191" y="139"/>
      <point x="145" y="139" type="curve"/>
      <point x="98" y="139"/>
      <point x="66" y="113"/>
      <point x="66" y="66" type="curve"/>
      <point x="225" y="66"/>
      <point x="66" y="66"/>
      <point x="225" y="66" type="curve"/>
      <point x="225" y="16"/>
      <point x="192" y="-6"/>
      <point x="144" y="-6" type="curve"/>
      <point x="97" y="-6"/>
      <point x="66" y="18"/>
      <point x="66" y="66" type="curve"/>
      <point x="225" y="66"/>
      <point x="66" y="66"/>
    </contour>
  </outline>
</glyph>
<glyph name="semicolon" format="1">
  <advance width="310"/>
  <unicode hex="003B"/>
  <outline>
    <contour>
      <point x="66" y="-204" type="line"/>
      <point x="176" y="-204"/>
      <point x="250" y="-133"/>
      <point x="250" y="-25" type="curve"/>
      <point x="250" y="62"/>
      <point x="211" y="113"/>
      <point x="155" y="113" type="curve"/>
      <point x="107" y="113"/>
      <point x="72" y="87"/>
      <point x="72" y="40" type="curve"/>
      <point x="72" y="-2"/>
      <point x="100" y="-31"/>
      <point x="147" y="-31" type="curve"/>
      <point x="146" y="-64"/>
      <point x="140" y="-114"/>
      <point x="66" y="-125" type="curve"/>
    </contour>
    <contour>
      <point x="233" y="376" type="curve"/>
      <point x="233" y="425"/>
      <point x="198" y="449"/>
      <point x="152" y="449" type="curve"/>
      <point x="105" y="449"/>
      <point x="74" y="423"/>
      <point x="74" y="376" type="curve"/>
      <point x="233" y="376"/>
      <point x="74" y="376"/>
      <point x="233" y="376" type="curve"/>
      <point x="233" y="326"/>
      <point x="199" y="304"/>
      <point x="152" y="304" type="curve"/>
      <point x="104" y="304"/>
      <point x="74" y="328"/>
      <point x="74" y="376" type="curve"/>
      <point x="233" y="376"/>
      <point x="74" y="376"/>
    </contour>
  </outline>
</glyph>
<glyph name="B" format="1">
  <advance width="687"/>
  <unicode hex="0042"/>
  <outline>
    <contour>
      <point x="208" y="722" type="curve"/>
      <point x="162" y="722"/>
      <point x="114" y="722"/>
      <point x="67" y="722" type="curve"/>
      <point x="67" y="610"/>
      <point x="67" y="722"/>
      <point x="67" y="610" type="curve"/>
      <point x="208" y="610"/>
      <point x="67" y="610"/>
      <point x="208" y="610" type="curve"/>
      <point x="208" y="722"/>
      <point x="208" y="610"/>
    </contour>
    <contour>
      <point x="207" y="112" type="curve"/>
      <point x="66" y="112"/>
      <point x="207" y="112"/>
      <point x="66" y="112" type="curve"/>
      <point x="66" y="0"/>
      <point x="66" y="112"/>
      <point x="66" y="0" type="curve"/>
      <point x="114" y="0"/>
      <point x="161" y="0"/>
      <point x="207" y="0" type="curve"/>
      <point x="207" y="112"/>
      <point x="207" y="0"/>
    </contour>
    <contour>
      <point x="199" y="610" type="curve"/>
      <point x="261" y="610"/>
      <point x="309" y="610"/>
      <point x="371" y="610" type="curve"/>
      <point x="424" y="610"/>
      <point x="450" y="581"/>
      <point x="450" y="534" type="curve"/>
      <point x="450" y="486"/>
      <point x="418" y="460"/>
      <point x="368" y="460" type="curve"/>
      <point x="308" y="460"/>
      <point x="260" y="460"/>
      <point x="199" y="460" type="curve"/>
      <point x="199" y="398"/>
      <point x="199" y="409"/>
      <point x="199" y="347" type="curve"/>
      <point x="239" y="347"/>
      <point x="272" y="347"/>
      <point x="312" y="347" type="curve"/>
      <point x="435" y="347"/>
      <point x="597" y="390"/>
      <point x="597" y="529" type="curve"/>
      <point x="597" y="656"/>
      <point x="510" y="722"/>
      <point x="378" y="722" type="curve"/>
      <point x="314" y="722"/>
      <point x="263" y="722"/>
      <point x="199" y="722" type="curve"/>
      <point x="199" y="660"/>
      <point x="199" y="672"/>
    </contour>
    <contour>
      <point x="286" y="0" type="curve"/>
      <point x="286" y="241"/>
      <point x="286" y="481"/>
      <point x="286" y="722" type="curve"/>
      <point x="132" y="722"/>
      <point x="286" y="722"/>
      <point x="132" y="722" type="curve"/>
      <point x="132" y="481"/>
      <point x="132" y="241"/>
      <point x="132" y="0" type="curve"/>
      <point x="286" y="0"/>
      <point x="132" y="0"/>
    </contour>
    <contour>
      <point x="199" y="347" type="curve"/>
      <point x="260" y="347"/>
      <point x="308" y="347"/>
      <point x="368" y="347" type="curve"/>
      <point x="448" y="347"/>
      <point x="492" y="303"/>
      <point x="492" y="227" type="curve"/>
      <point x="492" y="154"/>
      <point x="450" y="112"/>
      <point x="374" y="112" type="curve"/>
      <point x="311" y="112"/>
      <point x="262" y="112"/>
      <point x="199" y="112" type="curve"/>
      <point x="199" y="50"/>
      <point x="199" y="62"/>
      <point x="199" y="0" type="curve"/>
      <point x="264" y="0"/>
      <point x="316" y="0"/>
      <point x="381" y="0" type="curve"/>
      <point x="537" y="0"/>
      <point x="640" y="75"/>
      <point x="640" y="225" type="curve"/>
      <point x="640" y="395"/>
      <point x="472" y="460"/>
      <point x="312" y="460" type="curve"/>
      <point x="272" y="460"/>
      <point x="239" y="460"/>
      <point x="199" y="460" type="curve"/>
      <point x="199" y="398"/>
      <point x="199" y="409"/>
    </contour>
  </outline>
</glyph>
<glyph name="D" format="1">
  <advance width="787"/>
  <unicode hex="0044"/>
  <outline>
    <contour>
      <point x="361" y="780" type="move" name="top"/>
    </contour>
    <contour>
      <point x="211" y="112" type="curve"/>
      <point x="67" y="112"/>
      <point x="211" y="112"/>
      <point x="67" y="112" type="curve"/>
      <point x="67" y="0"/>
      <point x="67" y="112"/>
      <point x="67" y="0" type="curve"/>
      <point x="115" y="0"/>
      <point x="164" y="0"/>
      <point x="211" y="0" type="curve"/>
      <point x="211" y="112"/>
      <point x="211" y="0"/>
    </contour>
    <contour>
      <point x="211" y="722" type="curve"/>
      <point x="164" y="722"/>
      <point x="115" y="722"/>
      <point x="67" y="722" type="curve"/>
      <point x="67" y="610"/>
      <point x="67" y="722"/>
      <point x="67" y="610" type="curve"/>
      <point x="211" y="610"/>
      <point x="67" y="610"/>
      <point x="211" y="610" type="curve"/>
      <point x="211" y="722"/>
      <point x="211" y="610"/>
    </contour>
    <contour>
      <point x="136" y="722" type="curve"/>
      <point x="136" y="481"/>
      <point x="136" y="241"/>
      <point x="136" y="0" type="curve"/>
      <point x="283" y="0"/>
      <point x="136" y="0"/>
      <point x="283" y="0" type="curve"/>
      <point x="283" y="241"/>
      <point x="283" y="481"/>
      <point x="283" y="722" type="curve"/>
      <point x="136" y="722"/>
      <point x="283" y="722"/>
    </contour>
    <contour>
      <point x="211" y="0" type="curve"/>
      <point x="269" y="0"/>
      <point x="327" y="0"/>
      <point x="385" y="0" type="curve"/>
      <point x="615" y="0"/>
      <point x="736" y="123"/>
      <point x="736" y="354" type="curve"/>
      <point x="736" y="592"/>
      <point x="617" y="722"/>
      <point x="382" y="722" type="curve"/>
      <point x="325" y="722"/>
      <point x="268" y="722"/>
      <point x="211" y="722" type="curve"/>
      <point x="211" y="610"/>
      <point x="211" y="722"/>
      <point x="211" y="610" type="curve"/>
      <point x="266" y="610"/>
      <point x="320" y="610"/>
      <point x="375" y="610" type="curve"/>
      <point x="529" y="610"/>
      <point x="589" y="512"/>
      <point x="589" y="351" type="curve"/>
      <point x="589" y="204"/>
      <point x="536" y="112"/>
      <point x="398" y="112" type="curve"/>
      <point x="335" y="112"/>
      <point x="274" y="112"/>
      <point x="211" y="112" type="curve"/>
      <point x="211" y="0"/>
      <point x="211" y="112"/>
    </contour>
  </outline>
</glyph>
<glyph name="J" format="1">
  <advance width="450"/>
  <unicode hex="004A"/>
  <outline>
    <contour>
      <point x="285" y="722" type="curve"/>
      <point x="236" y="722"/>
      <point x="194" y="722"/>
      <point x="144" y="722" type="curve"/>
      <point x="144" y="610"/>
      <point x="144" y="722"/>
      <point x="144" y="610" type="curve"/>
      <point x="293" y="610"/>
      <point x="136" y="610"/>
      <point x="285" y="610" type="curve"/>
      <point x="285" y="722"/>
      <point x="285" y="610"/>
    </contour>
    <contour>
      <point x="285" y="610" type="curve"/>
      <point x="435" y="610"/>
      <point x="277" y="610"/>
      <point x="427" y="610" type="curve"/>
      <point x="427" y="722"/>
      <point x="427" y="610"/>
      <point x="427" y="722" type="curve"/>
      <point x="377" y="722"/>
      <point x="335" y="722"/>
      <point x="285" y="722" type="curve"/>
      <point x="285" y="610"/>
      <point x="285" y="722"/>
    </contour>
    <contour>
      <point x="-4" y="45" type="curve"/>
      <point x="27" y="23"/>
      <point x="73" y="-4"/>
      <point x="130" y="-4" type="curve"/>
      <point x="280" y="-4"/>
      <point x="359" y="82"/>
      <point x="359" y="246" type="curve"/>
      <point x="359" y="403"/>
      <point x="359" y="564"/>
      <point x="359" y="722" type="curve"/>
      <point x="211" y="722"/>
      <point x="359" y="722"/>
      <point x="211" y="722" type="curve"/>
      <point x="211" y="564"/>
      <point x="211" y="403"/>
      <point x="211" y="246" type="curve"/>
      <point x="211" y="169"/>
      <point x="197" y="110"/>
      <point x="130" y="110" type="curve"/>
      <point x="102" y="110"/>
      <point x="85" y="121"/>
      <point x="63" y="134" type="curve"/>
      <point x="-4" y="45"/>
      <point x="63" y="134"/>
    </contour>
  </outline>
</glyph>
<glyph name="K" format="1">
  <advance width="723"/>
  <unicode hex="004B"/>
  <outline>
    <contour>
      <point x="397" y="2" type="move" name="bottom"/>
    </contour>
    <contour>
      <point x="556" y="722" type="curve"/>
      <point x="503" y="722"/>
      <point x="420" y="722"/>
      <point x="369" y="722" type="curve"/>
      <point x="369" y="610"/>
      <point x="369" y="722"/>
      <point x="369" y="610" type="curve"/>
      <point x="524" y="610"/>
      <point x="400" y="610"/>
      <point x="556" y="610" type="curve"/>
      <point x="556" y="722"/>
      <point x="556" y="610"/>
    </contour>
    <contour>
      <point x="555" y="0" type="curve"/>
      <point x="620" y="0"/>
      <point x="627" y="0"/>
      <point x="693" y="0" type="curve"/>
      <point x="693" y="112"/>
      <point x="693" y="0"/>
      <point x="693" y="112" type="curve"/>
      <point x="497" y="112"/>
      <point x="750" y="112"/>
      <point x="555" y="112" type="curve"/>
      <point x="555" y="0"/>
      <point x="555" y="112"/>
    </contour>
    <contour>
      <point x="534" y="610" type="curve"/>
      <point x="683" y="610"/>
      <point x="510" y="610"/>
      <point x="660" y="610" type="curve"/>
      <point x="660" y="722"/>
      <point x="660" y="610"/>
      <point x="660" y="722" type="curve"/>
      <point x="610" y="722"/>
      <point x="584" y="722"/>
      <point x="534" y="722" type="curve"/>
      <point x="534" y="610"/>
      <point x="534" y="722"/>
    </contour>
    <contour>
      <point x="182" y="722" type="curve"/>
      <point x="132" y="722"/>
      <point x="90" y="722"/>
      <point x="40" y="722" type="curve"/>
      <point x="40" y="610"/>
      <point x="40" y="722"/>
      <point x="40" y="610" type="curve"/>
      <point x="190" y="610"/>
      <point x="32" y="610"/>
      <point x="182" y="610" type="curve"/>
      <point x="182" y="722"/>
      <point x="182" y="610"/>
    </contour>
    <contour>
      <point x="182" y="610" type="curve"/>
      <point x="328" y="610"/>
      <point x="151" y="610"/>
      <point x="297" y="610" type="curve"/>
      <point x="297" y="722"/>
      <point x="297" y="610"/>
      <point x="297" y="722" type="curve"/>
      <point x="248" y="722"/>
      <point x="231" y="722"/>
      <point x="182" y="722" type="curve"/>
      <point x="182" y="610"/>
      <point x="182" y="722"/>
    </contour>
    <contour>
      <point x="182" y="0" type="curve"/>
      <point x="236" y="0"/>
      <point x="146" y="0"/>
      <point x="310" y="0" type="curve"/>
      <point x="310" y="112"/>
      <point x="310" y="0"/>
      <point x="310" y="112" type="curve"/>
      <point x="146" y="112"/>
      <point x="344" y="112"/>
      <point x="182" y="112" type="curve"/>
      <point x="182" y="0"/>
      <point x="182" y="112"/>
    </contour>
    <contour>
      <point x="182" y="112" type="curve"/>
      <point x="32" y="112"/>
      <point x="190" y="112"/>
      <point x="40" y="112" type="curve"/>
      <point x="40" y="0"/>
      <point x="40" y="112"/>
      <point x="40" y="0" type="curve"/>
      <point x="90" y="0"/>
      <point x="132" y="0"/>
      <point x="182" y="0" type="curve"/>
      <point x="182" y="112"/>
      <point x="182" y="0"/>
    </contour>
    <contour>
      <point x="517" y="722" type="curve"/>
      <point x="231" y="380" type="line"/>
      <point x="397" y="380"/>
      <point x="230" y="380"/>
      <point x="396" y="380" type="curve"/>
      <point x="629" y="662" type="line"/>
      <point x="493" y="662"/>
      <point x="653" y="722"/>
    </contour>
    <contour>
      <point x="256" y="0" type="curve"/>
      <point x="256" y="722" type="line"/>
      <point x="108" y="722"/>
      <point x="256" y="722"/>
      <point x="108" y="722" type="curve"/>
      <point x="108" y="481"/>
      <point x="108" y="241"/>
      <point x="108" y="0" type="curve"/>
      <point x="256" y="0"/>
      <point x="108" y="0"/>
    </contour>
    <contour>
      <point x="663" y="52" type="curve"/>
      <point x="396" y="380" type="line"/>
      <point x="230" y="380"/>
      <point x="397" y="380"/>
      <point x="231" y="380" type="curve"/>
      <point x="536" y="0" type="line"/>
      <point x="686" y="0"/>
      <point x="513" y="52"/>
    </contour>
  </outline>
</glyph>
<glyph name="P" format="1">
  <advance width="641"/>
  <unicode hex="0050"/>
  <outline>
    <contour>
      <point x="210" y="722" type="curve"/>
      <point x="163" y="722"/>
      <point x="115" y="722"/>
      <point x="66" y="722" type="curve"/>
      <point x="66" y="610"/>
      <point x="66" y="722"/>
      <point x="66" y="610" type="curve"/>
      <point x="210" y="610"/>
      <point x="66" y="610"/>
      <point x="210" y="610" type="curve"/>
      <point x="210" y="722"/>
      <point x="210" y="610"/>
    </contour>
    <contour>
      <point x="210" y="112" type="curve"/>
      <point x="66" y="112"/>
      <point x="210" y="112"/>
      <point x="66" y="112" type="curve"/>
      <point x="66" y="0"/>
      <point x="66" y="112"/>
      <point x="66" y="0" type="curve"/>
      <point x="115" y="0"/>
      <point x="163" y="0"/>
      <point x="210" y="0" type="curve"/>
      <point x="210" y="112"/>
      <point x="210" y="0"/>
    </contour>
    <contour>
      <point x="210" y="0" type="curve"/>
      <point x="259" y="0"/>
      <point x="210" y="0"/>
      <point x="355" y="0" type="curve"/>
      <point x="355" y="112"/>
      <point x="355" y="0"/>
      <point x="355" y="112" type="curve"/>
      <point x="210" y="112"/>
      <point x="355" y="112"/>
      <point x="210" y="112" type="curve"/>
      <point x="210" y="0"/>
      <point x="210" y="112"/>
    </contour>
    <contour>
      <point x="189" y="295" type="curve"/>
      <point x="245" y="266"/>
      <point x="309" y="249"/>
      <point x="376" y="249" type="curve"/>
      <point x="516" y="252"/>
      <point x="609" y="329"/>
      <point x="609" y="477" type="curve"/>
      <point x="609" y="632"/>
      <point x="496" y="722"/>
      <point x="337" y="722" type="curve"/>
      <point x="295" y="722"/>
      <point x="254" y="722"/>
      <point x="214" y="722" type="curve"/>
      <point x="214" y="610"/>
      <point x="214" y="722"/>
      <point x="214" y="610" type="curve"/>
      <point x="248" y="610"/>
      <point x="282" y="610"/>
      <point x="317" y="610" type="curve"/>
      <point x="403" y="610"/>
      <point x="461" y="562"/>
      <point x="461" y="481" type="curve"/>
      <point x="461" y="406"/>
      <point x="424" y="358"/>
      <point x="357" y="358" type="curve"/>
      <point x="310" y="358"/>
      <point x="277" y="369"/>
      <point x="235" y="390" type="curve"/>
      <point x="190" y="297"/>
      <point x="235" y="390"/>
    </contour>
    <contour>
      <point x="284" y="0" type="curve"/>
      <point x="284" y="241"/>
      <point x="284" y="481"/>
      <point x="284" y="722" type="curve"/>
      <point x="136" y="722"/>
      <point x="284" y="722"/>
      <point x="136" y="722" type="curve"/>
      <point x="136" y="481"/>
      <point x="136" y="241"/>
      <point x="136" y="0" type="curve"/>
      <point x="284" y="0"/>
      <point x="136" y="0"/>
    </contour>
  </outline>
</glyph>
<glyph name="X" format="1">
  <advance width="687"/>
  <unicode hex="0058"/>
  <outline>
    <contour>
      <point x="164" y="0" type="curve"/>
      <point x="212" y="0"/>
      <point x="164" y="0"/>
      <point x="308" y="0" type="curve"/>
      <point x="308" y="112"/>
      <point x="308" y="0"/>
      <point x="308" y="112" type="curve"/>
      <point x="164" y="112"/>
      <point x="308" y="112"/>
      <point x="164" y="112" type="curve"/>
      <point x="164" y="0"/>
      <point x="164" y="112"/>
    </contour>
    <contour>
      <point x="149" y="112" type="curve"/>
      <point x="17" y="112"/>
      <point x="149" y="112"/>
      <point x="17" y="112" type="curve"/>
      <point x="16" y="0"/>
      <point x="17" y="112"/>
      <point x="16" y="0" type="curve"/>
      <point x="60" y="0"/>
      <point x="105" y="0"/>
      <point x="149" y="0" type="curve"/>
      <point x="149" y="112"/>
      <point x="149" y="0"/>
    </contour>
    <contour>
      <point x="535" y="0" type="curve"/>
      <point x="579" y="0"/>
      <point x="623" y="0"/>
      <point x="667" y="0" type="curve"/>
      <point x="667" y="112"/>
      <point x="667" y="0"/>
      <point x="667" y="112" type="curve"/>
      <point x="535" y="112"/>
      <point x="667" y="112"/>
      <point x="535" y="112" type="curve"/>
      <point x="535" y="0"/>
      <point x="535" y="112"/>
    </contour>
    <contour>
      <point x="520" y="112" type="curve"/>
      <point x="375" y="112"/>
      <point x="520" y="112"/>
      <point x="375" y="112" type="curve"/>
      <point x="375" y="0"/>
      <point x="375" y="112"/>
      <point x="375" y="0" type="curve"/>
      <point x="423" y="0"/>
      <point x="472" y="0"/>
      <point x="520" y="0" type="curve"/>
      <point x="520" y="112"/>
      <point x="520" y="0"/>
    </contour>
    <contour>
      <point x="515" y="610" type="curve"/>
      <point x="647" y="610"/>
      <point x="515" y="610"/>
      <point x="647" y="610" type="curve"/>
      <point x="647" y="722"/>
      <point x="647" y="610"/>
      <point x="647" y="722" type="curve"/>
      <point x="603" y="722"/>
      <point x="558" y="722"/>
      <point x="515" y="722" type="curve"/>
      <point x="515" y="610"/>
      <point x="515" y="722"/>
    </contour>
    <contour>
      <point x="526" y="722" type="curve"/>
      <point x="475" y="722"/>
      <point x="424" y="722"/>
      <point x="373" y="722" type="curve"/>
      <point x="373" y="610"/>
      <point x="373" y="722"/>
      <point x="373" y="610" type="curve"/>
      <point x="526" y="610"/>
      <point x="373" y="610"/>
      <point x="526" y="610" type="curve"/>
      <point x="526" y="722"/>
      <point x="526" y="610"/>
    </contour>
    <contour>
      <point x="174" y="722" type="curve"/>
      <point x="131" y="722"/>
      <point x="86" y="722"/>
      <point x="42" y="722" type="curve"/>
      <point x="42" y="610"/>
      <point x="42" y="722"/>
      <point x="42" y="610" type="curve"/>
      <point x="174" y="610"/>
      <point x="42" y="610"/>
      <point x="174" y="610" type="curve"/>
      <point x="174" y="722"/>
      <point x="174" y="610"/>
    </contour>
    <contour>
      <point x="163" y="610" type="curve"/>
      <point x="316" y="610"/>
      <point x="163" y="610"/>
      <point x="316" y="610" type="curve"/>
      <point x="316" y="722"/>
      <point x="316" y="610"/>
      <point x="316" y="722" type="curve"/>
      <point x="265" y="722"/>
      <point x="214" y="722"/>
      <point x="163" y="722" type="curve"/>
      <point x="163" y="610"/>
      <point x="163" y="722"/>
    </contour>
    <contour>
      <point x="484" y="722" type="curve"/>
      <point x="339" y="485"/>
      <point x="192" y="250"/>
      <point x="47" y="14" type="curve"/>
      <point x="191" y="14"/>
      <point x="47" y="0"/>
      <point x="191" y="0" type="curve"/>
      <point x="336" y="237"/>
      <point x="479" y="474"/>
      <point x="624" y="711" type="curve"/>
      <point x="484" y="711"/>
      <point x="624" y="722"/>
    </contour>
    <contour>
      <point x="67" y="710" type="curve"/>
      <point x="211" y="474"/>
      <point x="353" y="237"/>
      <point x="496" y="0" type="curve"/>
      <point x="640" y="0"/>
      <point x="496" y="9"/>
      <point x="640" y="9" type="curve"/>
      <point x="495" y="247"/>
      <point x="350" y="484"/>
      <point x="205" y="722" type="curve"/>
      <point x="67" y="722"/>
      <point x="205" y="710"/>
    </contour>
  </outline>
</glyph>
<glyph name="Z" format="1">
  <advance width="675"/>
  <unicode hex="005A"/>
  <outline>
    <contour>
      <point x="334" y="780" type="move" name="top"/>
    </contour>
    <contour>
      <point x="63" y="666" type="curve"/>
      <point x="63" y="546"/>
      <point x="63" y="666"/>
      <point x="63" y="546" type="curve"/>
      <point x="178" y="546"/>
      <point x="63" y="546"/>
      <point x="178" y="546" type="curve"/>
      <point x="178" y="666"/>
      <point x="178" y="546"/>
      <point x="178" y="666" type="curve"/>
      <point x="63" y="666"/>
      <point x="178" y="666"/>
    </contour>
    <contour>
      <point x="626" y="56" type="curve"/>
      <point x="626" y="176"/>
      <point x="626" y="56"/>
      <point x="626" y="176" type="curve"/>
      <point x="511" y="176"/>
      <point x="626" y="176"/>
      <point x="511" y="176" type="curve"/>
      <point x="511" y="56"/>
      <point x="511" y="176"/>
      <point x="511" y="56" type="curve"/>
      <point x="626" y="56"/>
      <point x="511" y="56"/>
    </contour>
    <contour>
      <point x="63" y="610" type="curve"/>
      <point x="207" y="610"/>
      <point x="406" y="610"/>
      <point x="550" y="610" type="curve"/>
      <point x="538" y="621"/>
      <point x="518" y="618"/>
      <point x="507" y="629" type="curve"/>
      <point x="497" y="639"/>
      <point x="498" y="656"/>
      <point x="488" y="667" type="curve"/>
      <point x="481" y="657"/>
      <point x="464" y="667"/>
      <point x="458" y="657" type="curve"/>
      <point x="33" y="112" type="line"/>
      <point x="33" y="55"/>
      <point x="33" y="112"/>
      <point x="33" y="55" type="curve"/>
      <point x="33" y="0"/>
      <point x="33" y="55"/>
      <point x="33" y="0" type="curve"/>
      <point x="87" y="0"/>
      <point x="33" y="0"/>
      <point x="87" y="0" type="curve"/>
      <point x="603" y="0"/>
      <point x="454" y="0"/>
      <point x="626" y="0" type="curve"/>
      <point x="626" y="112"/>
      <point x="626" y="0"/>
      <point x="626" y="112" type="curve"/>
      <point x="454" y="112"/>
      <point x="259" y="112"/>
      <point x="87" y="112" type="curve"/>
      <point x="98" y="104"/>
      <point x="114" y="104"/>
      <point x="125" y="96" type="curve"/>
      <point x="135" y="85"/>
      <point x="136" y="67"/>
      <point x="147" y="55" type="curve"/>
      <point x="156" y="66"/>
      <point x="175" y="55"/>
      <point x="183" y="65" type="curve"/>
      <point x="612" y="610" type="line"/>
      <point x="612" y="667"/>
      <point x="612" y="610"/>
      <point x="612" y="667" type="curve"/>
      <point x="612" y="722"/>
      <point x="612" y="667"/>
      <point x="612" y="722" type="curve"/>
      <point x="545" y="722"/>
      <point x="612" y="722"/>
      <point x="545" y="722" type="curve"/>
      <point x="402" y="722"/>
      <point x="206" y="722"/>
      <point x="63" y="722" type="curve"/>
      <point x="63" y="610"/>
      <point x="63" y="722"/>
    </contour>
  </outline>
</glyph>
<glyph name="h" format="1">
  <advance width="633"/>
  <unicode hex="0068"/>
  <outline>
    <contour>
      <point x="484" y="-1" type="curve"/>
      <point x="536" y="-1"/>
      <point x="578" y="0"/>
      <point x="629" y="0" type="curve"/>
      <point x="629" y="112"/>
      <point x="629" y="0"/>
      <point x="629" y="112" type="curve"/>
      <point x="477" y="112"/>
      <point x="637" y="112"/>
      <point x="484" y="112" type="curve"/>
      <point x="484" y="-1"/>
      <point x="484" y="112"/>
    </contour>
    <contour>
      <point x="152" y="-1" type="curve"/>
      <point x="197" y="-1"/>
      <point x="144" y="-1"/>
      <point x="278" y="0" type="curve"/>
      <point x="278" y="112"/>
      <point x="278" y="0"/>
      <point x="278" y="112" type="curve"/>
      <point x="144" y="112"/>
      <point x="286" y="112"/>
      <point x="152" y="112" type="curve"/>
      <point x="152" y="-1"/>
      <point x="152" y="112"/>
    </contour>
    <contour>
      <point x="152" y="799" type="curve"/>
      <point x="101" y="799"/>
      <point x="58" y="800"/>
      <point x="8" y="800" type="curve"/>
      <point x="8" y="688"/>
      <point x="8" y="800"/>
      <point x="8" y="688" type="curve"/>
      <point x="160" y="687"/>
      <point x="0" y="688"/>
      <point x="152" y="687" type="curve"/>
      <point x="152" y="799"/>
      <point x="152" y="687"/>
    </contour>
    <contour>
      <point x="152" y="112" type="curve"/>
      <point x="0" y="112"/>
      <point x="160" y="112"/>
      <point x="8" y="112" type="curve"/>
      <point x="8" y="0"/>
      <point x="8" y="112"/>
      <point x="8" y="0" type="curve"/>
      <point x="58" y="0"/>
      <point x="101" y="-1"/>
      <point x="152" y="-1" type="curve"/>
      <point x="152" y="112"/>
      <point x="152" y="-1"/>
    </contour>
    <contour>
      <point x="193" y="292" type="curve"/>
      <point x="217" y="362"/>
      <point x="264" y="422"/>
      <point x="330" y="422" type="curve"/>
      <point x="395" y="422"/>
      <point x="411" y="371"/>
      <point x="411" y="303" type="curve"/>
      <point x="411" y="201"/>
      <point x="411" y="103"/>
      <point x="411" y="0" type="curve"/>
      <point x="559" y="0"/>
      <point x="411" y="0"/>
      <point x="559" y="0" type="curve"/>
      <point x="559" y="106"/>
      <point x="559" y="212"/>
      <point x="559" y="318" type="curve"/>
      <point x="559" y="452"/>
      <point x="503" y="534"/>
      <point x="367" y="534" type="curve"/>
      <point x="264" y="534"/>
      <point x="179" y="457"/>
      <point x="145" y="346" type="curve"/>
      <point x="194" y="290"/>
      <point x="144" y="348"/>
    </contour>
    <contour>
      <point x="226" y="0" type="curve"/>
      <point x="226" y="267"/>
      <point x="226" y="533"/>
      <point x="226" y="800" type="curve"/>
      <point x="78" y="800"/>
      <point x="226" y="800"/>
      <point x="78" y="800" type="curve"/>
      <point x="78" y="533"/>
      <point x="78" y="267"/>
      <point x="78" y="0" type="curve"/>
      <point x="226" y="0"/>
      <point x="78" y="0"/>
    </contour>
  </outline>
</glyph>
<glyph name="i" format="1">
  <advance width="332"/>
  <unicode hex="0069"/>
  <outline>
    <contour>
      <point x="168" y="611" type="move" name="top"/>
    </contour>
    <contour>
      <point x="239" y="7" type="move" name="bottom"/>
    </contour>
    <contour>
      <point x="172" y="112" type="curve"/>
      <point x="20" y="112"/>
      <point x="180" y="112"/>
      <point x="28" y="112" type="curve"/>
      <point x="28" y="0"/>
      <point x="28" y="112"/>
      <point x="28" y="0" type="curve"/>
      <point x="79" y="0"/>
      <point x="122" y="0"/>
      <point x="172" y="0" type="curve"/>
      <point x="172" y="112"/>
      <point x="172" y="0"/>
    </contour>
    <contour>
      <point x="172" y="0" type="curve"/>
      <point x="220" y="0"/>
      <point x="262" y="0"/>
      <point x="311" y="0" type="curve"/>
      <point x="311" y="112"/>
      <point x="311" y="0"/>
      <point x="311" y="112" type="curve"/>
      <point x="167" y="112"/>
      <point x="316" y="112"/>
      <point x="172" y="112" type="curve"/>
      <point x="172" y="0"/>
      <point x="172" y="112"/>
    </contour>
    <contour>
      <point x="172" y="533" type="curve"/>
      <point x="122" y="533"/>
      <point x="79" y="533"/>
      <point x="28" y="533" type="curve"/>
      <point x="28" y="421"/>
      <point x="28" y="533"/>
      <point x="28" y="421" type="curve"/>
      <point x="180" y="421"/>
      <point x="20" y="421"/>
      <point x="172" y="421" type="curve"/>
      <point x="172" y="533"/>
      <point x="172" y="421"/>
    </contour>
    <contour>
      <point x="250" y="0" type="curve"/>
      <point x="250" y="178"/>
      <point x="250" y="355"/>
      <point x="250" y="533" type="curve"/>
      <point x="95" y="533"/>
      <point x="250" y="533"/>
      <point x="95" y="533" type="curve"/>
      <point x="95" y="355"/>
      <point x="95" y="178"/>
      <point x="95" y="0" type="curve"/>
      <point x="250" y="0"/>
      <point x="95" y="0"/>
    </contour>
    <contour>
      <point x="249" y="680" type="curve"/>
      <point x="249" y="729"/>
      <point x="214" y="753"/>
      <point x="168" y="753" type="curve"/>
      <point x="121" y="753"/>
      <point x="90" y="727"/>
      <point x="90" y="680" type="curve"/>
      <point x="249" y="680"/>
      <point x="90" y="680"/>
      <point x="249" y="680" type="curve"/>
      <point x="249" y="630"/>
      <point x="215" y="608"/>
      <point x="168" y="608" type="curve"/>
      <point x="120" y="608"/>
      <point x="90" y="632"/>
      <point x="90" y="680" type="curve"/>
      <point x="249" y="680"/>
      <point x="90" y="680"/>
    </contour>
  </outline>
</glyph>
<glyph name="j" format="1">
  <advance width="295"/>
  <unicode hex="006A"/>
  <outline>
    <contour>
      <point x="148" y="533" type="curve"/>
      <point x="97" y="533"/>
      <point x="46" y="533"/>
      <point x="-4" y="533" type="curve"/>
      <point x="-4" y="421"/>
      <point x="-4" y="533"/>
      <point x="-4" y="421" type="curve"/>
      <point x="148" y="421"/>
      <point x="-4" y="421"/>
      <point x="148" y="421" type="curve"/>
      <point x="148" y="533"/>
      <point x="148" y="421"/>
    </contour>
    <contour>
      <point x="-18" y="-303" type="curve"/>
      <point x="-9" y="-304"/>
      <point x="2" y="-305"/>
      <point x="14" y="-305" type="curve"/>
      <point x="135" y="-305"/>
      <point x="223" y="-236"/>
      <point x="223" y="-119" type="curve"/>
      <point x="223" y="98"/>
      <point x="223" y="316"/>
      <point x="223" y="534" type="curve"/>
      <point x="75" y="534"/>
      <point x="223" y="534"/>
      <point x="75" y="534" type="curve"/>
      <point x="75" y="316"/>
      <point x="75" y="98"/>
      <point x="75" y="-119" type="curve"/>
      <point x="75" y="-163"/>
      <point x="62" y="-198"/>
      <point x="20" y="-198" type="curve"/>
      <point x="14" y="-198"/>
      <point x="9" y="-198"/>
      <point x="2" y="-197" type="curve"/>
      <point x="-18" y="-303"/>
      <point x="2" y="-197"/>
    </contour>
    <contour>
      <point x="227" y="674" type="curve"/>
      <point x="227" y="723"/>
      <point x="193" y="747"/>
      <point x="147" y="747" type="curve"/>
      <point x="100" y="747"/>
      <point x="68" y="721"/>
      <point x="68" y="674" type="curve"/>
      <point x="227" y="674"/>
      <point x="68" y="674"/>
      <point x="227" y="674" type="curve"/>
      <point x="227" y="624"/>
      <point x="194" y="602"/>
      <point x="146" y="602" type="curve"/>
      <point x="99" y="602"/>
      <point x="68" y="626"/>
      <point x="68" y="674" type="curve"/>
      <point x="227" y="674"/>
      <point x="68" y="674"/>
    </contour>
  </outline>
</glyph>
<glyph name="q" format="1">
  <advance width="669"/>
  <unicode hex="0071"/>
  <outline>
    <contour>
      <point x="494" y="421" type="curve"/>
      <point x="605" y="421"/>
      <point x="516" y="421"/>
      <point x="629" y="421" type="curve"/>
      <point x="629" y="513"/>
      <point x="629" y="441"/>
      <point x="629" y="533" type="curve"/>
      <point x="579" y="533"/>
      <point x="543" y="533"/>
      <point x="494" y="533" type="curve"/>
      <point x="494" y="441"/>
      <point x="494" y="513"/>
    </contour>
    <contour>
      <point x="492" y="-187" type="curve"/>
      <point x="373" y="-187"/>
      <point x="468" y="-187"/>
      <point x="348" y="-187" type="curve"/>
      <point x="348" y="-280"/>
      <point x="348" y="-207"/>
      <point x="348" y="-300" type="curve"/>
      <point x="401" y="-300"/>
      <point x="440" y="-300"/>
      <point x="492" y="-300" type="curve"/>
      <point x="492" y="-207"/>
      <point x="492" y="-280"/>
    </contour>
    <contour>
      <point x="492" y="-300" type="curve"/>
      <point x="542" y="-300"/>
      <point x="579" y="-300"/>
      <point x="628" y="-300" type="curve"/>
      <point x="628" y="-207"/>
      <point x="628" y="-280"/>
      <point x="628" y="-187" type="curve"/>
      <point x="515" y="-187"/>
      <point x="606" y="-187"/>
      <point x="492" y="-187" type="curve"/>
      <point x="492" y="-280"/>
      <point x="492" y="-207"/>
    </contour>
    <contour>
      <point x="504" y="390" type="curve"/>
      <point x="449" y="479"/>
      <point x="375" y="538"/>
      <point x="276" y="538" type="curve"/>
      <point x="115" y="538"/>
      <point x="40" y="422"/>
      <point x="40" y="264" type="curve"/>
      <point x="40" y="107"/>
      <point x="121" y="-5"/>
      <point x="281" y="-5" type="curve"/>
      <point x="378" y="-5"/>
      <point x="450" y="55"/>
      <point x="510" y="134" type="curve"/>
      <point x="470" y="186"/>
      <point x="494" y="145"/>
      <point x="454" y="196" type="curve"/>
      <point x="417" y="141"/>
      <point x="368" y="107"/>
      <point x="305" y="107" type="curve"/>
      <point x="219" y="107"/>
      <point x="188" y="179"/>
      <point x="188" y="270" type="curve"/>
      <point x="188" y="356"/>
      <point x="221" y="423"/>
      <point x="303" y="423" type="curve"/>
      <point x="365" y="423"/>
      <point x="411" y="393"/>
      <point x="459" y="323" type="curve"/>
      <point x="487" y="379"/>
      <point x="474" y="334"/>
    </contour>
    <contour>
      <point x="569" y="-300" type="curve"/>
      <point x="569" y="-14"/>
      <point x="569" y="247"/>
      <point x="569" y="533" type="curve"/>
      <point x="443" y="533"/>
      <point x="541" y="533"/>
      <point x="415" y="533" type="curve"/>
      <point x="415" y="247"/>
      <point x="415" y="-14"/>
      <point x="415" y="-300" type="curve"/>
      <point x="541" y="-300"/>
      <point x="443" y="-300"/>
    </contour>
  </outline>
</glyph>
<glyph name="s" format="1">
  <advance width="511"/>
  <unicode hex="0073"/>
  <outline>
    <contour>
      <point x="253" y="610" type="move" name="top"/>
    </contour>
    <contour>
      <point x="294" y="5" type="move" name="bottom"/>
    </contour>
    <contour>
      <point x="52" y="47" type="curve"/>
      <point x="120" y="15"/>
      <point x="179" y="-5"/>
      <point x="251" y="-5" type="curve"/>
      <point x="380" y="-5"/>
      <point x="472" y="45"/>
      <point x="472" y="163" type="curve"/>
      <point x="471" y="268"/>
      <point x="383" y="295"/>
      <point x="274" y="328" type="curve"/>
      <point x="229" y="341"/>
      <point x="189" y="355"/>
      <point x="189" y="388" type="curve"/>
      <point x="189" y="408"/>
      <point x="213" y="422"/>
      <point x="247" y="422" type="curve"/>
      <point x="285" y="422"/>
      <point x="331" y="407"/>
      <point x="356" y="392" type="curve"/>
      <point x="424" y="493"/>
      <point x="356" y="392"/>
      <point x="424" y="493" type="curve"/>
      <point x="384" y="517"/>
      <point x="311" y="538"/>
      <point x="251" y="538" type="curve"/>
      <point x="135" y="538"/>
      <point x="55" y="492"/>
      <point x="55" y="387" type="curve"/>
      <point x="55" y="290"/>
      <point x="125" y="250"/>
      <point x="227" y="220" type="curve"/>
      <point x="279" y="205"/>
      <point x="330" y="193"/>
      <point x="330" y="155" type="curve"/>
      <point x="330" y="129"/>
      <point x="300" y="113"/>
      <point x="263" y="113" type="curve"/>
      <point x="212" y="113"/>
      <point x="174" y="126"/>
      <point x="126" y="148" type="curve"/>
      <point x="52" y="47"/>
      <point x="126" y="148"/>
    </contour>
    <contour>
      <point x="309" y="493" type="curve"/>
      <point x="309" y="364"/>
      <point x="309" y="488"/>
      <point x="309" y="359" type="curve"/>
      <point x="424" y="359"/>
      <point x="309" y="359"/>
      <point x="424" y="359" type="curve"/>
      <point x="424" y="488"/>
      <point x="424" y="364"/>
      <point x="424" y="493" type="curve"/>
      <point x="309" y="493"/>
      <point x="424" y="493"/>
    </contour>
    <contour>
      <point x="166" y="47" type="curve"/>
      <point x="166" y="178"/>
      <point x="166" y="54"/>
      <point x="166" y="186" type="curve"/>
      <point x="51" y="186"/>
      <point x="166" y="186"/>
      <point x="51" y="186" type="curve"/>
      <point x="51" y="54"/>
      <point x="51" y="178"/>
      <point x="51" y="47" type="curve"/>
      <point x="166" y="47"/>
      <point x="51" y="47"/>
    </contour>
  </outline>
</glyph>
<glyph name="w" format="1">
  <advance width="913"/>
  <unicode hex="0077"/>
  <outline>
    <contour>
      <point x="772" y="421" type="curve"/>
      <point x="899" y="421"/>
      <point x="772" y="421"/>
      <point x="899" y="421" type="curve"/>
      <point x="899" y="533"/>
      <point x="899" y="421"/>
      <point x="899" y="533" type="curve"/>
      <point x="857" y="533"/>
      <point x="814" y="533"/>
      <point x="772" y="533" type="curve"/>
      <point x="772" y="421"/>
      <point x="772" y="533"/>
    </contour>
    <contour>
      <point x="772" y="533" type="curve"/>
      <point x="728" y="533"/>
      <point x="684" y="533"/>
      <point x="641" y="533" type="curve"/>
      <point x="641" y="421"/>
      <point x="641" y="533"/>
      <point x="641" y="421" type="curve"/>
      <point x="772" y="421"/>
      <point x="641" y="421"/>
      <point x="772" y="421" type="curve"/>
      <point x="772" y="533"/>
      <point x="772" y="421"/>
    </contour>
    <contour>
      <point x="145" y="533" type="curve"/>
      <point x="102" y="533"/>
      <point x="60" y="533"/>
      <point x="17" y="533" type="curve"/>
      <point x="17" y="421"/>
      <point x="17" y="533"/>
      <point x="17" y="421" type="curve"/>
      <point x="145" y="421"/>
      <point x="17" y="421"/>
      <point x="145" y="421" type="curve"/>
      <point x="145" y="533"/>
      <point x="145" y="421"/>
    </contour>
    <contour>
      <point x="145" y="421" type="curve"/>
      <point x="271" y="421"/>
      <point x="145" y="421"/>
      <point x="271" y="421" type="curve"/>
      <point x="271" y="533"/>
      <point x="271" y="421"/>
      <point x="271" y="533" type="curve"/>
      <point x="229" y="533"/>
      <point x="186" y="533"/>
      <point x="145" y="533" type="curve"/>
      <point x="145" y="421"/>
      <point x="145" y="533"/>
    </contour>
    <contour>
      <point x="346" y="0" type="curve"/>
      <point x="407" y="178"/>
      <point x="468" y="355"/>
      <point x="528" y="533" type="curve"/>
      <point x="394" y="533"/>
      <point x="528" y="533"/>
      <point x="394" y="533" type="curve"/>
      <point x="335" y="355"/>
      <point x="275" y="178"/>
      <point x="215" y="0" type="curve"/>
      <point x="346" y="0"/>
      <point x="215" y="0"/>
    </contour>
    <contour>
      <point x="732" y="533" type="curve"/>
      <point x="676" y="355"/>
      <point x="620" y="178"/>
      <point x="565" y="0" type="curve"/>
      <point x="695" y="0"/>
      <point x="565" y="0"/>
      <point x="695" y="0" type="curve"/>
      <point x="752" y="178"/>
      <point x="810" y="355"/>
      <point x="866" y="533" type="curve"/>
      <point x="732" y="533"/>
      <point x="866" y="533"/>
    </contour>
    <contour>
      <point x="400" y="533" type="curve"/>
      <point x="454" y="355"/>
      <point x="509" y="178"/>
      <point x="564" y="0" type="curve"/>
      <point x="695" y="0"/>
      <point x="564" y="0"/>
      <point x="695" y="0" type="curve"/>
      <point x="641" y="178"/>
      <point x="586" y="355"/>
      <point x="532" y="533" type="curve"/>
      <point x="400" y="533"/>
      <point x="532" y="533"/>
    </contour>
    <contour>
      <point x="51" y="533" type="curve"/>
      <point x="105" y="355"/>
      <point x="160" y="178"/>
      <point x="215" y="0" type="curve"/>
      <point x="345" y="0"/>
      <point x="215" y="0"/>
      <point x="345" y="0" type="curve"/>
      <point x="292" y="178"/>
      <point x="238" y="355"/>
      <point x="184" y="533" type="curve"/>
      <point x="51" y="533"/>
      <point x="184" y="533"/>
    </contour>
  </outline>
</glyph>
<glyph name="braceleft" format="1">
  <advance width="291"/>
  <unicode hex="007B"/>
  <outline>
    <contour>
      <point x="243" y="4" type="curve"/>
      <point x="210" y="4"/>
      <point x="206" y="32"/>
      <point x="206" y="67" type="curve"/>
      <point x="206" y="118"/>
      <point x="206" y="168"/>
      <point x="206" y="219" type="curve"/>
      <point x="206" y="328"/>
      <point x="142" y="400"/>
      <point x="36" y="400" type="curve"/>
      <point x="36" y="282"/>
      <point x="36" y="400"/>
      <point x="36" y="282" type="curve"/>
      <point x="64" y="282"/>
      <point x="72" y="260"/>
      <point x="72" y="230" type="curve"/>
      <point x="72" y="178"/>
      <point x="72" y="125"/>
      <point x="72" y="73" type="curve"/>
      <point x="72" y="-37"/>
      <point x="135" y="-108"/>
      <point x="243" y="-108" type="curve"/>
      <point x="243" y="4"/>
      <point x="243" y="-108"/>
    </contour>
    <contour>
      <point x="243" y="790" type="curve"/>
      <point x="135" y="790"/>
      <point x="72" y="722"/>
      <point x="72" y="613" type="curve"/>
      <point x="72" y="558"/>
      <point x="72" y="503"/>
      <point x="72" y="449" type="curve"/>
      <point x="72" y="420"/>
      <point x="63" y="400"/>
      <point x="36" y="400" type="curve"/>
      <point x="36" y="282"/>
      <point x="36" y="400"/>
      <point x="36" y="282" type="curve"/>
      <point x="143" y="282"/>
      <point x="206" y="354"/>
      <point x="206" y="466" type="curve"/>
      <point x="206" y="515"/>
      <point x="206" y="563"/>
      <point x="206" y="613" type="curve"/>
      <point x="206" y="649"/>
      <point x="209" y="677"/>
      <point x="243" y="677" type="curve"/>
      <point x="243" y="790"/>
      <point x="243" y="677"/>
    </contour>
  </outline>
</glyph>
<glyph name="braceright" format="1">
  <advance width="292"/>
  <unicode hex="007D"/>
  <outline>
    <contour>
      <point x="49" y="-108" type="curve"/>
      <point x="156" y="-108"/>
      <point x="220" y="-37"/>
      <point x="220" y="73" type="curve"/>
      <point x="220" y="125"/>
      <point x="220" y="178"/>
      <point x="220" y="230" type="curve"/>
      <point x="220" y="260"/>
      <point x="227" y="282"/>
      <point x="256" y="282" type="curve"/>
      <point x="256" y="400"/>
      <point x="256" y="282"/>
      <point x="256" y="400" type="curve"/>
      <point x="149" y="400"/>
      <point x="86" y="328"/>
      <point x="86" y="219" type="curve"/>
      <point x="86" y="168"/>
      <point x="86" y="118"/>
      <point x="86" y="67" type="curve"/>
      <point x="86" y="32"/>
      <point x="81" y="4"/>
      <point x="49" y="4" type="curve"/>
      <point x="49" y="-108"/>
      <point x="49" y="4"/>
    </contour>
    <contour>
      <point x="49" y="677" type="curve"/>
      <point x="82" y="677"/>
      <point x="86" y="649"/>
      <point x="86" y="613" type="curve"/>
      <point x="86" y="563"/>
      <point x="86" y="515"/>
      <point x="86" y="466" type="curve"/>
      <point x="86" y="354"/>
      <point x="148" y="282"/>
      <point x="256" y="282" type="curve"/>
      <point x="256" y="400"/>
      <point x="256" y="282"/>
      <point x="256" y="400" type="curve"/>
      <point x="228" y="400"/>
      <point x="220" y="420"/>
      <point x="220" y="449" type="curve"/>
      <point x="220" y="503"/>
      <point x="220" y="558"/>
      <point x="220" y="613" type="curve"/>
      <point x="220" y="722"/>
      <point x="156" y="790"/>
      <point x="49" y="790" type="curve"/>
      <point x="49" y="677"/>
      <point x="49" y="790"/>
    </contour>
  </outline>
</glyph>
<glyph name="cent" format="1">
  <advance width="648"/>
  <unicode hex="00A2"/>
  <outline>
    <contour>
      <point x="419" y="-53" type="curve"/>
      <point x="419" y="-13"/>
      <point x="419" y="27"/>
      <point x="419" y="67" type="curve"/>
      <point x="271" y="67"/>
      <point x="419" y="67"/>
      <point x="271" y="67" type="curve"/>
      <point x="271" y="27"/>
      <point x="271" y="-13"/>
      <point x="271" y="-53" type="curve"/>
      <point x="419" y="-53"/>
      <point x="271" y="-53"/>
    </contour>
    <contour>
      <point x="291" y="778" type="curve"/>
      <point x="291" y="742"/>
      <point x="291" y="706"/>
      <point x="291" y="670" type="curve"/>
      <point x="438" y="670"/>
      <point x="291" y="670"/>
      <point x="438" y="670" type="curve"/>
      <point x="438" y="706"/>
      <point x="438" y="742"/>
      <point x="438" y="778" type="curve"/>
      <point x="291" y="778"/>
      <point x="438" y="778"/>
    </contour>
    <contour>
      <point x="596" y="613" type="curve"/>
      <point x="522" y="668"/>
      <point x="461" y="687"/>
      <point x="374" y="687" type="curve"/>
      <point x="173" y="687"/>
      <point x="47" y="564"/>
      <point x="47" y="363" type="curve"/>
      <point x="47" y="172"/>
      <point x="152" y="45"/>
      <point x="338" y="45" type="curve"/>
      <point x="443" y="45"/>
      <point x="516" y="70"/>
      <point x="594" y="143" type="curve"/>
      <point x="509" y="231"/>
      <point x="594" y="143"/>
      <point x="509" y="231" type="curve"/>
      <point x="454" y="190"/>
      <point x="415" y="163"/>
      <point x="352" y="163" type="curve"/>
      <point x="245" y="163"/>
      <point x="195" y="250"/>
      <point x="195" y="369" type="curve"/>
      <point x="195" y="487"/>
      <point x="255" y="569"/>
      <point x="360" y="569" type="curve"/>
      <point x="421" y="569"/>
      <point x="463" y="552"/>
      <point x="519" y="517" type="curve"/>
      <point x="596" y="613"/>
      <point x="519" y="517"/>
    </contour>
    <contour>
      <point x="481" y="613" type="curve"/>
      <point x="481" y="491"/>
      <point x="481" y="589"/>
      <point x="481" y="467" type="curve"/>
      <point x="596" y="467"/>
      <point x="481" y="467"/>
      <point x="596" y="467" type="curve"/>
      <point x="596" y="589"/>
      <point x="596" y="491"/>
      <point x="596" y="613" type="curve"/>
      <point x="481" y="613"/>
      <point x="596" y="613"/>
    </contour>
  </outline>
</glyph>
<glyph name="sterling" format="1">
  <advance width="487"/>
  <unicode hex="00A3"/>
  <outline>
    <contour>
      <point x="416" y="113" type="curve"/>
      <point x="296" y="113"/>
      <point x="169" y="113"/>
      <point x="49" y="113" type="curve"/>
      <point x="49" y="0"/>
      <point x="49" y="113"/>
      <point x="49" y="0" type="curve"/>
      <point x="169" y="0"/>
      <point x="295" y="0"/>
      <point x="416" y="0" type="curve"/>
      <point x="416" y="113"/>
      <point x="416" y="0"/>
    </contour>
    <contour>
      <point x="368" y="431" type="curve"/>
      <point x="272" y="431"/>
      <point x="168" y="431"/>
      <point x="72" y="431" type="curve"/>
      <point x="72" y="319"/>
      <point x="72" y="431"/>
      <point x="72" y="319" type="curve"/>
      <point x="168" y="319"/>
      <point x="272" y="319"/>
      <point x="368" y="319" type="curve"/>
      <point x="368" y="431"/>
      <point x="368" y="319"/>
    </contour>
    <contour>
      <point x="450" y="660" type="curve"/>
      <point x="403" y="707"/>
      <point x="361" y="720"/>
      <point x="302" y="720" type="curve"/>
      <point x="132" y="720"/>
      <point x="73" y="558"/>
      <point x="114" y="362" type="curve"/>
      <point x="141" y="233"/>
      <point x="129" y="113"/>
      <point x="49" y="113" type="curve"/>
      <point x="49" y="0"/>
      <point x="49" y="113"/>
      <point x="49" y="0" type="curve"/>
      <point x="233" y="0"/>
      <point x="292" y="176"/>
      <point x="249" y="386" type="curve"/>
      <point x="225" y="503"/>
      <point x="229" y="613"/>
      <point x="295" y="613" type="curve"/>
      <point x="329" y="613"/>
      <point x="349" y="598"/>
      <point x="377" y="578" type="curve"/>
      <point x="450" y="660"/>
      <point x="377" y="578"/>
    </contour>
  </outline>
</glyph>
<glyph name="section" format="1">
  <advance width="540"/>
  <unicode hex="00A7"/>
  <outline>
    <contour>
      <point x="431" y="699" type="curve"/>
      <point x="376" y="733"/>
      <point x="336" y="748"/>
      <point x="275" y="748" type="curve"/>
      <point x="160" y="748"/>
      <point x="81" y="695"/>
      <point x="81" y="593" type="curve"/>
      <point x="81" y="504"/>
      <point x="137" y="455"/>
      <point x="223" y="425" type="curve"/>
      <point x="278" y="406"/>
      <point x="344" y="402"/>
      <point x="344" y="359" type="curve"/>
      <point x="344" y="312"/>
      <point x="308" y="292"/>
      <point x="258" y="283" type="curve"/>
      <point x="346" y="193"/>
      <point x="258" y="283"/>
      <point x="346" y="193" type="curve"/>
      <point x="437" y="215"/>
      <point x="491" y="270"/>
      <point x="491" y="361" type="curve"/>
      <point x="490" y="465"/>
      <point x="402" y="498"/>
      <point x="297" y="531" type="curve"/>
      <point x="260" y="544"/>
      <point x="222" y="557"/>
      <point x="222" y="593" type="curve"/>
      <point x="222" y="619"/>
      <point x="242" y="636"/>
      <point x="272" y="636" type="curve"/>
      <point x="311" y="636"/>
      <point x="331" y="626"/>
      <point x="366" y="608" type="curve"/>
      <point x="431" y="699"/>
      <point x="366" y="608"/>
    </contour>
    <contour>
      <point x="194" y="528" type="curve"/>
      <point x="108" y="501"/>
      <point x="50" y="454"/>
      <point x="50" y="366" type="curve"/>
      <point x="50" y="267"/>
      <point x="124" y="225"/>
      <point x="222" y="193" type="curve"/>
      <point x="268" y="178"/>
      <point x="321" y="172"/>
      <point x="321" y="132" type="curve"/>
      <point x="321" y="103"/>
      <point x="299" y="86"/>
      <point x="270" y="86" type="curve"/>
      <point x="228" y="86"/>
      <point x="203" y="99"/>
      <point x="163" y="123" type="curve"/>
      <point x="88" y="40"/>
      <point x="163" y="123"/>
      <point x="88" y="40" type="curve"/>
      <point x="145" y="-8"/>
      <point x="196" y="-26"/>
      <point x="267" y="-26" type="curve"/>
      <point x="381" y="-26"/>
      <point x="465" y="25"/>
      <point x="465" y="134" type="curve"/>
      <point x="464" y="224"/>
      <point x="405" y="272"/>
      <point x="316" y="300" type="curve"/>
      <point x="261" y="318"/>
      <point x="198" y="323"/>
      <point x="198" y="369" type="curve"/>
      <point x="198" y="410"/>
      <point x="226" y="431"/>
      <point x="268" y="444" type="curve"/>
      <point x="194" y="528"/>
      <point x="268" y="444"/>
    </contour>
    <contour>
      <point x="202" y="40" type="curve"/>
      <point x="202" y="160"/>
      <point x="202" y="39"/>
      <point x="202" y="159" type="curve"/>
      <point x="88" y="159"/>
      <point x="202" y="159"/>
      <point x="88" y="159" type="curve"/>
      <point x="88" y="39"/>
      <point x="88" y="160"/>
      <point x="88" y="40" type="curve"/>
      <point x="202" y="40"/>
      <point x="88" y="40"/>
    </contour>
    <contour>
      <point x="431" y="580" type="curve"/>
      <point x="431" y="700"/>
      <point x="431" y="579"/>
      <point x="431" y="699" type="curve"/>
      <point x="316" y="699"/>
      <point x="431" y="699"/>
      <point x="316" y="699" type="curve"/>
      <point x="316" y="579"/>
      <point x="316" y="700"/>
      <point x="316" y="580" type="curve"/>
      <point x="431" y="580"/>
      <point x="316" y="580"/>
    </contour>
  </outline>
</glyph>
<glyph name="ordfeminine" format="1">
  <advance width="436"/>
  <unicode hex="00AA"/>
  <outline>
    <contour>
      <point x="65" y="725" type="curve"/>
      <point x="65" y="651"/>
      <point x="65" y="724"/>
      <point x="65" y="650" type="curve"/>
      <point x="141" y="650"/>
      <point x="65" y="650"/>
      <point x="141" y="650" type="curve"/>
      <point x="141" y="724"/>
      <point x="141" y="651"/>
      <point x="141" y="725" type="curve"/>
      <point x="65" y="725"/>
      <point x="141" y="725"/>
    </contour>
    <contour>
      <point x="348" y="425" type="curve"/>
      <point x="348" y="505"/>
      <point x="348" y="584"/>
      <point x="348" y="664" type="curve"/>
      <point x="348" y="746"/>
      <point x="287" y="775"/>
      <point x="204" y="775" type="curve"/>
      <point x="142" y="775"/>
      <point x="98" y="754"/>
      <point x="65" y="725" type="curve"/>
      <point x="102" y="663"/>
      <point x="67" y="724"/>
      <point x="103" y="662" type="curve"/>
      <point x="123" y="681"/>
      <point x="150" y="699"/>
      <point x="190" y="699" type="curve"/>
      <point x="226" y="699"/>
      <point x="251" y="686"/>
      <point x="251" y="651" type="curve"/>
      <point x="251" y="575"/>
      <point x="251" y="500"/>
      <point x="251" y="425" type="curve"/>
      <point x="348" y="425"/>
      <point x="251" y="425"/>
    </contour>
    <contour>
      <point x="301" y="425" type="curve"/>
      <point x="329" y="425"/>
      <point x="358" y="425"/>
      <point x="387" y="425" type="curve"/>
      <point x="387" y="498"/>
      <point x="387" y="425"/>
      <point x="387" y="498" type="curve"/>
      <point x="301" y="498"/>
      <point x="387" y="498"/>
      <point x="301" y="498" type="curve"/>
      <point x="301" y="425"/>
      <point x="301" y="498"/>
    </contour>
    <contour>
      <point x="297" y="652" type="curve"/>
      <point x="251" y="647"/>
      <point x="224" y="645"/>
      <point x="179" y="639" type="curve"/>
      <point x="101" y="629"/>
      <point x="45" y="605"/>
      <point x="45" y="532" type="curve"/>
      <point x="45" y="458"/>
      <point x="91" y="421"/>
      <point x="166" y="421" type="curve"/>
      <point x="242" y="421"/>
      <point x="273" y="472"/>
      <point x="323" y="525" type="curve"/>
      <point x="275" y="564"/>
      <point x="322" y="524"/>
      <point x="275" y="564" type="curve"/>
      <point x="250" y="525"/>
      <point x="230" y="494"/>
      <point x="187" y="494" type="curve"/>
      <point x="156" y="494"/>
      <point x="139" y="507"/>
      <point x="139" y="535" type="curve"/>
      <point x="139" y="558"/>
      <point x="158" y="571"/>
      <point x="180" y="574" type="curve"/>
      <point x="229" y="580"/>
      <point x="252" y="583"/>
      <point x="301" y="590" type="curve"/>
      <point x="297" y="652"/>
      <point x="301" y="590"/>
    </contour>
  </outline>
</glyph>
<glyph name="degree" format="1">
  <advance width="487"/>
  <unicode hex="00B0"/>
  <outline>
    <contour>
      <point x="434" y="588" type="curve"/>
      <point x="434" y="701"/>
      <point x="358" y="768"/>
      <point x="242" y="768" type="curve"/>
      <point x="128" y="768"/>
      <point x="53" y="701"/>
      <point x="53" y="588" type="curve"/>
      <point x="122" y="588"/>
      <point x="106" y="588"/>
      <point x="175" y="588" type="curve"/>
      <point x="175" y="633"/>
      <point x="198" y="664"/>
      <point x="242" y="664" type="curve"/>
      <point x="284" y="664"/>
      <point x="308" y="634"/>
      <point x="308" y="588" type="curve"/>
      <point x="308" y="542"/>
      <point x="287" y="510"/>
      <point x="244" y="510" type="curve"/>
      <point x="199" y="510"/>
      <point x="175" y="542"/>
      <point x="175" y="588" type="curve"/>
      <point x="106" y="588"/>
      <point x="122" y="588"/>
      <point x="53" y="588" type="curve"/>
      <point x="53" y="474"/>
      <point x="127" y="405"/>
      <point x="242" y="405" type="curve"/>
      <point x="359" y="405"/>
      <point x="434" y="474"/>
    </contour>
  </outline>
</glyph>
<glyph name="periodcentered" format="1">
  <advance width="266"/>
  <unicode hex="00B7"/>
  <outline>
    <contour>
      <point x="212" y="440" type="curve"/>
      <point x="212" y="489"/>
      <point x="179" y="513"/>
      <point x="132" y="513" type="curve"/>
      <point x="85" y="513"/>
      <point x="53" y="487"/>
      <point x="53" y="440" type="curve"/>
      <point x="212" y="440"/>
      <point x="53" y="440"/>
      <point x="212" y="440" type="curve"/>
      <point x="212" y="390"/>
      <point x="179" y="368"/>
      <point x="131" y="368" type="curve"/>
      <point x="85" y="368"/>
      <point x="53" y="392"/>
      <point x="53" y="440" type="curve"/>
      <point x="212" y="440"/>
      <point x="53" y="440"/>
    </contour>
  </outline>
</glyph>
<glyph name="cedilla" format="1">
  <advance width="384"/>
  <unicode hex="00B8"/>
  <outline>
    <contour>
      <point x="246" y="92" type="move" name="_bottom"/>
    </contour>
    <contour>
      <point x="146" y="171" type="curve"/>
      <point x="134" y="150"/>
      <point x="83" y="51"/>
      <point x="71" y="29" type="curve"/>
      <point x="172" y="-61"/>
      <point x="71" y="29"/>
      <point x="172" y="-61" type="curve"/>
      <point x="187" y="-35"/>
      <point x="246" y="66"/>
      <point x="260" y="92" type="curve"/>
      <point x="146" y="171"/>
      <point x="260" y="92"/>
    </contour>
    <contour>
      <point x="172" y="-61" type="curve"/>
      <point x="177" y="-57"/>
      <point x="181" y="-54"/>
      <point x="186" y="-54" type="curve"/>
      <point x="193" y="-54"/>
      <point x="199" y="-56"/>
      <point x="199" y="-65" type="curve"/>
      <point x="199" y="-77"/>
      <point x="185" y="-81"/>
      <point x="171" y="-81" type="curve"/>
      <point x="151" y="-81"/>
      <point x="134" y="-76"/>
      <point x="112" y="-65" type="curve"/>
      <point x="61" y="-147"/>
      <point x="112" y="-65"/>
      <point x="61" y="-147" type="curve"/>
      <point x="94" y="-167"/>
      <point x="125" y="-175"/>
      <point x="164" y="-175" type="curve"/>
      <point x="244" y="-175"/>
      <point x="302" y="-140"/>
      <point x="302" y="-62" type="curve"/>
      <point x="302" y="11"/>
      <point x="252" y="53"/>
      <point x="177" y="53" type="curve"/>
      <point x="137" y="53"/>
      <point x="108" y="47"/>
      <point x="71" y="29" type="curve"/>
      <point x="172" y="-61"/>
      <point x="71" y="29"/>
    </contour>
  </outline>
</glyph>
<glyph name="guillemotright" format="1">
  <advance width="517"/>
  <unicode hex="00BB"/>
  <outline>
    <contour>
      <point x="284" y="487" type="curve"/>
      <point x="335" y="452"/>
      <point x="421" y="391"/>
      <point x="473" y="356" type="curve"/>
      <point x="473" y="233"/>
      <point x="473" y="342"/>
      <point x="473" y="218" type="curve"/>
      <point x="421" y="253"/>
      <point x="335" y="322"/>
      <point x="284" y="357" type="curve"/>
      <point x="284" y="480"/>
      <point x="284" y="364"/>
    </contour>
    <contour>
      <point x="284" y="220" type="curve"/>
      <point x="335" y="255"/>
      <point x="421" y="321"/>
      <point x="473" y="356" type="curve"/>
      <point x="473" y="233"/>
      <point x="473" y="342"/>
      <point x="473" y="218" type="curve"/>
      <point x="421" y="183"/>
      <point x="335" y="124"/>
      <point x="284" y="90" type="curve"/>
      <point x="284" y="213"/>
      <point x="284" y="97"/>
    </contour>
    <contour>
      <point x="69" y="487" type="curve"/>
      <point x="120" y="452"/>
      <point x="206" y="391"/>
      <point x="257" y="356" type="curve"/>
      <point x="257" y="233"/>
      <point x="257" y="342"/>
      <point x="257" y="218" type="curve"/>
      <point x="206" y="253"/>
      <point x="120" y="322"/>
      <point x="69" y="357" type="curve"/>
      <point x="69" y="480"/>
      <point x="69" y="364"/>
    </contour>
    <contour>
      <point x="69" y="220" type="curve"/>
      <point x="120" y="255"/>
      <point x="206" y="321"/>
      <point x="257" y="356" type="curve"/>
      <point x="257" y="233"/>
      <point x="257" y="342"/>
      <point x="257" y="218" type="curve"/>
      <point x="206" y="183"/>
      <point x="120" y="124"/>
      <point x="69" y="90" type="curve"/>
      <point x="69" y="213"/>
      <point x="69" y="97"/>
    </contour>
  </outline>
</glyph>
<glyph name="Aring" format="1">
  <advance width="758"/>
  <unicode hex="00C5"/>
  <outline>
    <contour>
      <point x="126" y="112" type="curve"/>
      <point x="-11" y="112"/>
      <point x="134" y="112"/>
      <point x="-3" y="112" type="curve"/>
      <point x="-3" y="0"/>
      <point x="-3" y="112"/>
      <point x="-3" y="0" type="curve"/>
      <point x="42" y="0"/>
      <point x="81" y="0"/>
      <point x="126" y="0" type="curve"/>
      <point x="126" y="112"/>
      <point x="126" y="0"/>
    </contour>
    <contour>
      <point x="126" y="0" type="curve"/>
      <point x="185" y="0"/>
      <point x="126" y="0"/>
      <point x="304" y="0" type="curve"/>
      <point x="304" y="112"/>
      <point x="304" y="0"/>
      <point x="304" y="112" type="curve"/>
      <point x="126" y="112"/>
      <point x="304" y="112"/>
      <point x="126" y="112" type="curve"/>
      <point x="126" y="0"/>
      <point x="126" y="112"/>
    </contour>
    <contour>
      <point x="616" y="0" type="curve"/>
      <point x="661" y="0"/>
      <point x="699" y="0"/>
      <point x="745" y="0" type="curve"/>
      <point x="745" y="112"/>
      <point x="745" y="0"/>
      <point x="745" y="112" type="curve"/>
      <point x="609" y="112"/>
      <point x="752" y="112"/>
      <point x="616" y="112" type="curve"/>
      <point x="616" y="0"/>
      <point x="616" y="112"/>
    </contour>
    <contour>
      <point x="616" y="112" type="curve"/>
      <point x="438" y="112"/>
      <point x="616" y="112"/>
      <point x="438" y="112" type="curve"/>
      <point x="438" y="0"/>
      <point x="438" y="112"/>
      <point x="438" y="0" type="curve"/>
      <point x="498" y="0"/>
      <point x="557" y="0"/>
      <point x="616" y="0" type="curve"/>
      <point x="616" y="112"/>
      <point x="616" y="0"/>
    </contour>
    <contour>
      <point x="515" y="300" type="curve"/>
      <point x="426" y="300"/>
      <point x="336" y="300"/>
      <point x="247" y="300" type="curve"/>
      <point x="186" y="182"/>
      <point x="247" y="300"/>
      <point x="186" y="182" type="curve"/>
      <point x="311" y="182"/>
      <point x="437" y="182"/>
      <point x="562" y="182" type="curve"/>
      <point x="515" y="300"/>
      <point x="562" y="182"/>
    </contour>
    <contour>
      <point x="703" y="0" type="curve"/>
      <point x="622" y="241"/>
      <point x="534" y="481"/>
      <point x="453" y="722" type="curve"/>
      <point x="319" y="722"/>
      <point x="453" y="722"/>
      <point x="319" y="722" type="curve"/>
      <point x="398" y="482"/>
      <point x="470" y="240"/>
      <point x="549" y="0" type="curve"/>
      <point x="703" y="0"/>
      <point x="549" y="0"/>
    </contour>
    <contour>
      <point x="196" y="0" type="curve"/>
      <point x="285" y="240"/>
      <point x="362" y="482"/>
      <point x="452" y="722" type="curve"/>
      <point x="317" y="722"/>
      <point x="452" y="722"/>
      <point x="317" y="722" type="curve"/>
      <point x="227" y="480"/>
      <point x="125" y="242"/>
      <point x="35" y="0" type="curve"/>
      <point x="196" y="0"/>
      <point x="35" y="0"/>
    </contour>
    <contour>
      <point x="220" y="926" type="curve"/>
      <point x="220" y="832"/>
      <point x="286" y="777"/>
      <point x="382" y="777" type="curve"/>
      <point x="480" y="777"/>
      <point x="546" y="831"/>
      <point x="546" y="926" type="curve"/>
      <point x="546" y="1021"/>
      <point x="479" y="1074"/>
      <point x="380" y="1074" type="curve"/>
      <point x="284" y="1074"/>
      <point x="220" y="1020"/>
      <point x="220" y="926" type="curve"/>
      <point x="348" y="926"/>
      <point x="212" y="926"/>
      <point x="340" y="926" type="curve"/>
      <point x="340" y="953"/>
      <point x="349" y="975"/>
      <point x="380" y="975" type="curve"/>
      <point x="411" y="975"/>
      <point x="422" y="955"/>
      <point x="422" y="926" type="curve"/>
      <point x="422" y="898"/>
      <point x="412" y="877"/>
      <point x="382" y="877" type="curve"/>
      <point x="352" y="877"/>
      <point x="340" y="898"/>
      <point x="340" y="926" type="curve"/>
      <point x="212" y="926"/>
      <point x="348" y="926"/>
    </contour>
  </outline>
</glyph>
<glyph name="AE" format="1">
  <advance width="926"/>
  <unicode hex="00C6"/>
  <outline>
    <contour>
      <point x="112" y="112" type="curve"/>
      <point x="2" y="112"/>
      <point x="112" y="112"/>
      <point x="2" y="112" type="curve"/>
      <point x="2" y="0"/>
      <point x="2" y="112"/>
      <point x="2" y="0" type="curve"/>
      <point x="39" y="0"/>
      <point x="74" y="0"/>
      <point x="111" y="0" type="curve"/>
      <point x="112" y="112"/>
      <point x="111" y="0"/>
    </contour>
    <contour>
      <point x="112" y="0" type="curve"/>
      <point x="172" y="0"/>
      <point x="112" y="0"/>
      <point x="296" y="0" type="curve"/>
      <point x="296" y="112"/>
      <point x="296" y="0"/>
      <point x="296" y="112" type="curve"/>
      <point x="112" y="112"/>
      <point x="296" y="112"/>
      <point x="112" y="112" type="curve"/>
      <point x="112" y="0"/>
      <point x="112" y="112"/>
    </contour>
    <contour>
      <point x="479" y="282" type="curve"/>
      <point x="390" y="282"/>
      <point x="321" y="282"/>
      <point x="232" y="282" type="curve"/>
      <point x="172" y="164"/>
      <point x="232" y="282"/>
      <point x="172" y="164" type="curve"/>
      <point x="297" y="164"/>
      <point x="401" y="164"/>
      <point x="526" y="164" type="curve"/>
      <point x="479" y="282"/>
      <point x="526" y="164"/>
    </contour>
    <contour>
      <point x="181" y="0" type="curve"/>
      <point x="595" y="722" type="line"/>
      <point x="461" y="722"/>
      <point x="595" y="722"/>
      <point x="461" y="722" type="curve"/>
      <point x="20" y="0" type="line"/>
      <point x="181" y="0"/>
      <point x="20" y="0"/>
    </contour>
    <contour>
      <point x="888" y="56" type="curve"/>
      <point x="888" y="176"/>
      <point x="888" y="56"/>
      <point x="888" y="176" type="curve"/>
      <point x="773" y="176"/>
      <point x="888" y="176"/>
      <point x="773" y="176" type="curve"/>
      <point x="773" y="56"/>
      <point x="773" y="176"/>
      <point x="773" y="56" type="curve"/>
      <point x="888" y="56"/>
      <point x="773" y="56"/>
    </contour>
    <contour>
      <point x="743" y="666" type="curve"/>
      <point x="743" y="546"/>
      <point x="743" y="666"/>
      <point x="743" y="546" type="curve"/>
      <point x="858" y="546"/>
      <point x="743" y="546"/>
      <point x="858" y="546" type="curve"/>
      <point x="858" y="666"/>
      <point x="858" y="546"/>
      <point x="858" y="666" type="curve"/>
      <point x="743" y="666"/>
      <point x="858" y="666"/>
    </contour>
    <contour>
      <point x="504" y="112" type="curve"/>
      <point x="360" y="112"/>
      <point x="504" y="112"/>
      <point x="360" y="112" type="curve"/>
      <point x="360" y="0"/>
      <point x="360" y="112"/>
      <point x="360" y="0" type="curve"/>
      <point x="408" y="0"/>
      <point x="457" y="0"/>
      <point x="504" y="0" type="curve"/>
      <point x="504" y="112"/>
      <point x="504" y="0"/>
    </contour>
    <contour>
      <point x="504" y="722" type="curve"/>
      <point x="457" y="722"/>
      <point x="408" y="722"/>
      <point x="360" y="722" type="curve"/>
      <point x="360" y="610"/>
      <point x="360" y="722"/>
      <point x="360" y="610" type="curve"/>
      <point x="504" y="610"/>
      <point x="360" y="610"/>
      <point x="504" y="610" type="curve"/>
      <point x="504" y="722"/>
      <point x="504" y="610"/>
    </contour>
    <contour>
      <point x="508" y="316" type="curve"/>
      <point x="605" y="316"/>
      <point x="703" y="316"/>
      <point x="801" y="316" type="curve"/>
      <point x="801" y="429"/>
      <point x="801" y="316"/>
      <point x="801" y="429" type="curve"/>
      <point x="703" y="429"/>
      <point x="605" y="429"/>
      <point x="508" y="429" type="curve"/>
      <point x="508" y="316"/>
      <point x="508" y="429"/>
    </contour>
    <contour>
      <point x="493" y="610" type="curve"/>
      <point x="615" y="610"/>
      <point x="736" y="610"/>
      <point x="858" y="610" type="curve"/>
      <point x="858" y="722"/>
      <point x="858" y="610"/>
      <point x="858" y="722" type="curve"/>
      <point x="736" y="722"/>
      <point x="615" y="722"/>
      <point x="493" y="722" type="curve"/>
      <point x="493" y="610"/>
      <point x="493" y="722"/>
    </contour>
    <contour>
      <point x="577" y="0" type="curve"/>
      <point x="577" y="722" type="line"/>
      <point x="430" y="722"/>
      <point x="577" y="722"/>
      <point x="430" y="722" type="curve"/>
      <point x="430" y="481"/>
      <point x="430" y="241"/>
      <point x="430" y="0" type="curve"/>
      <point x="577" y="0"/>
      <point x="430" y="0"/>
    </contour>
    <contour>
      <point x="493" y="0" type="curve"/>
      <point x="625" y="0"/>
      <point x="756" y="0"/>
      <point x="888" y="0" type="curve"/>
      <point x="888" y="112"/>
      <point x="888" y="0"/>
      <point x="888" y="112" type="curve"/>
      <point x="756" y="112"/>
      <point x="625" y="112"/>
      <point x="493" y="112" type="curve"/>
      <point x="493" y="0"/>
      <point x="493" y="112"/>
    </contour>
  </outline>
</glyph>
<glyph name="Edieresis" format="1">
  <advance width="634"/>
  <unicode hex="00CB"/>
  <outline>
    <contour>
      <point x="595" y="56" type="curve"/>
      <point x="595" y="176"/>
      <point x="595" y="56"/>
      <point x="595" y="176" type="curve"/>
      <point x="480" y="176"/>
      <point x="595" y="176"/>
      <point x="480" y="176" type="curve"/>
      <point x="480" y="56"/>
      <point x="480" y="176"/>
      <point x="480" y="56" type="curve"/>
      <point x="595" y="56"/>
      <point x="480" y="56"/>
    </contour>
    <contour>
      <point x="450" y="666" type="curve"/>
      <point x="450" y="546"/>
      <point x="450" y="666"/>
      <point x="450" y="546" type="curve"/>
      <point x="565" y="546"/>
      <point x="450" y="546"/>
      <point x="565" y="546" type="curve"/>
      <point x="565" y="666"/>
      <point x="565" y="546"/>
      <point x="565" y="666" type="curve"/>
      <point x="450" y="666"/>
      <point x="565" y="666"/>
    </contour>
    <contour>
      <point x="211" y="112" type="curve"/>
      <point x="67" y="112"/>
      <point x="211" y="112"/>
      <point x="67" y="112" type="curve"/>
      <point x="67" y="0"/>
      <point x="67" y="112"/>
      <point x="67" y="0" type="curve"/>
      <point x="115" y="0"/>
      <point x="164" y="0"/>
      <point x="211" y="0" type="curve"/>
      <point x="211" y="112"/>
      <point x="211" y="0"/>
    </contour>
    <contour>
      <point x="211" y="722" type="curve"/>
      <point x="164" y="722"/>
      <point x="115" y="722"/>
      <point x="67" y="722" type="curve"/>
      <point x="67" y="610"/>
      <point x="67" y="722"/>
      <point x="67" y="610" type="curve"/>
      <point x="211" y="610"/>
      <point x="67" y="610"/>
      <point x="211" y="610" type="curve"/>
      <point x="211" y="722"/>
      <point x="211" y="610"/>
    </contour>
    <contour>
      <point x="215" y="316" type="curve"/>
      <point x="312" y="316"/>
      <point x="410" y="316"/>
      <point x="508" y="316" type="curve"/>
      <point x="508" y="429"/>
      <point x="508" y="316"/>
      <point x="508" y="429" type="curve"/>
      <point x="410" y="429"/>
      <point x="312" y="429"/>
      <point x="215" y="429" type="curve"/>
      <point x="215" y="316"/>
      <point x="215" y="429"/>
    </contour>
    <contour>
      <point x="201" y="610" type="curve"/>
      <point x="322" y="610"/>
      <point x="443" y="610"/>
      <point x="565" y="610" type="curve"/>
      <point x="565" y="722"/>
      <point x="565" y="610"/>
      <point x="565" y="722" type="curve"/>
      <point x="443" y="722"/>
      <point x="322" y="722"/>
      <point x="201" y="722" type="curve"/>
      <point x="201" y="610"/>
      <point x="201" y="722"/>
    </contour>
    <contour>
      <point x="285" y="0" type="curve"/>
      <point x="285" y="722" type="line"/>
      <point x="137" y="722"/>
      <point x="285" y="722"/>
      <point x="137" y="722" type="curve"/>
      <point x="137" y="481"/>
      <point x="137" y="241"/>
      <point x="137" y="0" type="curve"/>
      <point x="285" y="0"/>
      <point x="137" y="0"/>
    </contour>
    <contour>
      <point x="201" y="0" type="curve"/>
      <point x="332" y="0"/>
      <point x="463" y="0"/>
      <point x="595" y="0" type="curve"/>
      <point x="595" y="112"/>
      <point x="595" y="0"/>
      <point x="595" y="112" type="curve"/>
      <point x="463" y="112"/>
      <point x="332" y="112"/>
      <point x="201" y="112" type="curve"/>
      <point x="201" y="0"/>
      <point x="201" y="112"/>
    </contour>
    <contour>
      <point x="309" y="847" type="curve"/>
      <point x="309" y="896"/>
      <point x="274" y="920"/>
      <point x="228" y="920" type="curve"/>
      <point x="181" y="920"/>
      <point x="150" y="894"/>
      <point x="150" y="847" type="curve"/>
      <point x="309" y="847"/>
      <point x="150" y="847"/>
      <point x="309" y="847" type="curve"/>
      <point x="309" y="797"/>
      <point x="275" y="775"/>
      <point x="228" y="775" type="curve"/>
      <point x="180" y="775"/>
      <point x="150" y="799"/>
      <point x="150" y="847" type="curve"/>
      <point x="309" y="847"/>
      <point x="150" y="847"/>
    </contour>
    <contour>
      <point x="520" y="847" type="curve"/>
      <point x="520" y="896"/>
      <point x="485" y="920"/>
      <point x="439" y="920" type="curve"/>
      <point x="392" y="920"/>
      <point x="361" y="894"/>
      <point x="361" y="847" type="curve"/>
      <point x="520" y="847"/>
      <point x="361" y="847"/>
      <point x="520" y="847" type="curve"/>
      <point x="520" y="797"/>
      <point x="486" y="775"/>
      <point x="439" y="775" type="curve"/>
      <point x="391" y="775"/>
      <point x="361" y="799"/>
      <point x="361" y="847" type="curve"/>
      <point x="520" y="847"/>
      <point x="361" y="847"/>
    </contour>
  </outline>
</glyph>
<glyph name="Igrave" format="1">
  <advance width="371"/>
  <unicode hex="00CC"/>
  <outline>
    <contour>
      <point x="186" y="722" type="curve"/>
      <point x="135" y="722"/>
      <point x="92" y="722"/>
      <point x="41" y="722" type="curve"/>
      <point x="41" y="610"/>
      <point x="41" y="722"/>
      <point x="41" y="610" type="curve"/>
      <point x="194" y="610"/>
      <point x="33" y="610"/>
      <point x="186" y="610" type="curve"/>
      <point x="186" y="722"/>
      <point x="186" y="610"/>
    </contour>
    <contour>
      <point x="186" y="610" type="curve"/>
      <point x="338" y="610"/>
      <point x="178" y="610"/>
      <point x="330" y="610" type="curve"/>
      <point x="330" y="722"/>
      <point x="330" y="610"/>
      <point x="330" y="722" type="curve"/>
      <point x="279" y="722"/>
      <point x="236" y="722"/>
      <point x="186" y="722" type="curve"/>
      <point x="186" y="610"/>
      <point x="186" y="722"/>
    </contour>
    <contour>
      <point x="186" y="0" type="curve"/>
      <point x="236" y="0"/>
      <point x="279" y="0"/>
      <point x="330" y="0" type="curve"/>
      <point x="330" y="112"/>
      <point x="330" y="0"/>
      <point x="330" y="112" type="curve"/>
      <point x="178" y="112"/>
      <point x="338" y="112"/>
      <point x="186" y="112" type="curve"/>
      <point x="186" y="0"/>
      <point x="186" y="112"/>
    </contour>
    <contour>
      <point x="186" y="112" type="curve"/>
      <point x="33" y="112"/>
      <point x="194" y="112"/>
      <point x="41" y="112" type="curve"/>
      <point x="41" y="0"/>
      <point x="41" y="112"/>
      <point x="41" y="0" type="curve"/>
      <point x="92" y="0"/>
      <point x="135" y="0"/>
      <point x="186" y="0" type="curve"/>
      <point x="186" y="112"/>
      <point x="186" y="0"/>
    </contour>
    <contour>
      <point x="258" y="0" type="curve"/>
      <point x="258" y="241"/>
      <point x="258" y="481"/>
      <point x="258" y="722" type="curve"/>
      <point x="111" y="722"/>
      <point x="258" y="722"/>
      <point x="111" y="722" type="curve"/>
      <point x="111" y="481"/>
      <point x="111" y="241"/>
      <point x="111" y="0" type="curve"/>
      <point x="258" y="0"/>
      <point x="111" y="0"/>
    </contour>
    <contour>
      <point x="261" y="780" type="line"/>
      <point x="160" y="946" type="line"/>
      <point x="-24" y="946" type="line"/>
      <point x="119" y="780" type="line"/>
    </contour>
  </outline>
</glyph>
<glyph name="Idieresis" format="1">
  <advance width="375"/>
  <unicode hex="00CF"/>
  <outline>
    <contour>
      <point x="189" y="722" type="curve"/>
      <point x="138" y="722"/>
      <point x="95" y="722"/>
      <point x="44" y="722" type="curve"/>
      <point x="44" y="610"/>
      <point x="44" y="722"/>
      <point x="44" y="610" type="curve"/>
      <point x="197" y="610"/>
      <point x="36" y="610"/>
      <point x="189" y="610" type="curve"/>
      <point x="189" y="722"/>
      <point x="189" y="610"/>
    </contour>
    <contour>
      <point x="189" y="610" type="curve"/>
      <point x="341" y="610"/>
      <point x="181" y="610"/>
      <point x="333" y="610" type="curve"/>
      <point x="333" y="722"/>
      <point x="333" y="610"/>
      <point x="333" y="722" type="curve"/>
      <point x="282" y="722"/>
      <point x="239" y="722"/>
      <point x="189" y="722" type="curve"/>
      <point x="189" y="610"/>
      <point x="189" y="722"/>
    </contour>
    <contour>
      <point x="189" y="0" type="curve"/>
      <point x="239" y="0"/>
      <point x="282" y="0"/>
      <point x="333" y="0" type="curve"/>
      <point x="333" y="112"/>
      <point x="333" y="0"/>
      <point x="333" y="112" type="curve"/>
      <point x="181" y="112"/>
      <point x="341" y="112"/>
      <point x="189" y="112" type="curve"/>
      <point x="189" y="0"/>
      <point x="189" y="112"/>
    </contour>
    <contour>
      <point x="189" y="112" type="curve"/>
      <point x="36" y="112"/>
      <point x="197" y="112"/>
      <point x="44" y="112" type="curve"/>
      <point x="44" y="0"/>
      <point x="44" y="112"/>
      <point x="44" y="0" type="curve"/>
      <point x="95" y="0"/>
      <point x="138" y="0"/>
      <point x="189" y="0" type="curve"/>
      <point x="189" y="112"/>
      <point x="189" y="0"/>
    </contour>
    <contour>
      <point x="262" y="0" type="curve"/>
      <point x="262" y="241"/>
      <point x="262" y="481"/>
      <point x="262" y="722" type="curve"/>
      <point x="114" y="722"/>
      <point x="262" y="722"/>
      <point x="114" y="722" type="curve"/>
      <point x="114" y="481"/>
      <point x="114" y="241"/>
      <point x="114" y="0" type="curve"/>
      <point x="262" y="0"/>
      <point x="114" y="0"/>
    </contour>
    <contour>
      <point x="164" y="847" type="curve"/>
      <point x="164" y="896"/>
      <point x="130" y="920"/>
      <point x="84" y="920" type="curve"/>
      <point x="37" y="920"/>
      <point x="5" y="894"/>
      <point x="5" y="847" type="curve"/>
      <point x="164" y="847"/>
      <point x="5" y="847"/>
      <point x="164" y="847" type="curve"/>
      <point x="164" y="797"/>
      <point x="130" y="775"/>
      <point x="83" y="775" type="curve"/>
      <point x="36" y="775"/>
      <point x="5" y="799"/>
      <point x="5" y="847" type="curve"/>
      <point x="164" y="847"/>
      <point x="5" y="847"/>
    </contour>
    <contour>
      <point x="375" y="847" type="curve"/>
      <point x="375" y="896"/>
      <point x="341" y="920"/>
      <point x="294" y="920" type="curve"/>
      <point x="247" y="920"/>
      <point x="216" y="894"/>
      <point x="216" y="847" type="curve"/>
      <point x="375" y="847"/>
      <point x="216" y="847"/>
      <point x="375" y="847" type="curve"/>
      <point x="375" y="797"/>
      <point x="341" y="775"/>
      <point x="294" y="775" type="curve"/>
      <point x="246" y="775"/>
      <point x="216" y="799"/>
      <point x="216" y="847" type="curve"/>
      <point x="375" y="847"/>
      <point x="216" y="847"/>
    </contour>
  </outline>
</glyph>
<glyph name="Otilde" format="1">
  <advance width="760"/>
  <unicode hex="00D5"/>
  <outline>
    <contour>
      <point x="198" y="360" type="curve"/>
      <point x="198" y="501"/>
      <point x="243" y="610"/>
      <point x="376" y="610" type="curve"/>
      <point x="506" y="610"/>
      <point x="562" y="505"/>
      <point x="562" y="363" type="curve"/>
      <point x="562" y="221"/>
      <point x="515" y="113"/>
      <point x="383" y="113" type="curve"/>
      <point x="251" y="113"/>
      <point x="198" y="218"/>
      <point x="198" y="360" type="curve"/>
      <point x="50" y="360"/>
      <point x="198" y="360"/>
      <point x="50" y="360" type="curve"/>
      <point x="50" y="142"/>
      <point x="167" y="-5"/>
      <point x="377" y="-5" type="curve"/>
      <point x="590" y="-5"/>
      <point x="710" y="143"/>
      <point x="710" y="363" type="curve"/>
      <point x="710" y="579"/>
      <point x="594" y="727"/>
      <point x="384" y="727" type="curve"/>
      <point x="171" y="727"/>
      <point x="50" y="579"/>
      <point x="50" y="360" type="curve"/>
      <point x="198" y="360"/>
      <point x="50" y="360"/>
    </contour>
    <contour>
      <point x="499" y="969" type="curve"/>
      <point x="484" y="933"/>
      <point x="469" y="919"/>
      <point x="450" y="919" type="curve"/>
      <point x="422" y="919"/>
      <point x="408" y="926"/>
      <point x="387" y="943" type="curve" smooth="yes"/>
      <point x="356" y="966"/>
      <point x="336" y="976"/>
      <point x="300" y="976" type="curve"/>
      <point x="225" y="976"/>
      <point x="184" y="913"/>
      <point x="158" y="841" type="curve"/>
      <point x="267" y="782"/>
      <point x="159" y="842"/>
      <point x="267" y="782" type="curve"/>
      <point x="287" y="823"/>
      <point x="304" y="835"/>
      <point x="325" y="835" type="curve"/>
      <point x="349" y="835"/>
      <point x="361" y="827"/>
      <point x="379" y="813" type="curve" smooth="yes"/>
      <point x="415" y="785"/>
      <point x="435" y="775"/>
      <point x="477" y="775" type="curve"/>
      <point x="553" y="775"/>
      <point x="587" y="836"/>
      <point x="615" y="911" type="curve"/>
      <point x="500" y="968"/>
      <point x="615" y="910"/>
    </contour>
  </outline>
</glyph>
<glyph name="multiply" format="1">
  <advance width="626"/>
  <unicode hex="00D7"/>
  <outline>
    <contour>
      <point x="134" y="41" type="line"/>
      <point x="576" y="498" type="line"/>
      <point x="492" y="582" type="line"/>
      <point x="50" y="125" type="line"/>
    </contour>
    <contour>
      <point x="576" y="123" type="line"/>
      <point x="134" y="580" type="line"/>
      <point x="50" y="496" type="line"/>
      <point x="492" y="39" type="line"/>
    </contour>
  </outline>
</glyph>
<glyph name="Udieresis" format="1">
  <advance width="817"/>
  <unicode hex="00DC"/>
  <outline>
    <contour>
      <point x="633" y="610" type="curve"/>
      <point x="776" y="610"/>
      <point x="633" y="610"/>
      <point x="776" y="610" type="curve"/>
      <point x="776" y="722"/>
      <point x="776" y="610"/>
      <point x="776" y="722" type="curve"/>
      <point x="729" y="722"/>
      <point x="681" y="722"/>
      <point x="633" y="722" type="curve"/>
      <point x="633" y="610"/>
      <point x="633" y="722"/>
    </contour>
    <contour>
      <point x="633" y="722" type="curve"/>
      <point x="586" y="722"/>
      <point x="538" y="722"/>
      <point x="492" y="722" type="curve"/>
      <point x="492" y="610"/>
      <point x="492" y="722"/>
      <point x="492" y="610" type="curve"/>
      <point x="633" y="610"/>
      <point x="492" y="610"/>
      <point x="633" y="610" type="curve"/>
      <point x="633" y="722"/>
      <point x="633" y="610"/>
    </contour>
    <contour>
      <point x="186" y="722" type="curve"/>
      <point x="138" y="722"/>
      <point x="91" y="722"/>
      <point x="44" y="722" type="curve"/>
      <point x="44" y="610"/>
      <point x="44" y="722"/>
      <point x="44" y="610" type="curve"/>
      <point x="186" y="610"/>
      <point x="44" y="610"/>
      <point x="186" y="610" type="curve"/>
      <point x="186" y="722"/>
      <point x="186" y="610"/>
    </contour>
    <contour>
      <point x="186" y="610" type="curve"/>
      <point x="328" y="610"/>
      <point x="186" y="610"/>
      <point x="328" y="610" type="curve"/>
      <point x="328" y="722"/>
      <point x="328" y="610"/>
      <point x="328" y="722" type="curve"/>
      <point x="281" y="722"/>
      <point x="233" y="722"/>
      <point x="186" y="722" type="curve"/>
      <point x="186" y="610"/>
      <point x="186" y="722"/>
    </contour>
    <contour>
      <point x="117" y="674" type="curve"/>
      <point x="117" y="540"/>
      <point x="116" y="409"/>
      <point x="117" y="276" type="curve"/>
      <point x="117" y="87"/>
      <point x="214" y="-5"/>
      <point x="405" y="-5" type="curve"/>
      <point x="601" y="-5"/>
      <point x="701" y="92"/>
      <point x="701" y="288" type="curve"/>
      <point x="701" y="418"/>
      <point x="701" y="545"/>
      <point x="701" y="674" type="curve"/>
      <point x="566" y="674"/>
      <point x="701" y="674"/>
      <point x="566" y="674" type="curve"/>
      <point x="566" y="537"/>
      <point x="566" y="410"/>
      <point x="566" y="273" type="curve"/>
      <point x="566" y="174"/>
      <point x="515" y="119"/>
      <point x="416" y="119" type="curve"/>
      <point x="301" y="119"/>
      <point x="251" y="180"/>
      <point x="251" y="297" type="curve"/>
      <point x="251" y="424"/>
      <point x="251" y="548"/>
      <point x="251" y="674" type="curve"/>
      <point x="117" y="674"/>
      <point x="251" y="674"/>
    </contour>
    <contour>
      <point x="386" y="847" type="curve"/>
      <point x="386" y="896"/>
      <point x="352" y="920"/>
      <point x="306" y="920" type="curve"/>
      <point x="259" y="920"/>
      <point x="227" y="894"/>
      <point x="227" y="847" type="curve"/>
      <point x="386" y="847"/>
      <point x="227" y="847"/>
      <point x="386" y="847" type="curve"/>
      <point x="386" y="797"/>
      <point x="352" y="775"/>
      <point x="305" y="775" type="curve"/>
      <point x="258" y="775"/>
      <point x="227" y="799"/>
      <point x="227" y="847" type="curve"/>
      <point x="386" y="847"/>
      <point x="227" y="847"/>
    </contour>
    <contour>
      <point x="597" y="847" type="curve"/>
      <point x="597" y="896"/>
      <point x="563" y="920"/>
      <point x="516" y="920" type="curve"/>
      <point x="469" y="920"/>
      <point x="438" y="894"/>
      <point x="438" y="847" type="curve"/>
      <point x="597" y="847"/>
      <point x="438" y="847"/>
      <point x="597" y="847" type="curve"/>
      <point x="597" y="797"/>
      <point x="563" y="775"/>
      <point x="516" y="775" type="curve"/>
      <point x="468" y="775"/>
      <point x="438" y="799"/>
      <point x="438" y="847" type="curve"/>
      <point x="597" y="847"/>
      <point x="438" y="847"/>
    </contour>
  </outline>
</glyph>
<glyph name="Thorn" format="1">
  <advance width="630"/>
  <unicode hex="00DE"/>
  <outline>
    <contour>
      <point x="207" y="722" type="curve"/>
      <point x="162" y="722"/>
      <point x="114" y="722"/>
      <point x="66" y="722" type="curve"/>
      <point x="66" y="610"/>
      <point x="66" y="722"/>
      <point x="66" y="610" type="curve"/>
      <point x="207" y="610"/>
      <point x="66" y="610"/>
      <point x="207" y="610" type="curve"/>
      <point x="207" y="722"/>
      <point x="207" y="610"/>
    </contour>
    <contour>
      <point x="207" y="112" type="curve"/>
      <point x="66" y="112"/>
      <point x="207" y="112"/>
      <point x="66" y="112" type="curve"/>
      <point x="66" y="0"/>
      <point x="66" y="112"/>
      <point x="66" y="0" type="curve"/>
      <point x="114" y="0"/>
      <point x="162" y="0"/>
      <point x="207" y="0" type="curve"/>
      <point x="207" y="112"/>
      <point x="207" y="0"/>
    </contour>
    <contour>
      <point x="207" y="0" type="curve"/>
      <point x="254" y="0"/>
      <point x="207" y="0"/>
      <point x="345" y="0" type="curve"/>
      <point x="345" y="112"/>
      <point x="345" y="0"/>
      <point x="345" y="112" type="curve"/>
      <point x="207" y="112"/>
      <point x="345" y="112"/>
      <point x="207" y="112" type="curve"/>
      <point x="207" y="0"/>
      <point x="207" y="112"/>
    </contour>
    <contour>
      <point x="186" y="208" type="curve"/>
      <point x="244" y="179"/>
      <point x="301" y="162"/>
      <point x="369" y="162" type="curve"/>
      <point x="505" y="164"/>
      <point x="600" y="239"/>
      <point x="600" y="378" type="curve"/>
      <point x="600" y="508"/>
      <point x="490" y="583"/>
      <point x="334" y="583" type="curve"/>
      <point x="292" y="583"/>
      <point x="251" y="583"/>
      <point x="211" y="583" type="curve"/>
      <point x="211" y="471"/>
      <point x="211" y="583"/>
      <point x="211" y="471" type="curve"/>
      <point x="245" y="471"/>
      <point x="279" y="471"/>
      <point x="314" y="471" type="curve"/>
      <point x="398" y="471"/>
      <point x="453" y="434"/>
      <point x="453" y="373" type="curve"/>
      <point x="453" y="312"/>
      <point x="418" y="270"/>
      <point x="354" y="270" type="curve"/>
      <point x="307" y="270"/>
      <point x="274" y="282"/>
      <point x="233" y="303" type="curve"/>
      <point x="187" y="210"/>
      <point x="233" y="303"/>
    </contour>
    <contour>
      <point x="281" y="0" type="curve"/>
      <point x="281" y="241"/>
      <point x="281" y="481"/>
      <point x="281" y="722" type="curve"/>
      <point x="133" y="722"/>
      <point x="281" y="722"/>
      <point x="133" y="722" type="curve"/>
      <point x="133" y="481"/>
      <point x="133" y="241"/>
      <point x="133" y="0" type="curve"/>
      <point x="281" y="0"/>
      <point x="133" y="0"/>
    </contour>
    <contour>
      <point x="207" y="610" type="curve"/>
      <point x="254" y="610"/>
      <point x="207" y="610"/>
      <point x="345" y="610" type="curve"/>
      <point x="345" y="722"/>
      <point x="345" y="610"/>
      <point x="345" y="722" type="curve"/>
      <point x="207" y="722"/>
      <point x="345" y="722"/>
      <point x="207" y="722" type="curve"/>
      <point x="207" y="610"/>
      <point x="207" y="722"/>
    </contour>
  </outline>
</glyph>
<glyph name="aacute" format="1">
  <advance width="592"/>
  <unicode hex="00E1"/>
  <outline>
    <contour>
      <point x="72" y="461" type="curve"/>
      <point x="72" y="347"/>
      <point x="72" y="459"/>
      <point x="72" y="345" type="curve"/>
      <point x="187" y="345"/>
      <point x="72" y="345"/>
      <point x="187" y="345" type="curve"/>
      <point x="187" y="459"/>
      <point x="187" y="347"/>
      <point x="187" y="461" type="curve"/>
      <point x="72" y="461"/>
      <point x="187" y="461"/>
    </contour>
    <contour>
      <point x="502" y="0" type="curve"/>
      <point x="502" y="123"/>
      <point x="502" y="245"/>
      <point x="502" y="368" type="curve"/>
      <point x="502" y="494"/>
      <point x="409" y="538"/>
      <point x="282" y="538" type="curve"/>
      <point x="190" y="538"/>
      <point x="122" y="506"/>
      <point x="72" y="461" type="curve"/>
      <point x="127" y="367"/>
      <point x="74" y="460"/>
      <point x="129" y="365" type="curve"/>
      <point x="163" y="392"/>
      <point x="201" y="422"/>
      <point x="262" y="422" type="curve"/>
      <point x="317" y="422"/>
      <point x="355" y="402"/>
      <point x="355" y="347" type="curve"/>
      <point x="355" y="232"/>
      <point x="355" y="115"/>
      <point x="355" y="0" type="curve"/>
      <point x="502" y="0"/>
      <point x="355" y="0"/>
    </contour>
    <contour>
      <point x="430" y="0" type="curve"/>
      <point x="474" y="0"/>
      <point x="519" y="0"/>
      <point x="562" y="0" type="curve"/>
      <point x="562" y="112"/>
      <point x="562" y="0"/>
      <point x="562" y="112" type="curve"/>
      <point x="430" y="112"/>
      <point x="562" y="112"/>
      <point x="430" y="112" type="curve"/>
      <point x="430" y="0"/>
      <point x="430" y="112"/>
    </contour>
    <contour>
      <point x="425" y="348" type="curve"/>
      <point x="355" y="339"/>
      <point x="313" y="336"/>
      <point x="245" y="327" type="curve"/>
      <point x="127" y="311"/>
      <point x="43" y="275"/>
      <point x="43" y="164" type="curve"/>
      <point x="43" y="52"/>
      <point x="112" y="-5"/>
      <point x="226" y="-5" type="curve"/>
      <point x="341" y="-5"/>
      <point x="397" y="75"/>
      <point x="463" y="153" type="curve"/>
      <point x="391" y="214"/>
      <point x="463" y="153"/>
      <point x="391" y="214" type="curve"/>
      <point x="362" y="155"/>
      <point x="323" y="107"/>
      <point x="257" y="107" type="curve"/>
      <point x="210" y="107"/>
      <point x="187" y="127"/>
      <point x="187" y="168" type="curve"/>
      <point x="187" y="203"/>
      <point x="215" y="222"/>
      <point x="246" y="226" type="curve"/>
      <point x="321" y="236"/>
      <point x="356" y="242"/>
      <point x="431" y="252" type="curve"/>
      <point x="425" y="348"/>
      <point x="431" y="252"/>
    </contour>
    <contour>
      <point x="349" y="609" type="line"/>
      <point x="492" y="775" type="line"/>
      <point x="308" y="775" type="line"/>
      <point x="208" y="609" type="line"/>
    </contour>
  </outline>
</glyph>
<glyph name="ae" format="1">
  <advance width="877"/>
  <unicode hex="00E6"/>
  <outline>
    <contour>
      <point x="72" y="461" type="curve"/>
      <point x="72" y="347"/>
      <point x="72" y="459"/>
      <point x="72" y="345" type="curve"/>
      <point x="186" y="345"/>
      <point x="72" y="345"/>
      <point x="186" y="345" type="curve"/>
      <point x="186" y="459"/>
      <point x="186" y="347"/>
      <point x="186" y="461" type="curve"/>
      <point x="72" y="461"/>
      <point x="186" y="461"/>
    </contour>
    <contour>
      <point x="502" y="277" type="curve"/>
      <point x="502" y="331"/>
      <point x="502" y="314"/>
      <point x="502" y="368" type="curve"/>
      <point x="502" y="494"/>
      <point x="409" y="534"/>
      <point x="282" y="534" type="curve"/>
      <point x="190" y="534"/>
      <point x="122" y="506"/>
      <point x="72" y="461" type="curve"/>
      <point x="126" y="367"/>
      <point x="74" y="460"/>
      <point x="129" y="365" type="curve"/>
      <point x="162" y="392"/>
      <point x="201" y="422"/>
      <point x="262" y="422" type="curve"/>
      <point x="317" y="422"/>
      <point x="355" y="397"/>
      <point x="355" y="336" type="curve"/>
      <point x="355" y="293"/>
      <point x="355" y="320"/>
      <point x="355" y="277" type="curve"/>
      <point x="502" y="277"/>
      <point x="355" y="277"/>
    </contour>
    <contour>
      <point x="427" y="330" type="curve"/>
      <point x="355" y="330"/>
      <point x="312" y="331"/>
      <point x="240" y="321" type="curve"/>
      <point x="121" y="305"/>
      <point x="41" y="271"/>
      <point x="41" y="165" type="curve"/>
      <point x="41" y="53"/>
      <point x="110" y="-5"/>
      <point x="226" y="-5" type="curve"/>
      <point x="341" y="-5"/>
      <point x="396" y="53"/>
      <point x="466" y="143" type="curve"/>
      <point x="394" y="204"/>
      <point x="463" y="148"/>
      <point x="391" y="209" type="curve"/>
      <point x="345" y="154"/>
      <point x="320" y="106"/>
      <point x="251" y="106" type="curve"/>
      <point x="207" y="106"/>
      <point x="184" y="124"/>
      <point x="184" y="164" type="curve"/>
      <point x="184" y="198"/>
      <point x="213" y="214"/>
      <point x="246" y="218" type="curve"/>
      <point x="315" y="227"/>
      <point x="357" y="226"/>
      <point x="430" y="226" type="curve"/>
      <point x="424" y="321"/>
      <point x="433" y="235"/>
    </contour>
    <contour>
      <point x="428" y="225" type="curve"/>
      <point x="545" y="225"/>
      <point x="662" y="225"/>
      <point x="778" y="225" type="curve"/>
      <point x="841" y="225"/>
      <point x="778" y="225"/>
      <point x="841" y="225" type="curve"/>
      <point x="841" y="270"/>
      <point x="841" y="225"/>
      <point x="841" y="270" type="curve"/>
      <point x="841" y="276"/>
      <point x="841" y="281"/>
      <point x="841" y="287" type="curve"/>
      <point x="841" y="447"/>
      <point x="757" y="538"/>
      <point x="606" y="538" type="curve"/>
      <point x="445" y="538"/>
      <point x="353" y="445"/>
      <point x="353" y="278" type="curve"/>
      <point x="353" y="98"/>
      <point x="452" y="-5"/>
      <point x="626" y="-5" type="curve"/>
      <point x="705" y="-5"/>
      <point x="755" y="20"/>
      <point x="815" y="70" type="curve"/>
      <point x="733" y="153"/>
      <point x="815" y="70"/>
      <point x="733" y="153" type="curve"/>
      <point x="700" y="126"/>
      <point x="667" y="111"/>
      <point x="624" y="111" type="curve"/>
      <point x="531" y="111"/>
      <point x="497" y="178"/>
      <point x="497" y="278" type="curve"/>
      <point x="497" y="363"/>
      <point x="521" y="422"/>
      <point x="600" y="422" type="curve"/>
      <point x="669" y="422"/>
      <point x="700" y="378"/>
      <point x="700" y="303" type="curve"/>
      <point x="700" y="293"/>
      <point x="700" y="284"/>
      <point x="700" y="274" type="curve"/>
      <point x="713" y="285"/>
      <point x="725" y="297"/>
      <point x="738" y="308" type="curve"/>
      <point x="750" y="319"/>
      <point x="766" y="319"/>
      <point x="778" y="330" type="curve"/>
      <point x="662" y="330"/>
      <point x="545" y="330"/>
      <point x="428" y="330" type="curve"/>
      <point x="428" y="218"/>
      <point x="428" y="337"/>
    </contour>
  </outline>
</glyph>
<glyph name="ccedilla" format="1">
  <advance width="545"/>
  <unicode hex="00E7"/>
  <outline>
    <contour>
      <point x="381" y="469" type="curve"/>
      <point x="381" y="337"/>
      <point x="381" y="469"/>
      <point x="381" y="337" type="curve"/>
      <point x="496" y="337"/>
      <point x="381" y="337"/>
      <point x="496" y="337" type="curve"/>
      <point x="496" y="469"/>
      <point x="496" y="337"/>
      <point x="496" y="469" type="curve"/>
      <point x="381" y="469"/>
      <point x="496" y="469"/>
    </contour>
    <contour>
      <point x="496" y="469" type="curve"/>
      <point x="446" y="509"/>
      <point x="380" y="538"/>
      <point x="312" y="538" type="curve"/>
      <point x="141" y="538"/>
      <point x="39" y="443"/>
      <point x="39" y="267" type="curve"/>
      <point x="39" y="92"/>
      <point x="138" y="-5"/>
      <point x="309" y="-5" type="curve"/>
      <point x="386" y="-5"/>
      <point x="460" y="23"/>
      <point x="503" y="88" type="curve"/>
      <point x="411" y="163"/>
      <point x="503" y="88"/>
      <point x="411" y="163" type="curve"/>
      <point x="385" y="136"/>
      <point x="354" y="112"/>
      <point x="316" y="112" type="curve"/>
      <point x="227" y="112"/>
      <point x="187" y="171"/>
      <point x="187" y="267" type="curve"/>
      <point x="187" y="362"/>
      <point x="223" y="421"/>
      <point x="310" y="421" type="curve"/>
      <point x="346" y="421"/>
      <point x="381" y="410"/>
      <point x="409" y="391" type="curve"/>
      <point x="496" y="469"/>
      <point x="409" y="391"/>
    </contour>
    <contour>
      <point x="234" y="86" type="curve"/>
      <point x="222" y="65"/>
      <point x="170" y="-34"/>
      <point x="158" y="-56" type="curve"/>
      <point x="259" y="-145"/>
      <point x="158" y="-56"/>
      <point x="259" y="-145" type="curve"/>
      <point x="274" y="-119"/>
      <point x="333" y="-18"/>
      <point x="348" y="8" type="curve"/>
      <point x="234" y="86"/>
      <point x="348" y="8"/>
    </contour>
    <contour>
      <point x="259" y="-145" type="curve"/>
      <point x="264" y="-142"/>
      <point x="268" y="-138"/>
      <point x="274" y="-138" type="curve"/>
      <point x="280" y="-138"/>
      <point x="287" y="-141"/>
      <point x="287" y="-149" type="curve"/>
      <point x="287" y="-162"/>
      <point x="273" y="-166"/>
      <point x="259" y="-166" type="curve"/>
      <point x="239" y="-166"/>
      <point x="221" y="-160"/>
      <point x="199" y="-149" type="curve"/>
      <point x="148" y="-232"/>
      <point x="199" y="-149"/>
      <point x="148" y="-232" type="curve"/>
      <point x="182" y="-251"/>
      <point x="212" y="-260"/>
      <point x="252" y="-260" type="curve"/>
      <point x="331" y="-260"/>
      <point x="389" y="-225"/>
      <point x="389" y="-147" type="curve"/>
      <point x="389" y="-74"/>
      <point x="339" y="-32"/>
      <point x="265" y="-32" type="curve"/>
      <point x="225" y="-32"/>
      <point x="195" y="-38"/>
      <point x="158" y="-56" type="curve"/>
      <point x="259" y="-145"/>
      <point x="158" y="-56"/>
    </contour>
  </outline>
</glyph>
<glyph name="eth" format="1">
  <advance width="587"/>
  <unicode hex="00F0"/>
  <outline>
    <contour>
      <point x="117" y="546" type="curve"/>
      <point x="184" y="612"/>
      <point x="263" y="691"/>
      <point x="328" y="758" type="curve"/>
      <point x="403" y="684"/>
      <point x="323" y="763"/>
      <point x="397" y="689" type="curve"/>
      <point x="331" y="623"/>
      <point x="252" y="544"/>
      <point x="186" y="478" type="curve"/>
      <point x="112" y="552"/>
      <point x="192" y="472"/>
    </contour>
    <contour>
      <point x="433" y="247" type="curve"/>
      <point x="402" y="317"/>
      <point x="360" y="340"/>
      <point x="289" y="340" type="curve"/>
      <point x="219" y="340"/>
      <point x="178" y="297"/>
      <point x="178" y="227" type="curve"/>
      <point x="178" y="165"/>
      <point x="216" y="128"/>
      <point x="277" y="128" type="curve"/>
      <point x="361" y="128"/>
      <point x="404" y="180"/>
      <point x="404" y="267" type="curve"/>
      <point x="404" y="466"/>
      <point x="277" y="566"/>
      <point x="77" y="628" type="curve"/>
      <point x="127" y="741"/>
      <point x="77" y="628"/>
      <point x="126" y="741" type="curve"/>
      <point x="364" y="674"/>
      <point x="545" y="527"/>
      <point x="545" y="261" type="curve"/>
      <point x="545" y="95"/>
      <point x="447" y="-6"/>
      <point x="282" y="-6" type="curve"/>
      <point x="130" y="-6"/>
      <point x="35" y="82"/>
      <point x="35" y="233" type="curve"/>
      <point x="35" y="377"/>
      <point x="129" y="458"/>
      <point x="275" y="458" type="curve"/>
      <point x="399" y="458"/>
      <point x="467" y="366"/>
      <point x="504" y="278" type="curve"/>
      <point x="433" y="247"/>
      <point x="504" y="278"/>
    </contour>
  </outline>
</glyph>
<glyph name="otilde" format="1">
  <advance width="607"/>
  <unicode hex="00F5"/>
  <outline>
    <contour>
      <point x="180" y="266" type="curve"/>
      <point x="180" y="351"/>
      <point x="212" y="422"/>
      <point x="297" y="422" type="curve"/>
      <point x="384" y="422"/>
      <point x="420" y="353"/>
      <point x="420" y="265" type="curve"/>
      <point x="420" y="175"/>
      <point x="387" y="111"/>
      <point x="307" y="111" type="curve"/>
      <point x="215" y="111"/>
      <point x="180" y="174"/>
      <point x="180" y="266" type="curve"/>
      <point x="137" y="266"/>
      <point x="82" y="266"/>
      <point x="39" y="266" type="curve"/>
      <point x="39" y="98"/>
      <point x="136" y="-5"/>
      <point x="300" y="-5" type="curve"/>
      <point x="468" y="-5"/>
      <point x="568" y="95"/>
      <point x="568" y="265" type="curve"/>
      <point x="568" y="433"/>
      <point x="471" y="538"/>
      <point x="304" y="538" type="curve"/>
      <point x="136" y="538"/>
      <point x="39" y="433"/>
      <point x="39" y="266" type="curve"/>
      <point x="82" y="266"/>
      <point x="137" y="266"/>
    </contour>
    <contour>
      <point x="420" y="799" type="curve"/>
      <point x="403" y="763"/>
      <point x="389" y="749"/>
      <point x="371" y="749" type="curve"/>
      <point x="343" y="749"/>
      <point x="328" y="756"/>
      <point x="307" y="773" type="curve" smooth="yes"/>
      <point x="276" y="796"/>
      <point x="257" y="806"/>
      <point x="220" y="806" type="curve"/>
      <point x="145" y="806"/>
      <point x="104" y="743"/>
      <point x="78" y="671" type="curve"/>
      <point x="187" y="612"/>
      <point x="79" y="672"/>
      <point x="187" y="612" type="curve"/>
      <point x="207" y="653"/>
      <point x="224" y="665"/>
      <point x="245" y="665" type="curve"/>
      <point x="269" y="665"/>
      <point x="282" y="657"/>
      <point x="299" y="643" type="curve" smooth="yes"/>
      <point x="335" y="615"/>
      <point x="355" y="605"/>
      <point x="397" y="605" type="curve"/>
      <point x="473" y="605"/>
      <point x="507" y="666"/>
      <point x="536" y="741" type="curve"/>
      <point x="420" y="798"/>
      <point x="536" y="740"/>
    </contour>
  </outline>
</glyph>
<glyph name="udieresis" format="1">
  <advance width="670"/>
  <unicode hex="00FC"/>
  <outline>
    <contour>
      <point x="493" y="533" type="curve"/>
      <point x="444" y="533"/>
      <point x="398" y="533"/>
      <point x="348" y="533" type="curve"/>
      <point x="348" y="441"/>
      <point x="348" y="513"/>
      <point x="348" y="421" type="curve"/>
      <point x="466" y="421"/>
      <point x="376" y="421"/>
      <point x="493" y="421" type="curve"/>
      <point x="493" y="513"/>
      <point x="493" y="441"/>
    </contour>
    <contour>
      <point x="166" y="533" type="curve"/>
      <point x="117" y="533"/>
      <point x="70" y="533"/>
      <point x="21" y="533" type="curve"/>
      <point x="21" y="441"/>
      <point x="21" y="513"/>
      <point x="21" y="421" type="curve"/>
      <point x="139" y="421"/>
      <point x="49" y="421"/>
      <point x="166" y="421" type="curve"/>
      <point x="166" y="513"/>
      <point x="166" y="441"/>
    </contour>
    <contour>
      <point x="493" y="0" type="curve"/>
      <point x="539" y="0"/>
      <point x="582" y="0"/>
      <point x="628" y="0" type="curve"/>
      <point x="628" y="92"/>
      <point x="628" y="20"/>
      <point x="628" y="112" type="curve"/>
      <point x="519" y="112"/>
      <point x="603" y="112"/>
      <point x="493" y="112" type="curve"/>
      <point x="493" y="20"/>
      <point x="493" y="92"/>
    </contour>
    <contour>
      <point x="567" y="0" type="curve"/>
      <point x="567" y="182"/>
      <point x="567" y="351"/>
      <point x="567" y="533" type="curve"/>
      <point x="446" y="533"/>
      <point x="540" y="533"/>
      <point x="419" y="533" type="curve"/>
      <point x="419" y="351"/>
      <point x="419" y="182"/>
      <point x="419" y="0" type="curve"/>
      <point x="540" y="0"/>
      <point x="446" y="0"/>
    </contour>
    <contour>
      <point x="453" y="241" type="curve"/>
      <point x="426" y="177"/>
      <point x="389" y="111"/>
      <point x="321" y="111" type="curve"/>
      <point x="261" y="111"/>
      <point x="240" y="156"/>
      <point x="240" y="220" type="curve"/>
      <point x="240" y="327"/>
      <point x="240" y="426"/>
      <point x="240" y="533" type="curve"/>
      <point x="119" y="533"/>
      <point x="213" y="533"/>
      <point x="92" y="533" type="curve"/>
      <point x="92" y="424"/>
      <point x="92" y="323"/>
      <point x="92" y="215" type="curve"/>
      <point x="92" y="80"/>
      <point x="157" y="-5"/>
      <point x="298" y="-5" type="curve"/>
      <point x="403" y="-5"/>
      <point x="468" y="78"/>
      <point x="510" y="189" type="curve"/>
      <point x="464" y="228"/>
      <point x="499" y="203"/>
    </contour>
    <contour>
      <point x="281" y="677" type="curve"/>
      <point x="281" y="726"/>
      <point x="247" y="750"/>
      <point x="201" y="750" type="curve"/>
      <point x="154" y="750"/>
      <point x="123" y="724"/>
      <point x="123" y="677" type="curve"/>
      <point x="281" y="677"/>
      <point x="123" y="677"/>
      <point x="281" y="677" type="curve"/>
      <point x="281" y="627"/>
      <point x="248" y="605"/>
      <point x="201" y="605" type="curve"/>
      <point x="153" y="605"/>
      <point x="123" y="629"/>
      <point x="123" y="677" type="curve"/>
      <point x="281" y="677"/>
      <point x="123" y="677"/>
    </contour>
    <contour>
      <point x="492" y="677" type="curve"/>
      <point x="492" y="726"/>
      <point x="458" y="750"/>
      <point x="412" y="750" type="curve"/>
      <point x="365" y="750"/>
      <point x="333" y="724"/>
      <point x="333" y="677" type="curve"/>
      <point x="492" y="677"/>
      <point x="333" y="677"/>
      <point x="492" y="677" type="curve"/>
      <point x="492" y="627"/>
      <point x="459" y="605"/>
      <point x="411" y="605" type="curve"/>
      <point x="364" y="605"/>
      <point x="333" y="629"/>
      <point x="333" y="677" type="curve"/>
      <point x="492" y="677"/>
      <point x="333" y="677"/>
    </contour>
  </outline>
</glyph>
<glyph name="cacute" format="1">
  <advance width="550"/>
  <unicode hex="0107"/>
  <outline>
    <contour>
      <point x="381" y="469" type="curve"/>
      <point x="381" y="337"/>
      <point x="381" y="469"/>
      <point x="381" y="337" type="curve"/>
      <point x="496" y="337"/>
      <point x="381" y="337"/>
      <point x="496" y="337" type="curve"/>
      <point x="496" y="469"/>
      <point x="496" y="337"/>
      <point x="496" y="469" type="curve"/>
      <point x="381" y="469"/>
      <point x="496" y="469"/>
    </contour>
    <contour>
      <point x="496" y="469" type="curve"/>
      <point x="446" y="509"/>
      <point x="380" y="538"/>
      <point x="312" y="538" type="curve"/>
      <point x="141" y="538"/>
      <point x="39" y="443"/>
      <point x="39" y="267" type="curve"/>
      <point x="39" y="92"/>
      <point x="138" y="-5"/>
      <point x="309" y="-5" type="curve"/>
      <point x="386" y="-5"/>
      <point x="460" y="23"/>
      <point x="503" y="88" type="curve"/>
      <point x="411" y="163"/>
      <point x="503" y="88"/>
      <point x="411" y="163" type="curve"/>
      <point x="385" y="136"/>
      <point x="354" y="112"/>
      <point x="316" y="112" type="curve"/>
      <point x="227" y="112"/>
      <point x="187" y="171"/>
      <point x="187" y="267" type="curve"/>
      <point x="187" y="362"/>
      <point x="223" y="421"/>
      <point x="310" y="421" type="curve"/>
      <point x="346" y="421"/>
      <point x="381" y="410"/>
      <point x="409" y="391" type="curve"/>
      <point x="496" y="469"/>
      <point x="409" y="391"/>
    </contour>
    <contour>
      <point x="363" y="609" type="line"/>
      <point x="506" y="775" type="line"/>
      <point x="322" y="775" type="line"/>
      <point x="222" y="609" type="line"/>
    </contour>
  </outline>
</glyph>
<glyph name="Eogonek" format="1">
  <advance width="637"/>
  <unicode hex="0118"/>
  <outline>
    <contour>
      <point x="595" y="56" type="curve"/>
      <point x="595" y="176"/>
      <point x="595" y="56"/>
      <point x="595" y="176" type="curve"/>
      <point x="480" y="176"/>
      <point x="595" y="176"/>
      <point x="480" y="176" type="curve"/>
      <point x="480" y="56"/>
      <point x="480" y="176"/>
      <point x="480" y="56" type="curve"/>
      <point x="595" y="56"/>
      <point x="480" y="56"/>
    </contour>
    <contour>
      <point x="450" y="666" type="curve"/>
      <point x="450" y="546"/>
      <point x="450" y="666"/>
      <point x="450" y="546" type="curve"/>
      <point x="565" y="546"/>
      <point x="450" y="546"/>
      <point x="565" y="546" type="curve"/>
      <point x="565" y="666"/>
      <point x="565" y="546"/>
      <point x="565" y="666" type="curve"/>
      <point x="450" y="666"/>
      <point x="565" y="666"/>
    </contour>
    <contour>
      <point x="211" y="112" type="curve"/>
      <point x="67" y="112"/>
      <point x="211" y="112"/>
      <point x="67" y="112" type="curve"/>
      <point x="67" y="0"/>
      <point x="67" y="112"/>
      <point x="67" y="0" type="curve"/>
      <point x="115" y="0"/>
      <point x="164" y="0"/>
      <point x="211" y="0" type="curve"/>
      <point x="211" y="112"/>
      <point x="211" y="0"/>
    </contour>
    <contour>
      <point x="211" y="722" type="curve"/>
      <point x="164" y="722"/>
      <point x="115" y="722"/>
      <point x="67" y="722" type="curve"/>
      <point x="67" y="610"/>
      <point x="67" y="722"/>
      <point x="67" y="610" type="curve"/>
      <point x="211" y="610"/>
      <point x="67" y="610"/>
      <point x="211" y="610" type="curve"/>
      <point x="211" y="722"/>
      <point x="211" y="610"/>
    </contour>
    <contour>
      <point x="215" y="316" type="curve"/>
      <point x="312" y="316"/>
      <point x="410" y="316"/>
      <point x="508" y="316" type="curve"/>
      <point x="508" y="429"/>
      <point x="508" y="316"/>
      <point x="508" y="429" type="curve"/>
      <point x="410" y="429"/>
      <point x="312" y="429"/>
      <point x="215" y="429" type="curve"/>
      <point x="215" y="316"/>
      <point x="215" y="429"/>
    </contour>
    <contour>
      <point x="201" y="610" type="curve"/>
      <point x="322" y="610"/>
      <point x="443" y="610"/>
      <point x="565" y="610" type="curve"/>
      <point x="565" y="722"/>
      <point x="565" y="610"/>
      <point x="565" y="722" type="curve"/>
      <point x="443" y="722"/>
      <point x="322" y="722"/>
      <point x="201" y="722" type="curve"/>
      <point x="201" y="610"/>
      <point x="201" y="722"/>
    </contour>
    <contour>
      <point x="285" y="0" type="curve"/>
      <point x="285" y="722" type="line"/>
      <point x="137" y="722"/>
      <point x="285" y="722"/>
      <point x="137" y="722" type="curve"/>
      <point x="137" y="481"/>
      <point x="137" y="241"/>
      <point x="137" y="0" type="curve"/>
      <point x="285" y="0"/>
      <point x="137" y="0"/>
    </contour>
    <contour>
      <point x="201" y="0" type="curve"/>
      <point x="332" y="0"/>
      <point x="463" y="0"/>
      <point x="595" y="0" type="curve"/>
      <point x="595" y="112"/>
      <point x="595" y="0"/>
      <point x="595" y="112" type="curve"/>
      <point x="463" y="112"/>
      <point x="332" y="112"/>
      <point x="201" y="112" type="curve"/>
      <point x="201" y="0"/>
      <point x="201" y="112"/>
    </contour>
    <contour>
      <point x="522" y="84" type="curve"/>
      <point x="452" y="50"/>
      <point x="389" y="26"/>
      <point x="389" y="-49" type="curve"/>
      <point x="389" y="-128"/>
      <point x="441" y="-177"/>
      <point x="522" y="-177" type="curve"/>
      <point x="563" y="-177"/>
      <point x="591" y="-166"/>
      <point x="626" y="-144" type="curve"/>
      <point x="559" y="-55"/>
      <point x="626" y="-144"/>
      <point x="559" y="-55" type="curve"/>
      <point x="549" y="-60"/>
      <point x="541" y="-67"/>
      <point x="531" y="-67" type="curve"/>
      <point x="520" y="-67"/>
      <point x="512" y="-59"/>
      <point x="512" y="-48" type="curve"/>
      <point x="512" y="-19"/>
      <point x="548" y="-10"/>
      <point x="576" y="5" type="curve"/>
      <point x="522" y="84"/>
      <point x="576" y="5"/>
    </contour>
  </outline>
</glyph>
<glyph name="gcommaaccent" format="1">
  <advance width="574"/>
  <unicode hex="0123"/>
  <outline>
    <contour>
      <point x="402" y="429" type="curve"/>
      <point x="543" y="491" type="line"/>
      <point x="485" y="597" type="line"/>
      <point x="324" y="515" type="line"/>
      <point x="402" y="429"/>
      <point x="324" y="515"/>
    </contour>
    <contour>
      <point x="211" y="336" type="curve"/>
      <point x="211" y="389"/>
      <point x="242" y="426"/>
      <point x="294" y="426" type="curve"/>
      <point x="347" y="426"/>
      <point x="374" y="388"/>
      <point x="374" y="334" type="curve"/>
      <point x="374" y="285"/>
      <point x="346" y="251"/>
      <point x="295" y="251" type="curve"/>
      <point x="245" y="251"/>
      <point x="211" y="283"/>
      <point x="211" y="336" type="curve"/>
      <point x="63" y="330"/>
      <point x="211" y="336"/>
      <point x="63" y="330" type="curve"/>
      <point x="63" y="209"/>
      <point x="158" y="139"/>
      <point x="287" y="139" type="curve"/>
      <point x="420" y="139"/>
      <point x="521" y="211"/>
      <point x="521" y="339" type="curve"/>
      <point x="521" y="464"/>
      <point x="425" y="538"/>
      <point x="294" y="538" type="curve"/>
      <point x="159" y="538"/>
      <point x="63" y="460"/>
      <point x="63" y="330" type="curve"/>
      <point x="211" y="336"/>
      <point x="63" y="330"/>
    </contour>
    <contour>
      <point x="170" y="247" type="curve"/>
      <point x="111" y="216"/>
      <point x="66" y="178"/>
      <point x="66" y="113" type="curve"/>
      <point x="66" y="10"/>
      <point x="164" y="-24"/>
      <point x="276" y="-34" type="curve"/>
      <point x="352" y="-40"/>
      <point x="427" y="-49"/>
      <point x="427" y="-118" type="curve"/>
      <point x="427" y="-176"/>
      <point x="364" y="-193"/>
      <point x="295" y="-193" type="curve"/>
      <point x="230" y="-193"/>
      <point x="176" y="-166"/>
      <point x="176" y="-103" type="curve"/>
      <point x="176" y="-51"/>
      <point x="198" y="-13"/>
      <point x="239" y="3" type="curve"/>
      <point x="165" y="70"/>
      <point x="239" y="3"/>
      <point x="165" y="70" type="curve"/>
      <point x="85" y="38"/>
      <point x="29" y="-16"/>
      <point x="29" y="-108" type="curve"/>
      <point x="29" y="-244"/>
      <point x="144" y="-305"/>
      <point x="289" y="-305" type="curve"/>
      <point x="438" y="-305"/>
      <point x="564" y="-248"/>
      <point x="562" y="-107" type="curve"/>
      <point x="562" y="25"/>
      <point x="440" y="62"/>
      <point x="303" y="73" type="curve"/>
      <point x="257" y="76"/>
      <point x="214" y="87"/>
      <point x="214" y="124" type="curve"/>
      <point x="214" y="148"/>
      <point x="224" y="162"/>
      <point x="244" y="175" type="curve"/>
      <point x="170" y="247"/>
      <point x="244" y="175"/>
    </contour>
    <contour>
      <point x="373" y="919" type="line"/>
      <point x="269" y="919"/>
      <point x="199" y="847"/>
      <point x="199" y="740" type="curve"/>
      <point x="199" y="653"/>
      <point x="236" y="602"/>
      <point x="288" y="602" type="curve"/>
      <point x="335" y="602"/>
      <point x="367" y="627"/>
      <point x="367" y="675" type="curve"/>
      <point x="367" y="716"/>
      <point x="340" y="745"/>
      <point x="296" y="745" type="curve"/>
      <point x="297" y="778"/>
      <point x="303" y="828"/>
      <point x="373" y="840" type="curve"/>
    </contour>
  </outline>
</glyph>
<glyph name="Iogonek" format="1">
  <advance width="373"/>
  <unicode hex="012E"/>
  <outline>
    <contour>
      <point x="187" y="722" type="curve"/>
      <point x="136" y="722"/>
      <point x="92" y="722"/>
      <point x="42" y="722" type="curve"/>
      <point x="42" y="610"/>
      <point x="42" y="722"/>
      <point x="42" y="610" type="curve"/>
      <point x="194" y="610"/>
      <point x="34" y="610"/>
      <point x="187" y="610" type="curve"/>
      <point x="187" y="722"/>
      <point x="187" y="610"/>
    </contour>
    <contour>
      <point x="187" y="610" type="curve"/>
      <point x="339" y="610"/>
      <point x="179" y="610"/>
      <point x="331" y="610" type="curve"/>
      <point x="331" y="722"/>
      <point x="331" y="610"/>
      <point x="331" y="722" type="curve"/>
      <point x="280" y="722"/>
      <point x="237" y="722"/>
      <point x="187" y="722" type="curve"/>
      <point x="187" y="610"/>
      <point x="187" y="722"/>
    </contour>
    <contour>
      <point x="187" y="0" type="curve"/>
      <point x="237" y="0"/>
      <point x="280" y="0"/>
      <point x="331" y="0" type="curve"/>
      <point x="331" y="112"/>
      <point x="331" y="0"/>
      <point x="331" y="112" type="curve"/>
      <point x="179" y="112"/>
      <point x="339" y="112"/>
      <point x="187" y="112" type="curve"/>
      <point x="187" y="0"/>
      <point x="187" y="112"/>
    </contour>
    <contour>
      <point x="187" y="112" type="curve"/>
      <point x="34" y="112"/>
      <point x="194" y="112"/>
      <point x="42" y="112" type="curve"/>
      <point x="42" y="0"/>
      <point x="42" y="112"/>
      <point x="42" y="0" type="curve"/>
      <point x="92" y="0"/>
      <point x="136" y="0"/>
      <point x="187" y="0" type="curve"/>
      <point x="187" y="112"/>
      <point x="187" y="0"/>
    </contour>
    <contour>
      <point x="259" y="0" type="curve"/>
      <point x="259" y="241"/>
      <point x="259" y="481"/>
      <point x="259" y="722" type="curve"/>
      <point x="111" y="722"/>
      <point x="259" y="722"/>
      <point x="111" y="722" type="curve"/>
      <point x="111" y="481"/>
      <point x="111" y="241"/>
      <point x="111" y="0" type="curve"/>
      <point x="259" y="0"/>
      <point x="111" y="0"/>
    </contour>
    <contour>
      <point x="217" y="81" type="curve"/>
      <point x="148" y="47"/>
      <point x="84" y="24"/>
      <point x="84" y="-52" type="curve"/>
      <point x="84" y="-131"/>
      <point x="136" y="-180"/>
      <point x="217" y="-180" type="curve"/>
      <point x="259" y="-180"/>
      <point x="286" y="-169"/>
      <point x="321" y="-147" type="curve"/>
      <point x="254" y="-58"/>
      <point x="321" y="-147"/>
      <point x="254" y="-58" type="curve"/>
      <point x="245" y="-63"/>
      <point x="237" y="-70"/>
      <point x="227" y="-70" type="curve"/>
      <point x="215" y="-70"/>
      <point x="207" y="-62"/>
      <point x="207" y="-51" type="curve"/>
      <point x="207" y="-22"/>
      <point x="243" y="-13"/>
      <point x="271" y="2" type="curve"/>
      <point x="217" y="81"/>
      <point x="271" y="2"/>
    </contour>
  </outline>
</glyph>
<glyph name="dotlessi" format="1">
  <advance width="375"/>
  <unicode hex="0131"/>
  <outline>
    <contour>
      <point x="201" y="610" type="move" name="top"/>
    </contour>
    <contour>
      <point x="198" y="112" type="curve"/>
      <point x="54" y="112"/>
      <point x="198" y="112"/>
      <point x="54" y="112" type="curve"/>
      <point x="53" y="0"/>
      <point x="54" y="112"/>
      <point x="53" y="0" type="curve"/>
      <point x="102" y="0"/>
      <point x="150" y="0"/>
      <point x="198" y="0" type="curve"/>
      <point x="198" y="112"/>
      <point x="198" y="0"/>
    </contour>
    <contour>
      <point x="198" y="0" type="curve"/>
      <point x="244" y="0"/>
      <point x="290" y="0"/>
      <point x="336" y="0" type="curve"/>
      <point x="336" y="112"/>
      <point x="336" y="0"/>
      <point x="336" y="112" type="curve"/>
      <point x="198" y="112"/>
      <point x="336" y="112"/>
      <point x="198" y="112" type="curve"/>
      <point x="198" y="0"/>
      <point x="198" y="112"/>
    </contour>
    <contour>
      <point x="198" y="533" type="curve"/>
      <point x="150" y="533"/>
      <point x="102" y="533"/>
      <point x="54" y="533" type="curve"/>
      <point x="53" y="421"/>
      <point x="54" y="533"/>
      <point x="53" y="421" type="curve"/>
      <point x="198" y="421"/>
      <point x="53" y="421"/>
      <point x="198" y="421" type="curve"/>
      <point x="198" y="533"/>
      <point x="198" y="421"/>
    </contour>
    <contour>
      <point x="276" y="0" type="curve"/>
      <point x="276" y="178"/>
      <point x="276" y="355"/>
      <point x="276" y="533" type="curve"/>
      <point x="121" y="533"/>
      <point x="276" y="533"/>
      <point x="121" y="533" type="curve"/>
      <point x="121" y="355"/>
      <point x="121" y="178"/>
      <point x="121" y="0" type="curve"/>
      <point x="276" y="0"/>
      <point x="121" y="0"/>
    </contour>
  </outline>
</glyph>
<glyph name="Kcommaaccent" format="1">
  <advance width="720"/>
  <unicode hex="0136"/>
  <outline>
    <contour>
      <point x="556" y="722" type="curve"/>
      <point x="503" y="722"/>
      <point x="420" y="722"/>
      <point x="369" y="722" type="curve"/>
      <point x="369" y="610"/>
      <point x="369" y="722"/>
      <point x="369" y="610" type="curve"/>
      <point x="524" y="610"/>
      <point x="400" y="610"/>
      <point x="556" y="610" type="curve"/>
      <point x="556" y="722"/>
      <point x="556" y="610"/>
    </contour>
    <contour>
      <point x="555" y="0" type="curve"/>
      <point x="620" y="0"/>
      <point x="627" y="0"/>
      <point x="693" y="0" type="curve"/>
      <point x="693" y="112"/>
      <point x="693" y="0"/>
      <point x="693" y="112" type="curve"/>
      <point x="497" y="112"/>
      <point x="750" y="112"/>
      <point x="555" y="112" type="curve"/>
      <point x="555" y="0"/>
      <point x="555" y="112"/>
    </contour>
    <contour>
      <point x="534" y="610" type="curve"/>
      <point x="683" y="610"/>
      <point x="510" y="610"/>
      <point x="660" y="610" type="curve"/>
      <point x="660" y="722"/>
      <point x="660" y="610"/>
      <point x="660" y="722" type="curve"/>
      <point x="610" y="722"/>
      <point x="584" y="722"/>
      <point x="534" y="722" type="curve"/>
      <point x="534" y="610"/>
      <point x="534" y="722"/>
    </contour>
    <contour>
      <point x="182" y="722" type="curve"/>
      <point x="132" y="722"/>
      <point x="90" y="722"/>
      <point x="40" y="722" type="curve"/>
      <point x="40" y="610"/>
      <point x="40" y="722"/>
      <point x="40" y="610" type="curve"/>
      <point x="190" y="610"/>
      <point x="32" y="610"/>
      <point x="182" y="610" type="curve"/>
      <point x="182" y="722"/>
      <point x="182" y="610"/>
    </contour>
    <contour>
      <point x="182" y="610" type="curve"/>
      <point x="328" y="610"/>
      <point x="151" y="610"/>
      <point x="297" y="610" type="curve"/>
      <point x="297" y="722"/>
      <point x="297" y="610"/>
      <point x="297" y="722" type="curve"/>
      <point x="248" y="722"/>
      <point x="231" y="722"/>
      <point x="182" y="722" type="curve"/>
      <point x="182" y="610"/>
      <point x="182" y="722"/>
    </contour>
    <contour>
      <point x="182" y="0" type="curve"/>
      <point x="236" y="0"/>
      <point x="146" y="0"/>
      <point x="310" y="0" type="curve"/>
      <point x="310" y="112"/>
      <point x="310" y="0"/>
      <point x="310" y="112" type="curve"/>
      <point x="146" y="112"/>
      <point x="344" y="112"/>
      <point x="182" y="112" type="curve"/>
      <point x="182" y="0"/>
      <point x="182" y="112"/>
    </contour>
    <contour>
      <point x="182" y="112" type="curve"/>
      <point x="32" y="112"/>
      <point x="190" y="112"/>
      <point x="40" y="112" type="curve"/>
      <point x="40" y="0"/>
      <point x="40" y="112"/>
      <point x="40" y="0" type="curve"/>
      <point x="90" y="0"/>
      <point x="132" y="0"/>
      <point x="182" y="0" type="curve"/>
      <point x="182" y="112"/>
      <point x="182" y="0"/>
    </contour>
    <contour>
      <point x="517" y="722" type="curve"/>
      <point x="231" y="380" type="line"/>
      <point x="397" y="380"/>
      <point x="230" y="380"/>
      <point x="396" y="380" type="curve"/>
      <point x="629" y="662" type="line"/>
      <point x="493" y="662"/>
      <point x="653" y="722"/>
    </contour>
    <contour>
      <point x="256" y="0" type="curve"/>
      <point x="256" y="722" type="line"/>
      <point x="108" y="722"/>
      <point x="256" y="722"/>
      <point x="108" y="722" type="curve"/>
      <point x="108" y="481"/>
      <point x="108" y="241"/>
      <point x="108" y="0" type="curve"/>
      <point x="256" y="0"/>
      <point x="108" y="0"/>
    </contour>
    <contour>
      <point x="663" y="52" type="curve"/>
      <point x="396" y="380" type="line"/>
      <point x="230" y="380"/>
      <point x="397" y="380"/>
      <point x="231" y="380" type="curve"/>
      <point x="536" y="0" type="line"/>
      <point x="686" y="0"/>
      <point x="513" y="52"/>
    </contour>
    <contour>
      <point x="269" y="-397" type="line"/>
      <point x="373" y="-397"/>
      <point x="443" y="-325"/>
      <point x="443" y="-217" type="curve"/>
      <point x="443" y="-131"/>
      <point x="406" y="-79"/>
      <point x="354" y="-79" type="curve"/>
      <point x="307" y="-79"/>
      <point x="275" y="-105"/>
      <point x="275" y="-153" type="curve"/>
      <point x="275" y="-194"/>
      <point x="302" y="-223"/>
      <point x="346" y="-223" type="curve"/>
      <point x="345" y="-256"/>
      <point x="339" y="-306"/>
      <point x="269" y="-317" type="curve"/>
    </contour>
  </outline>
</glyph>
<glyph name="kcommaaccent" format="1">
  <advance width="590"/>
  <unicode hex="0137"/>
  <outline>
    <contour>
      <point x="150" y="112" type="curve"/>
      <point x="-1" y="112"/>
      <point x="158" y="112"/>
      <point x="7" y="112" type="curve"/>
      <point x="7" y="0"/>
      <point x="7" y="112"/>
      <point x="7" y="0" type="curve"/>
      <point x="57" y="0"/>
      <point x="100" y="-1"/>
      <point x="150" y="-1" type="curve"/>
      <point x="150" y="112"/>
      <point x="150" y="-1"/>
    </contour>
    <contour>
      <point x="436" y="0" type="curve"/>
      <point x="486" y="0"/>
      <point x="525" y="0"/>
      <point x="576" y="0" type="curve"/>
      <point x="576" y="112"/>
      <point x="576" y="0"/>
      <point x="576" y="112" type="curve"/>
      <point x="425" y="112"/>
      <point x="589" y="112"/>
      <point x="438" y="112" type="curve"/>
      <point x="438" y="0"/>
      <point x="436" y="112"/>
    </contour>
    <contour>
      <point x="447" y="421" type="curve"/>
      <point x="567" y="421"/>
      <point x="434" y="421"/>
      <point x="554" y="421" type="curve"/>
      <point x="554" y="533"/>
      <point x="554" y="421"/>
      <point x="554" y="533" type="curve"/>
      <point x="514" y="533"/>
      <point x="487" y="533"/>
      <point x="447" y="533" type="curve"/>
      <point x="447" y="421"/>
      <point x="447" y="533"/>
    </contour>
    <contour>
      <point x="150" y="-1" type="curve"/>
      <point x="193" y="-1"/>
      <point x="150" y="-1"/>
      <point x="275" y="0" type="curve"/>
      <point x="275" y="112"/>
      <point x="275" y="0"/>
      <point x="275" y="112" type="curve"/>
      <point x="150" y="112"/>
      <point x="275" y="112"/>
      <point x="150" y="112" type="curve"/>
      <point x="150" y="-1"/>
      <point x="150" y="112"/>
    </contour>
    <contour>
      <point x="475" y="533" type="curve"/>
      <point x="405" y="533"/>
      <point x="339" y="533"/>
      <point x="269" y="533" type="curve"/>
      <point x="269" y="421"/>
      <point x="269" y="533"/>
      <point x="269" y="421" type="curve"/>
      <point x="477" y="421"/>
      <point x="266" y="421"/>
      <point x="475" y="421" type="curve"/>
      <point x="475" y="533"/>
      <point x="475" y="421"/>
    </contour>
    <contour>
      <point x="153" y="799" type="curve"/>
      <point x="102" y="799"/>
      <point x="59" y="800"/>
      <point x="8" y="800" type="curve"/>
      <point x="8" y="688"/>
      <point x="8" y="800"/>
      <point x="8" y="688" type="curve"/>
      <point x="161" y="687"/>
      <point x="0" y="688"/>
      <point x="153" y="687" type="curve"/>
      <point x="153" y="799"/>
      <point x="153" y="687"/>
    </contour>
    <contour>
      <point x="225" y="0" type="curve"/>
      <point x="225" y="800" type="line"/>
      <point x="77" y="800"/>
      <point x="225" y="800"/>
      <point x="77" y="800" type="curve"/>
      <point x="77" y="533"/>
      <point x="77" y="267"/>
      <point x="77" y="0" type="curve"/>
      <point x="225" y="0"/>
      <point x="77" y="0"/>
    </contour>
    <contour>
      <point x="408" y="533" type="curve"/>
      <point x="197" y="275" type="line"/>
      <point x="348" y="275"/>
      <point x="197" y="275"/>
      <point x="348" y="275" type="curve"/>
      <point x="536" y="482" type="line"/>
      <point x="392" y="482"/>
      <point x="552" y="533"/>
    </contour>
    <contour>
      <point x="548" y="67" type="curve"/>
      <point x="348" y="275" type="line"/>
      <point x="197" y="275"/>
      <point x="348" y="275"/>
      <point x="197" y="275" type="curve"/>
      <point x="431" y="0" type="line"/>
      <point x="567" y="0"/>
      <point x="412" y="67"/>
    </contour>
    <contour>
      <point x="244" y="-399" type="line"/>
      <point x="348" y="-399"/>
      <point x="418" y="-328"/>
      <point x="418" y="-220" type="curve"/>
      <point x="418" y="-133"/>
      <point x="381" y="-82"/>
      <point x="328" y="-82" type="curve"/>
      <point x="283" y="-82"/>
      <point x="250" y="-107"/>
      <point x="250" y="-155" type="curve"/>
      <point x="250" y="-197"/>
      <point x="277" y="-226"/>
      <point x="321" y="-226" type="curve"/>
      <point x="320" y="-258"/>
      <point x="313" y="-309"/>
      <point x="244" y="-320" type="curve"/>
    </contour>
  </outline>
</glyph>
<glyph name="lcommaaccent" format="1">
  <advance width="344"/>
  <unicode hex="013C"/>
  <outline>
    <contour>
      <point x="172" y="112" type="curve"/>
      <point x="20" y="112"/>
      <point x="172" y="112"/>
      <point x="20" y="112" type="curve"/>
      <point x="20" y="0"/>
      <point x="20" y="112"/>
      <point x="20" y="0" type="curve"/>
      <point x="71" y="0"/>
      <point x="121" y="0"/>
      <point x="172" y="0" type="curve"/>
      <point x="172" y="112"/>
      <point x="172" y="-1"/>
    </contour>
    <contour>
      <point x="175" y="800" type="curve"/>
      <point x="124" y="800"/>
      <point x="73" y="800"/>
      <point x="23" y="800" type="curve"/>
      <point x="22" y="688"/>
      <point x="23" y="800"/>
      <point x="22" y="688" type="curve"/>
      <point x="175" y="687"/>
      <point x="22" y="688"/>
      <point x="175" y="687" type="curve"/>
      <point x="175" y="799"/>
      <point x="175" y="688"/>
    </contour>
    <contour>
      <point x="172" y="0" type="curve"/>
      <point x="223" y="0"/>
      <point x="274" y="0"/>
      <point x="325" y="0" type="curve"/>
      <point x="325" y="112"/>
      <point x="325" y="0"/>
      <point x="325" y="112" type="curve"/>
      <point x="172" y="112"/>
      <point x="325" y="112"/>
      <point x="172" y="112" type="curve"/>
      <point x="172" y="-1"/>
      <point x="172" y="112"/>
    </contour>
    <contour>
      <point x="246" y="0" type="curve"/>
      <point x="246" y="267"/>
      <point x="246" y="533"/>
      <point x="246" y="800" type="curve"/>
      <point x="98" y="800"/>
      <point x="246" y="800"/>
      <point x="98" y="800" type="curve"/>
      <point x="98" y="533"/>
      <point x="98" y="267"/>
      <point x="98" y="0" type="curve"/>
      <point x="246" y="0"/>
      <point x="98" y="0"/>
    </contour>
    <contour>
      <point x="104" y="-393" type="line"/>
      <point x="208" y="-393"/>
      <point x="278" y="-322"/>
      <point x="278" y="-214" type="curve"/>
      <point x="278" y="-127"/>
      <point x="242" y="-76"/>
      <point x="189" y="-76" type="curve"/>
      <point x="143" y="-76"/>
      <point x="110" y="-102"/>
      <point x="110" y="-149" type="curve"/>
      <point x="110" y="-191"/>
      <point x="137" y="-220"/>
      <point x="181" y="-220" type="curve"/>
      <point x="181" y="-253"/>
      <point x="174" y="-303"/>
      <point x="104" y="-314" type="curve"/>
    </contour>
  </outline>
</glyph>
<glyph name="lcaron" format="1">
  <advance width="375"/>
  <unicode hex="013E"/>
  <outline>
    <contour>
      <point x="172" y="112" type="curve"/>
      <point x="20" y="112"/>
      <point x="172" y="112"/>
      <point x="20" y="112" type="curve"/>
      <point x="20" y="0"/>
      <point x="20" y="112"/>
      <point x="20" y="0" type="curve"/>
      <point x="71" y="0"/>
      <point x="121" y="0"/>
      <point x="172" y="0" type="curve"/>
      <point x="172" y="112"/>
      <point x="172" y="-1"/>
    </contour>
    <contour>
      <point x="175" y="800" type="curve"/>
      <point x="124" y="800"/>
      <point x="73" y="800"/>
      <point x="23" y="800" type="curve"/>
      <point x="22" y="688"/>
      <point x="23" y="800"/>
      <point x="22" y="688" type="curve"/>
      <point x="175" y="687"/>
      <point x="22" y="688"/>
      <point x="175" y="687" type="curve"/>
      <point x="175" y="799"/>
      <point x="175" y="688"/>
    </contour>
    <contour>
      <point x="172" y="0" type="curve"/>
      <point x="223" y="0"/>
      <point x="274" y="0"/>
      <point x="325" y="0" type="curve"/>
      <point x="325" y="112"/>
      <point x="325" y="0"/>
      <point x="325" y="112" type="curve"/>
      <point x="172" y="112"/>
      <point x="325" y="112"/>
      <point x="172" y="112" type="curve"/>
      <point x="172" y="-1"/>
      <point x="172" y="112"/>
    </contour>
    <contour>
      <point x="246" y="0" type="curve"/>
      <point x="246" y="267"/>
      <point x="246" y="533"/>
      <point x="246" y="800" type="curve"/>
      <point x="98" y="800"/>
      <point x="246" y="800"/>
      <point x="98" y="800" type="curve"/>
      <point x="98" y="533"/>
      <point x="98" y="267"/>
      <point x="98" y="0" type="curve"/>
      <point x="246" y="0"/>
      <point x="98" y="0"/>
    </contour>
    <contour>
      <point x="382" y="556" type="line"/>
      <point x="486" y="556"/>
      <point x="556" y="628"/>
      <point x="556" y="735" type="curve"/>
      <point x="556" y="822"/>
      <point x="519" y="873"/>
      <point x="467" y="873" type="curve"/>
      <point x="421" y="873"/>
      <point x="388" y="848"/>
      <point x="388" y="800" type="curve"/>
      <point x="388" y="759"/>
      <point x="415" y="730"/>
      <point x="459" y="730" type="curve"/>
      <point x="458" y="697"/>
      <point x="452" y="647"/>
      <point x="382" y="635" type="curve"/>
    </contour>
  </outline>
</glyph>
<glyph name="Racute" format="1">
  <advance width="721"/>
  <unicode hex="0154"/>
  <outline>
    <contour>
      <point x="594" y="0" type="curve"/>
      <point x="631" y="0"/>
      <point x="669" y="0"/>
      <point x="708" y="0" type="curve"/>
      <point x="708" y="112"/>
      <point x="708" y="0"/>
      <point x="708" y="112" type="curve"/>
      <point x="594" y="112"/>
      <point x="708" y="112"/>
      <point x="594" y="112" type="curve"/>
      <point x="594" y="0"/>
      <point x="594" y="112"/>
    </contour>
    <contour>
      <point x="209" y="722" type="curve"/>
      <point x="160" y="722"/>
      <point x="113" y="722"/>
      <point x="66" y="722" type="curve"/>
      <point x="66" y="610"/>
      <point x="66" y="722"/>
      <point x="66" y="610" type="curve"/>
      <point x="209" y="610"/>
      <point x="66" y="610"/>
      <point x="209" y="610" type="curve"/>
      <point x="209" y="722"/>
      <point x="209" y="610"/>
    </contour>
    <contour>
      <point x="209" y="112" type="curve"/>
      <point x="66" y="112"/>
      <point x="209" y="112"/>
      <point x="66" y="112" type="curve"/>
      <point x="66" y="0"/>
      <point x="66" y="112"/>
      <point x="66" y="0" type="curve"/>
      <point x="113" y="0"/>
      <point x="160" y="0"/>
      <point x="209" y="0" type="curve"/>
      <point x="209" y="112"/>
      <point x="209" y="0"/>
    </contour>
    <contour>
      <point x="209" y="0" type="curve"/>
      <point x="255" y="0"/>
      <point x="209" y="0"/>
      <point x="349" y="0" type="curve"/>
      <point x="349" y="112"/>
      <point x="349" y="0"/>
      <point x="349" y="112" type="curve"/>
      <point x="209" y="112"/>
      <point x="349" y="112"/>
      <point x="209" y="112" type="curve"/>
      <point x="209" y="0"/>
      <point x="209" y="112"/>
    </contour>
    <contour>
      <point x="314" y="354" type="curve"/>
      <point x="391" y="236"/>
      <point x="467" y="118"/>
      <point x="544" y="0" type="curve"/>
      <point x="695" y="0"/>
      <point x="544" y="9"/>
      <point x="695" y="9" type="curve"/>
      <point x="622" y="124"/>
      <point x="549" y="239"/>
      <point x="475" y="354" type="curve"/>
      <point x="314" y="354"/>
      <point x="475" y="354"/>
    </contour>
    <contour>
      <point x="283" y="0" type="curve"/>
      <point x="283" y="241"/>
      <point x="283" y="481"/>
      <point x="283" y="722" type="curve"/>
      <point x="136" y="722"/>
      <point x="283" y="722"/>
      <point x="136" y="722" type="curve"/>
      <point x="136" y="481"/>
      <point x="136" y="241"/>
      <point x="136" y="0" type="curve"/>
      <point x="283" y="0"/>
      <point x="136" y="0"/>
    </contour>
    <contour>
      <point x="211" y="296" type="curve"/>
      <point x="264" y="296"/>
      <point x="318" y="296"/>
      <point x="370" y="296" type="curve"/>
      <point x="522" y="296"/>
      <point x="623" y="367"/>
      <point x="623" y="519" type="curve"/>
      <point x="623" y="656"/>
      <point x="526" y="722"/>
      <point x="382" y="722" type="curve"/>
      <point x="325" y="722"/>
      <point x="269" y="722"/>
      <point x="211" y="722" type="curve"/>
      <point x="211" y="610"/>
      <point x="211" y="722"/>
      <point x="211" y="610" type="curve"/>
      <point x="259" y="610"/>
      <point x="308" y="610"/>
      <point x="355" y="610" type="curve"/>
      <point x="429" y="610"/>
      <point x="475" y="577"/>
      <point x="475" y="507" type="curve"/>
      <point x="475" y="443"/>
      <point x="438" y="409"/>
      <point x="372" y="409" type="curve"/>
      <point x="318" y="409"/>
      <point x="264" y="409"/>
      <point x="211" y="409" type="curve"/>
      <point x="211" y="296"/>
      <point x="211" y="409"/>
    </contour>
    <contour>
      <point x="399" y="779" type="line"/>
      <point x="541" y="945" type="line"/>
      <point x="357" y="945" type="line"/>
      <point x="257" y="779" type="line"/>
    </contour>
  </outline>
</glyph>
<glyph name="Rcaron" format="1">
  <advance width="721"/>
  <unicode hex="0158"/>
  <outline>
    <contour>
      <point x="594" y="0" type="curve"/>
      <point x="631" y="0"/>
      <point x="669" y="0"/>
      <point x="708" y="0" type="curve"/>
      <point x="708" y="112"/>
      <point x="708" y="0"/>
      <point x="708" y="112" type="curve"/>
      <point x="594" y="112"/>
      <point x="708" y="112"/>
      <point x="594" y="112" type="curve"/>
      <point x="594" y="0"/>
      <point x="594" y="112"/>
    </contour>
    <contour>
      <point x="209" y="722" type="curve"/>
      <point x="160" y="722"/>
      <point x="113" y="722"/>
      <point x="66" y="722" type="curve"/>
      <point x="66" y="610"/>
      <point x="66" y="722"/>
      <point x="66" y="610" type="curve"/>
      <point x="209" y="610"/>
      <point x="66" y="610"/>
      <point x="209" y="610" type="curve"/>
      <point x="209" y="722"/>
      <point x="209" y="610"/>
    </contour>
    <contour>
      <point x="209" y="112" type="curve"/>
      <point x="66" y="112"/>
      <point x="209" y="112"/>
      <point x="66" y="112" type="curve"/>
      <point x="66" y="0"/>
      <point x="66" y="112"/>
      <point x="66" y="0" type="curve"/>
      <point x="113" y="0"/>
      <point x="160" y="0"/>
      <point x="209" y="0" type="curve"/>
      <point x="209" y="112"/>
      <point x="209" y="0"/>
    </contour>
    <contour>
      <point x="209" y="0" type="curve"/>
      <point x="255" y="0"/>
      <point x="209" y="0"/>
      <point x="349" y="0" type="curve"/>
      <point x="349" y="112"/>
      <point x="349" y="0"/>
      <point x="349" y="112" type="curve"/>
      <point x="209" y="112"/>
      <point x="349" y="112"/>
      <point x="209" y="112" type="curve"/>
      <point x="209" y="0"/>
      <point x="209" y="112"/>
    </contour>
    <contour>
      <point x="314" y="354" type="curve"/>
      <point x="391" y="236"/>
      <point x="467" y="118"/>
      <point x="544" y="0" type="curve"/>
      <point x="695" y="0"/>
      <point x="544" y="9"/>
      <point x="695" y="9" type="curve"/>
      <point x="622" y="124"/>
      <point x="549" y="239"/>
      <point x="475" y="354" type="curve"/>
      <point x="314" y="354"/>
      <point x="475" y="354"/>
    </contour>
    <contour>
      <point x="283" y="0" type="curve"/>
      <point x="283" y="241"/>
      <point x="283" y="481"/>
      <point x="283" y="722" type="curve"/>
      <point x="136" y="722"/>
      <point x="283" y="722"/>
      <point x="136" y="722" type="curve"/>
      <point x="136" y="481"/>
      <point x="136" y="241"/>
      <point x="136" y="0" type="curve"/>
      <point x="283" y="0"/>
      <point x="136" y="0"/>
    </contour>
    <contour>
      <point x="211" y="296" type="curve"/>
      <point x="264" y="296"/>
      <point x="318" y="296"/>
      <point x="370" y="296" type="curve"/>
      <point x="522" y="296"/>
      <point x="623" y="367"/>
      <point x="623" y="519" type="curve"/>
      <point x="623" y="656"/>
      <point x="526" y="722"/>
      <point x="382" y="722" type="curve"/>
      <point x="325" y="722"/>
      <point x="269" y="722"/>
      <point x="211" y="722" type="curve"/>
      <point x="211" y="610"/>
      <point x="211" y="722"/>
      <point x="211" y="610" type="curve"/>
      <point x="259" y="610"/>
      <point x="308" y="610"/>
      <point x="355" y="610" type="curve"/>
      <point x="429" y="610"/>
      <point x="475" y="577"/>
      <point x="475" y="507" type="curve"/>
      <point x="475" y="443"/>
      <point x="438" y="409"/>
      <point x="372" y="409" type="curve"/>
      <point x="318" y="409"/>
      <point x="264" y="409"/>
      <point x="211" y="409" type="curve"/>
      <point x="211" y="296"/>
      <point x="211" y="409"/>
    </contour>
    <contour>
      <point x="417" y="946" type="line"/>
      <point x="275" y="780" type="line"/>
      <point x="459" y="780" type="line"/>
      <point x="559" y="946" type="line"/>
    </contour>
    <contour>
      <point x="114" y="946" type="line"/>
      <point x="215" y="780" type="line"/>
      <point x="399" y="780" type="line"/>
      <point x="256" y="946" type="line"/>
    </contour>
  </outline>
</glyph>
<glyph name="Uring" format="1">
  <advance width="817"/>
  <unicode hex="016E"/>
  <outline>
    <contour>
      <point x="633" y="610" type="curve"/>
      <point x="776" y="610"/>
      <point x="633" y="610"/>
      <point x="776" y="610" type="curve"/>
      <point x="776" y="722"/>
      <point x="776" y="610"/>
      <point x="776" y="722" type="curve"/>
      <point x="729" y="722"/>
      <point x="681" y="722"/>
      <point x="633" y="722" type="curve"/>
      <point x="633" y="610"/>
      <point x="633" y="722"/>
    </contour>
    <contour>
      <point x="633" y="722" type="curve"/>
      <point x="586" y="722"/>
      <point x="538" y="722"/>
      <point x="492" y="722" type="curve"/>
      <point x="492" y="610"/>
      <point x="492" y="722"/>
      <point x="492" y="610" type="curve"/>
      <point x="633" y="610"/>
      <point x="492" y="610"/>
      <point x="633" y="610" type="curve"/>
      <point x="633" y="722"/>
      <point x="633" y="610"/>
    </contour>
    <contour>
      <point x="186" y="722" type="curve"/>
      <point x="138" y="722"/>
      <point x="91" y="722"/>
      <point x="44" y="722" type="curve"/>
      <point x="44" y="610"/>
      <point x="44" y="722"/>
      <point x="44" y="610" type="curve"/>
      <point x="186" y="610"/>
      <point x="44" y="610"/>
      <point x="186" y="610" type="curve"/>
      <point x="186" y="722"/>
      <point x="186" y="610"/>
    </contour>
    <contour>
      <point x="186" y="610" type="curve"/>
      <point x="328" y="610"/>
      <point x="186" y="610"/>
      <point x="328" y="610" type="curve"/>
      <point x="328" y="722"/>
      <point x="328" y="610"/>
      <point x="328" y="722" type="curve"/>
      <point x="281" y="722"/>
      <point x="233" y="722"/>
      <point x="186" y="722" type="curve"/>
      <point x="186" y="610"/>
      <point x="186" y="722"/>
    </contour>
    <contour>
      <point x="117" y="674" type="curve"/>
      <point x="117" y="540"/>
      <point x="116" y="409"/>
      <point x="117" y="276" type="curve"/>
      <point x="117" y="87"/>
      <point x="214" y="-5"/>
      <point x="405" y="-5" type="curve"/>
      <point x="601" y="-5"/>
      <point x="701" y="92"/>
      <point x="701" y="288" type="curve"/>
      <point x="701" y="418"/>
      <point x="701" y="545"/>
      <point x="701" y="674" type="curve"/>
      <point x="566" y="674"/>
      <point x="701" y="674"/>
      <point x="566" y="674" type="curve"/>
      <point x="566" y="537"/>
      <point x="566" y="410"/>
      <point x="566" y="273" type="curve"/>
      <point x="566" y="174"/>
      <point x="515" y="119"/>
      <point x="416" y="119" type="curve"/>
      <point x="301" y="119"/>
      <point x="251" y="180"/>
      <point x="251" y="297" type="curve"/>
      <point x="251" y="424"/>
      <point x="251" y="548"/>
      <point x="251" y="674" type="curve"/>
      <point x="117" y="674"/>
      <point x="251" y="674"/>
    </contour>
    <contour>
      <point x="249" y="926" type="curve"/>
      <point x="249" y="832"/>
      <point x="315" y="777"/>
      <point x="411" y="777" type="curve"/>
      <point x="509" y="777"/>
      <point x="575" y="831"/>
      <point x="575" y="926" type="curve"/>
      <point x="575" y="1021"/>
      <point x="508" y="1074"/>
      <point x="409" y="1074" type="curve"/>
      <point x="313" y="1074"/>
      <point x="249" y="1020"/>
      <point x="249" y="926" type="curve"/>
      <point x="377" y="926"/>
      <point x="241" y="926"/>
      <point x="369" y="926" type="curve"/>
      <point x="369" y="953"/>
      <point x="378" y="975"/>
      <point x="409" y="975" type="curve"/>
      <point x="440" y="975"/>
      <point x="451" y="955"/>
      <point x="451" y="926" type="curve"/>
      <point x="451" y="898"/>
      <point x="441" y="877"/>
      <point x="411" y="877" type="curve"/>
      <point x="381" y="877"/>
      <point x="369" y="898"/>
      <point x="369" y="926" type="curve"/>
      <point x="241" y="926"/>
      <point x="377" y="926"/>
    </contour>
  </outline>
</glyph>
<glyph name="uhungarumlaut" format="1">
  <advance width="670"/>
  <unicode hex="0171"/>
  <outline>
    <contour>
      <point x="493" y="533" type="curve"/>
      <point x="444" y="533"/>
      <point x="398" y="533"/>
      <point x="348" y="533" type="curve"/>
      <point x="348" y="441"/>
      <point x="348" y="513"/>
      <point x="348" y="421" type="curve"/>
      <point x="466" y="421"/>
      <point x="376" y="421"/>
      <point x="493" y="421" type="curve"/>
      <point x="493" y="513"/>
      <point x="493" y="441"/>
    </contour>
    <contour>
      <point x="166" y="533" type="curve"/>
      <point x="117" y="533"/>
      <point x="70" y="533"/>
      <point x="21" y="533" type="curve"/>
      <point x="21" y="441"/>
      <point x="21" y="513"/>
      <point x="21" y="421" type="curve"/>
      <point x="139" y="421"/>
      <point x="49" y="421"/>
      <point x="166" y="421" type="curve"/>
      <point x="166" y="513"/>
      <point x="166" y="441"/>
    </contour>
    <contour>
      <point x="493" y="0" type="curve"/>
      <point x="539" y="0"/>
      <point x="582" y="0"/>
      <point x="628" y="0" type="curve"/>
      <point x="628" y="92"/>
      <point x="628" y="20"/>
      <point x="628" y="112" type="curve"/>
      <point x="519" y="112"/>
      <point x="603" y="112"/>
      <point x="493" y="112" type="curve"/>
      <point x="493" y="20"/>
      <point x="493" y="92"/>
    </contour>
    <contour>
      <point x="567" y="0" type="curve"/>
      <point x="567" y="182"/>
      <point x="567" y="351"/>
      <point x="567" y="533" type="curve"/>
      <point x="446" y="533"/>
      <point x="540" y="533"/>
      <point x="419" y="533" type="curve"/>
      <point x="419" y="351"/>
      <point x="419" y="182"/>
      <point x="419" y="0" type="curve"/>
      <point x="540" y="0"/>
      <point x="446" y="0"/>
    </contour>
    <contour>
      <point x="453" y="241" type="curve"/>
      <point x="426" y="177"/>
      <point x="389" y="111"/>
      <point x="321" y="111" type="curve"/>
      <point x="261" y="111"/>
      <point x="240" y="156"/>
      <point x="240" y="220" type="curve"/>
      <point x="240" y="327"/>
      <point x="240" y="426"/>
      <point x="240" y="533" type="curve"/>
      <point x="119" y="533"/>
      <point x="213" y="533"/>
      <point x="92" y="533" type="curve"/>
      <point x="92" y="424"/>
      <point x="92" y="323"/>
      <point x="92" y="215" type="curve"/>
      <point x="92" y="80"/>
      <point x="157" y="-5"/>
      <point x="298" y="-5" type="curve"/>
      <point x="403" y="-5"/>
      <point x="468" y="78"/>
      <point x="510" y="189" type="curve"/>
      <point x="464" y="228"/>
      <point x="499" y="203"/>
    </contour>
    <contour>
      <point x="249" y="610" type="line"/>
      <point x="392" y="776" type="line"/>
      <point x="208" y="776" type="line"/>
      <point x="108" y="610" type="line"/>
    </contour>
    <contour>
      <point x="470" y="610" type="line"/>
      <point x="612" y="776" type="line"/>
      <point x="428" y="776" type="line"/>
      <point x="328" y="610" type="line"/>
    </contour>
  </outline>
</glyph>
<glyph name="Uogonek" format="1">
  <advance width="817"/>
  <unicode hex="0172"/>
  <outline>
    <contour>
      <point x="634" y="610" type="curve"/>
      <point x="777" y="610"/>
      <point x="634" y="610"/>
      <point x="777" y="610" type="curve"/>
      <point x="777" y="722"/>
      <point x="777" y="610"/>
      <point x="777" y="722" type="curve"/>
      <point x="730" y="722"/>
      <point x="682" y="722"/>
      <point x="634" y="722" type="curve"/>
      <point x="634" y="610"/>
      <point x="634" y="722"/>
    </contour>
    <contour>
      <point x="634" y="722" type="curve"/>
      <point x="587" y="722"/>
      <point x="539" y="722"/>
      <point x="493" y="722" type="curve"/>
      <point x="493" y="610"/>
      <point x="493" y="722"/>
      <point x="493" y="610" type="curve"/>
      <point x="634" y="610"/>
      <point x="493" y="610"/>
      <point x="634" y="610" type="curve"/>
      <point x="634" y="722"/>
      <point x="634" y="610"/>
    </contour>
    <contour>
      <point x="187" y="722" type="curve"/>
      <point x="139" y="722"/>
      <point x="92" y="722"/>
      <point x="45" y="722" type="curve"/>
      <point x="45" y="610"/>
      <point x="45" y="722"/>
      <point x="45" y="610" type="curve"/>
      <point x="187" y="610"/>
      <point x="45" y="610"/>
      <point x="187" y="610" type="curve"/>
      <point x="187" y="722"/>
      <point x="187" y="610"/>
    </contour>
    <contour>
      <point x="187" y="610" type="curve"/>
      <point x="329" y="610"/>
      <point x="187" y="610"/>
      <point x="329" y="610" type="curve"/>
      <point x="329" y="722"/>
      <point x="329" y="610"/>
      <point x="329" y="722" type="curve"/>
      <point x="282" y="722"/>
      <point x="234" y="722"/>
      <point x="187" y="722" type="curve"/>
      <point x="187" y="610"/>
      <point x="187" y="722"/>
    </contour>
    <contour>
      <point x="118" y="674" type="curve"/>
      <point x="118" y="540"/>
      <point x="117" y="409"/>
      <point x="118" y="276" type="curve"/>
      <point x="118" y="87"/>
      <point x="215" y="-5"/>
      <point x="406" y="-5" type="curve"/>
      <point x="602" y="-5"/>
      <point x="702" y="92"/>
      <point x="702" y="288" type="curve"/>
      <point x="702" y="418"/>
      <point x="702" y="545"/>
      <point x="702" y="674" type="curve"/>
      <point x="567" y="674"/>
      <point x="702" y="674"/>
      <point x="567" y="674" type="curve"/>
      <point x="567" y="537"/>
      <point x="567" y="410"/>
      <point x="567" y="273" type="curve"/>
      <point x="567" y="174"/>
      <point x="516" y="119"/>
      <point x="417" y="119" type="curve"/>
      <point x="302" y="119"/>
      <point x="252" y="180"/>
      <point x="252" y="297" type="curve"/>
      <point x="252" y="424"/>
      <point x="252" y="548"/>
      <point x="252" y="674" type="curve"/>
      <point x="118" y="674"/>
      <point x="252" y="674"/>
    </contour>
    <contour>
      <point x="421" y="89" type="curve"/>
      <point x="351" y="55"/>
      <point x="288" y="31"/>
      <point x="288" y="-44" type="curve"/>
      <point x="288" y="-123"/>
      <point x="340" y="-172"/>
      <point x="421" y="-172" type="curve"/>
      <point x="462" y="-172"/>
      <point x="490" y="-161"/>
      <point x="525" y="-139" type="curve"/>
      <point x="458" y="-50"/>
      <point x="525" y="-139"/>
      <point x="458" y="-50" type="curve"/>
      <point x="449" y="-55"/>
      <point x="441" y="-62"/>
      <point x="430" y="-62" type="curve"/>
      <point x="419" y="-62"/>
      <point x="411" y="-54"/>
      <point x="411" y="-43" type="curve"/>
      <point x="411" y="-14"/>
      <point x="447" y="-5"/>
      <point x="475" y="10" type="curve"/>
      <point x="421" y="89"/>
      <point x="475" y="10"/>
    </contour>
  </outline>
</glyph>
<glyph name="uogonek" format="1">
  <advance width="671"/>
  <unicode hex="0173"/>
  <outline>
    <contour>
      <point x="493" y="533" type="curve"/>
      <point x="444" y="533"/>
      <point x="398" y="533"/>
      <point x="348" y="533" type="curve"/>
      <point x="348" y="441"/>
      <point x="348" y="513"/>
      <point x="348" y="421" type="curve"/>
      <point x="466" y="421"/>
      <point x="376" y="421"/>
      <point x="493" y="421" type="curve"/>
      <point x="493" y="513"/>
      <point x="493" y="441"/>
    </contour>
    <contour>
      <point x="166" y="533" type="curve"/>
      <point x="117" y="533"/>
      <point x="70" y="533"/>
      <point x="21" y="533" type="curve"/>
      <point x="21" y="441"/>
      <point x="21" y="513"/>
      <point x="21" y="421" type="curve"/>
      <point x="139" y="421"/>
      <point x="49" y="421"/>
      <point x="166" y="421" type="curve"/>
      <point x="166" y="513"/>
      <point x="166" y="441"/>
    </contour>
    <contour>
      <point x="493" y="0" type="curve"/>
      <point x="539" y="0"/>
      <point x="582" y="0"/>
      <point x="628" y="0" type="curve"/>
      <point x="628" y="92"/>
      <point x="628" y="20"/>
      <point x="628" y="112" type="curve"/>
      <point x="519" y="112"/>
      <point x="603" y="112"/>
      <point x="493" y="112" type="curve"/>
      <point x="493" y="20"/>
      <point x="493" y="92"/>
    </contour>
    <contour>
      <point x="567" y="0" type="curve"/>
      <point x="567" y="182"/>
      <point x="567" y="351"/>
      <point x="567" y="533" type="curve"/>
      <point x="446" y="533"/>
      <point x="540" y="533"/>
      <point x="419" y="533" type="curve"/>
      <point x="419" y="351"/>
      <point x="419" y="182"/>
      <point x="419" y="0" type="curve"/>
      <point x="540" y="0"/>
      <point x="446" y="0"/>
    </contour>
    <contour>
      <point x="453" y="241" type="curve"/>
      <point x="426" y="177"/>
      <point x="389" y="111"/>
      <point x="321" y="111" type="curve"/>
      <point x="261" y="111"/>
      <point x="240" y="156"/>
      <point x="240" y="220" type="curve"/>
      <point x="240" y="327"/>
      <point x="240" y="426"/>
      <point x="240" y="533" type="curve"/>
      <point x="119" y="533"/>
      <point x="213" y="533"/>
      <point x="92" y="533" type="curve"/>
      <point x="92" y="424"/>
      <point x="92" y="323"/>
      <point x="92" y="215" type="curve"/>
      <point x="92" y="80"/>
      <point x="157" y="-5"/>
      <point x="298" y="-5" type="curve"/>
      <point x="403" y="-5"/>
      <point x="468" y="78"/>
      <point x="510" y="189" type="curve"/>
      <point x="464" y="228"/>
      <point x="499" y="203"/>
    </contour>
    <contour>
      <point x="524" y="85" type="curve"/>
      <point x="454" y="52"/>
      <point x="390" y="28"/>
      <point x="390" y="-47" type="curve"/>
      <point x="390" y="-127"/>
      <point x="442" y="-176"/>
      <point x="524" y="-176" type="curve"/>
      <point x="565" y="-176"/>
      <point x="593" y="-164"/>
      <point x="627" y="-143" type="curve"/>
      <point x="560" y="-54"/>
      <point x="627" y="-143"/>
      <point x="560" y="-54" type="curve"/>
      <point x="551" y="-58"/>
      <point x="543" y="-65"/>
      <point x="533" y="-65" type="curve"/>
      <point x="521" y="-65"/>
      <point x="513" y="-58"/>
      <point x="513" y="-46" type="curve"/>
      <point x="513" y="-17"/>
      <point x="550" y="-9"/>
      <point x="578" y="7" type="curve"/>
      <point x="524" y="85"/>
      <point x="578" y="7"/>
    </contour>
  </outline>
</glyph>
<glyph name="circumflex" format="1">
  <advance width="597"/>
  <unicode hex="02C6"/>
  <outline>
    <contour>
      <point x="361" y="589" type="move" name="_top"/>
    </contour>
    <contour>
      <point x="283" y="590" type="line"/>
      <point x="426" y="756" type="line"/>
      <point x="242" y="756" type="line"/>
      <point x="142" y="590" type="line"/>
    </contour>
    <contour>
      <point x="580" y="590" type="line"/>
      <point x="479" y="756" type="line"/>
      <point x="295" y="756" type="line"/>
      <point x="438" y="590" type="line"/>
    </contour>
  </outline>
</glyph>
<glyph name="dotaccent" format="1">
  <advance width="424"/>
  <unicode hex="02D9"/>
  <outline>
    <contour>
      <point x="213" y="572" type="move" name="_top"/>
    </contour>
    <contour>
      <point x="293" y="643" type="curve"/>
      <point x="293" y="692"/>
      <point x="260" y="716"/>
      <point x="213" y="716" type="curve"/>
      <point x="166" y="716"/>
      <point x="134" y="690"/>
      <point x="134" y="643" type="curve"/>
      <point x="293" y="643"/>
      <point x="134" y="643"/>
      <point x="293" y="643" type="curve"/>
      <point x="293" y="593"/>
      <point x="260" y="571"/>
      <point x="213" y="571" type="curve"/>
      <point x="166" y="571"/>
      <point x="134" y="595"/>
      <point x="134" y="643" type="curve"/>
      <point x="293" y="643"/>
      <point x="134" y="643"/>
    </contour>
  </outline>
</glyph>
<glyph name="ring" format="1">
  <advance width="405"/>
  <unicode hex="02DA"/>
  <outline>
    <contour>
      <point x="133" y="463" type="move" name="_top"/>
    </contour>
    <contour>
      <point x="-29" y="609" type="curve"/>
      <point x="-29" y="515"/>
      <point x="36" y="461"/>
      <point x="133" y="461" type="curve"/>
      <point x="231" y="461"/>
      <point x="297" y="514"/>
      <point x="297" y="609" type="curve"/>
      <point x="297" y="704"/>
      <point x="230" y="757"/>
      <point x="131" y="757" type="curve"/>
      <point x="34" y="757"/>
      <point x="-29" y="703"/>
      <point x="-29" y="609" type="curve"/>
      <point x="99" y="609"/>
      <point x="-37" y="609"/>
      <point x="91" y="609" type="curve"/>
      <point x="91" y="636"/>
      <point x="100" y="658"/>
      <point x="131" y="658" type="curve"/>
      <point x="161" y="658"/>
      <point x="173" y="639"/>
      <point x="173" y="609" type="curve"/>
      <point x="173" y="581"/>
      <point x="163" y="561"/>
      <point x="133" y="561" type="curve"/>
      <point x="102" y="561"/>
      <point x="91" y="581"/>
      <point x="91" y="609" type="curve"/>
      <point x="-37" y="609"/>
      <point x="99" y="609"/>
    </contour>
  </outline>
</glyph>
<glyph name="tilde" format="1">
  <advance width="561"/>
  <unicode hex="02DC"/>
  <outline>
    <contour>
      <point x="190" y="526" type="move" name="_top"/>
    </contour>
    <contour>
      <point x="307" y="715" type="curve"/>
      <point x="292" y="679"/>
      <point x="277" y="665"/>
      <point x="258" y="665" type="curve"/>
      <point x="230" y="665"/>
      <point x="216" y="672"/>
      <point x="195" y="688" type="curve" smooth="yes"/>
      <point x="164" y="712"/>
      <point x="144" y="722"/>
      <point x="108" y="722" type="curve"/>
      <point x="33" y="722"/>
      <point x="-8" y="659"/>
      <point x="-34" y="587" type="curve"/>
      <point x="75" y="528"/>
      <point x="-34" y="588"/>
      <point x="75" y="528" type="curve"/>
      <point x="94" y="569"/>
      <point x="112" y="581"/>
      <point x="133" y="581" type="curve"/>
      <point x="157" y="581"/>
      <point x="169" y="573"/>
      <point x="187" y="559" type="curve" smooth="yes"/>
      <point x="222" y="531"/>
      <point x="243" y="521"/>
      <point x="284" y="521" type="curve"/>
      <point x="360" y="521"/>
      <point x="395" y="582"/>
      <point x="423" y="657" type="curve"/>
      <point x="307" y="714"/>
      <point x="423" y="656"/>
    </contour>
  </outline>
</glyph>
<glyph name="dvA" format="1">
  <advance width="764"/>
  <unicode hex="0905"/>
  <outline>
    <contour>
      <point x="564" y="461" type="line"/>
      <point x="546" y="422"/>
      <point x="510" y="398"/>
      <point x="461" y="398" type="curve" smooth="yes"/>
      <point x="407" y="398"/>
      <point x="368" y="419"/>
      <point x="319" y="447" type="curve"/>
      <point x="269" y="369" type="line"/>
      <point x="327" y="332"/>
      <point x="386" y="297"/>
      <point x="462" y="297" type="curve" smooth="yes"/>
      <point x="548" y="297"/>
      <point x="612" y="344"/>
      <point x="644" y="409" type="curve"/>
    </contour>
    <component base="dvA_base"/>
    <component base="dvStem" xOffset="417"/>
  </outline>
</glyph>
<glyph name="dvAA" format="1">
  <advance width="1031"/>
  <unicode hex="0906"/>
  <outline>
    <contour>
      <point x="576" y="467" type="line"/>
      <point x="557" y="429"/>
      <point x="525" y="405"/>
      <point x="480" y="405" type="curve" smooth="yes"/>
      <point x="421" y="405"/>
      <point x="379" y="423"/>
      <point x="326" y="448" type="curve"/>
      <point x="311" y="419"/>
      <point x="295" y="406"/>
      <point x="281" y="377" type="curve"/>
      <point x="344" y="344"/>
      <point x="403" y="303"/>
      <point x="482" y="303" type="curve" smooth="yes"/>
      <point x="562" y="303"/>
      <point x="621" y="353"/>
      <point x="653" y="419" type="curve"/>
    </contour>
    <contour>
      <point x="618" y="0" type="curve"/>
      <point x="656" y="0"/>
      <point x="691" y="0"/>
      <point x="729" y="0" type="curve"/>
      <point x="729" y="112"/>
      <point x="729" y="0"/>
      <point x="729" y="112" type="curve"/>
      <point x="613" y="112"/>
      <point x="735" y="112"/>
      <point x="618" y="112" type="curve"/>
      <point x="618" y="0"/>
      <point x="618" y="112"/>
    </contour>
    <contour>
      <point x="618" y="112" type="curve"/>
      <point x="493" y="112"/>
      <point x="623" y="112"/>
      <point x="498" y="112" type="curve"/>
      <point x="498" y="0"/>
      <point x="498" y="112"/>
      <point x="498" y="0" type="curve"/>
      <point x="540" y="0"/>
      <point x="576" y="0"/>
      <point x="618" y="0" type="curve"/>
      <point x="618" y="112"/>
      <point x="618" y="0"/>
    </contour>
    <contour>
      <point x="691" y="0" type="curve"/>
      <point x="691" y="241"/>
      <point x="691" y="481"/>
      <point x="691" y="722" type="curve"/>
      <point x="544" y="722"/>
      <point x="691" y="722"/>
      <point x="544" y="722" type="curve"/>
      <point x="544" y="481"/>
      <point x="544" y="241"/>
      <point x="544" y="0" type="curve"/>
      <point x="691" y="0"/>
      <point x="544" y="0"/>
    </contour>
    <contour>
      <point x="607" y="598" type="curve"/>
      <point x="696" y="598"/>
      <point x="755" y="598"/>
      <point x="844" y="598" type="curve"/>
      <point x="844" y="722"/>
      <point x="844" y="598"/>
      <point x="844" y="722" type="curve"/>
      <point x="755" y="722"/>
      <point x="696" y="722"/>
      <point x="607" y="722" type="curve"/>
      <point x="607" y="598"/>
      <point x="607" y="722"/>
    </contour>
    <contour>
      <point x="141" y="564" type="curve"/>
      <point x="175" y="588"/>
      <point x="201" y="606"/>
      <point x="243" y="606" type="curve"/>
      <point x="286" y="606"/>
      <point x="313" y="580"/>
      <point x="312" y="539" type="curve"/>
      <point x="312" y="487"/>
      <point x="265" y="467"/>
      <point x="205" y="467" type="curve"/>
      <point x="205" y="429"/>
      <point x="205" y="403"/>
      <point x="205" y="366" type="curve"/>
      <point x="350" y="366"/>
      <point x="460" y="421"/>
      <point x="460" y="548" type="curve"/>
      <point x="460" y="662"/>
      <point x="380" y="727"/>
      <point x="261" y="727" type="curve"/>
      <point x="181" y="727"/>
      <point x="125" y="707"/>
      <point x="62" y="660" type="curve"/>
      <point x="91" y="624"/>
      <point x="112" y="600"/>
    </contour>
    <contour>
      <point x="41" y="151" type="curve"/>
      <point x="96" y="85"/>
      <point x="159" y="60"/>
      <point x="245" y="60" type="curve"/>
      <point x="380" y="56"/>
      <point x="474" y="127"/>
      <point x="474" y="256" type="curve"/>
      <point x="471" y="395"/>
      <point x="355" y="442"/>
      <point x="205" y="442" type="curve"/>
      <point x="205" y="407"/>
      <point x="205" y="382"/>
      <point x="205" y="347" type="curve"/>
      <point x="275" y="347"/>
      <point x="329" y="326"/>
      <point x="330" y="261" type="curve"/>
      <point x="330" y="206"/>
      <point x="299" y="174"/>
      <point x="247" y="176" type="curve"/>
      <point x="202" y="176"/>
      <point x="173" y="192"/>
      <point x="142" y="224" type="curve"/>
      <point x="105" y="197"/>
      <point x="78" y="178"/>
    </contour>
    <contour>
      <point x="885" y="0" type="curve"/>
      <point x="925" y="0"/>
      <point x="961" y="0"/>
      <point x="1000" y="0" type="curve"/>
      <point x="1000" y="112"/>
      <point x="1000" y="0"/>
      <point x="1000" y="112" type="curve"/>
      <point x="880" y="112"/>
      <point x="1006" y="112"/>
      <point x="885" y="112" type="curve"/>
      <point x="885" y="0"/>
      <point x="885" y="112"/>
    </contour>
    <contour>
      <point x="885" y="112" type="curve"/>
      <point x="765" y="112"/>
      <point x="891" y="112"/>
      <point x="771" y="112" type="curve"/>
      <point x="771" y="0"/>
      <point x="771" y="112"/>
      <point x="771" y="0" type="curve"/>
      <point x="811" y="0"/>
      <point x="846" y="0"/>
      <point x="885" y="0" type="curve"/>
      <point x="885" y="112"/>
      <point x="885" y="0"/>
    </contour>
    <contour>
      <point x="959" y="0" type="curve"/>
      <point x="959" y="241"/>
      <point x="959" y="481"/>
      <point x="959" y="722" type="curve"/>
      <point x="811" y="722"/>
      <point x="959" y="722"/>
      <point x="811" y="722" type="curve"/>
      <point x="811" y="481"/>
      <point x="811" y="241"/>
      <point x="811" y="0" type="curve"/>
      <point x="959" y="0"/>
      <point x="811" y="0"/>
    </contour>
    <contour>
      <point x="875" y="598" type="curve"/>
      <point x="942" y="598"/>
      <point x="984" y="598"/>
      <point x="1051" y="598" type="curve"/>
      <point x="1051" y="722"/>
      <point x="1051" y="598"/>
      <point x="1051" y="722" type="curve"/>
      <point x="984" y="722"/>
      <point x="942" y="722"/>
      <point x="875" y="722" type="curve"/>
      <point x="875" y="598"/>
      <point x="875" y="722"/>
    </contour>
  </outline>
</glyph>
<glyph name="dvKA" format="1">
  <advance width="854"/>
  <unicode hex="0915"/>
  <outline>
    <contour>
      <point x="510" y="0" type="move" name="blwm.virama"/>
    </contour>
    <contour>
      <point x="510" y="721" type="move" name="abvm.e"/>
    </contour>
    <contour>
      <point x="510" y="0" type="move" name="blwm.u"/>
    </contour>
    <component base="dvTopbar" xScale="1.52875028849" xOffset="11"/>
    <component base="dvK_left"/>
    <component base="dvStemright" xOffset="281"/>
    <component base="dvKA_right"/>
  </outline>
</glyph>
<glyph name="dvCHA" format="1">
  <advance width="734"/>
  <unicode hex="091B"/>
  <outline>
    <contour>
      <point x="460" y="-33" type="move" name="blwm.virama"/>
    </contour>
    <contour>
      <point x="607" y="719" type="move" name="abvm.e"/>
    </contour>
    <contour>
      <point x="460" y="-112" type="move" name="blwm.u"/>
    </contour>
    <component base="dvCH"/>
    <component base="dvStem_short" xOffset="297"/>
  </outline>
</glyph>
<glyph name="dvTTHA" format="1">
  <advance width="581"/>
  <unicode hex="0920"/>
  <outline>
    <contour>
      <point x="400" y="-3" type="move" name="blwm.virama"/>
    </contour>
    <contour>
      <point x="368" y="721" type="move" name="abvm.e"/>
    </contour>
    <contour>
      <point x="420" y="-88" type="move" name="blwm.u"/>
    </contour>
    <contour>
      <point x="396" y="292" type="curve"/>
      <point x="396" y="220"/>
      <point x="364" y="169"/>
      <point x="299" y="169" type="curve"/>
      <point x="230" y="169"/>
      <point x="192" y="219"/>
      <point x="192" y="293" type="curve"/>
      <point x="192" y="359"/>
      <point x="225" y="405"/>
      <point x="287" y="405" type="curve"/>
      <point x="354" y="405"/>
      <point x="396" y="362"/>
      <point x="396" y="292" type="curve"/>
      <point x="448" y="292"/>
      <point x="485" y="292"/>
      <point x="536" y="292" type="curve"/>
      <point x="536" y="434"/>
      <point x="439" y="518"/>
      <point x="294" y="518" type="curve"/>
      <point x="149" y="518"/>
      <point x="51" y="435"/>
      <point x="51" y="293" type="curve"/>
      <point x="51" y="146"/>
      <point x="142" y="52"/>
      <point x="286" y="52" type="curve"/>
      <point x="436" y="52"/>
      <point x="536" y="142"/>
      <point x="536" y="292" type="curve"/>
      <point x="485" y="292"/>
      <point x="448" y="292"/>
    </contour>
    <component base="dvTopbar" xScale="1.06175721057" xOffset="1"/>
    <component base="dvStem_short" xOffset="58" yOffset="-6"/>
  </outline>
</glyph>
<glyph name="dvDDA" format="1">
  <advance width="508"/>
  <unicode hex="0921"/>
  <outline>
    <contour>
      <point x="344" y="-66" type="move" name="blwm.virama"/>
    </contour>
    <contour>
      <point x="427" y="721" type="move" name="abvm.e"/>
    </contour>
    <contour>
      <point x="363" y="-154" type="move" name="blwm.u"/>
    </contour>
    <component base="dvTopbar" xScale="0.937989860885" xOffset="-1"/>
    <component base="dvDDA_base" xOffset="1" yOffset="-13"/>
  </outline>
</glyph>
<glyph name="dvSA" format="1">
  <advance width="728"/>
  <unicode hex="0938"/>
  <outline>
    <contour>
      <point x="197" y="292" type="line"/>
      <point x="304" y="326"/>
      <point x="357" y="396"/>
      <point x="357" y="506" type="curve"/>
      <point x="357" y="587"/>
      <point x="319" y="645"/>
      <point x="257" y="698" type="curve"/>
      <point x="164" y="626" type="line"/>
      <point x="201" y="588"/>
      <point x="221" y="549"/>
      <point x="221" y="496" type="curve"/>
      <point x="221" y="419"/>
      <point x="143" y="394"/>
      <point x="55" y="394" type="curve"/>
    </contour>
    <contour>
      <point x="55" y="394" type="line"/>
      <point x="55" y="191"/>
      <point x="96" y="7"/>
      <point x="261" y="7" type="curve"/>
      <point x="360" y="7"/>
      <point x="430" y="58"/>
      <point x="464" y="140" type="curve"/>
      <point x="356" y="189" type="line"/>
      <point x="339" y="148"/>
      <point x="313" y="120"/>
      <point x="273" y="120" type="curve"/>
      <point x="213" y="120"/>
      <point x="199" y="206"/>
      <point x="197" y="292" type="curve"/>
    </contour>
    <component base="dvConnector" xOffset="-54" yOffset="-4"/>
    <component base="dvTopbar" xScale="1.03658752726" xOffset="1"/>
    <component base="dvStemright" xOffset="424"/>
  </outline>
</glyph>
<glyph name="dvHA" format="1">
  <advance width="556"/>
  <unicode hex="0939"/>
  <outline>
    <contour>
      <point x="319" y="-135" type="move" name="blwm.virama"/>
    </contour>
    <contour>
      <point x="411" y="719" type="move" name="abvm.e"/>
    </contour>
    <contour>
      <point x="371" y="-217" type="move" name="blwm.u"/>
    </contour>
    <contour>
      <point x="262" y="325" type="curve"/>
      <point x="232" y="346"/>
      <point x="202" y="358"/>
      <point x="202" y="391" type="curve"/>
      <point x="202" y="423"/>
      <point x="232" y="431"/>
      <point x="267" y="431" type="curve"/>
      <point x="317" y="431"/>
      <point x="361" y="431"/>
      <point x="412" y="431" type="curve"/>
      <point x="291" y="524"/>
      <point x="385" y="450"/>
      <point x="264" y="543" type="curve"/>
      <point x="254" y="543"/>
      <point x="245" y="543"/>
      <point x="234" y="543" type="curve"/>
      <point x="134" y="543"/>
      <point x="58" y="496"/>
      <point x="58" y="403" type="curve"/>
      <point x="58" y="330"/>
      <point x="99" y="290"/>
      <point x="162" y="252" type="curve"/>
      <point x="247" y="315"/>
      <point x="177" y="262"/>
    </contour>
    <contour>
      <point x="264" y="665" type="curve"/>
      <point x="264" y="623"/>
      <point x="264" y="585"/>
      <point x="264" y="543" type="curve"/>
      <point x="385" y="450"/>
      <point x="291" y="524"/>
      <point x="412" y="431" type="curve"/>
      <point x="412" y="512"/>
      <point x="412" y="584"/>
      <point x="412" y="665" type="curve"/>
      <point x="291" y="665"/>
      <point x="385" y="665"/>
    </contour>
    <contour>
      <point x="514" y="179" type="line"/>
      <point x="501" y="293"/>
      <point x="416" y="355"/>
      <point x="302" y="355" type="curve"/>
      <point x="162" y="355"/>
      <point x="65" y="271"/>
      <point x="65" y="131" type="curve"/>
      <point x="65" y="-10"/>
      <point x="172" y="-95"/>
      <point x="321" y="-95" type="curve"/>
      <point x="321" y="-84"/>
      <point x="321" y="6"/>
      <point x="321" y="16" type="curve"/>
      <point x="252" y="16"/>
      <point x="210" y="64"/>
      <point x="210" y="133" type="curve"/>
      <point x="210" y="198"/>
      <point x="244" y="242"/>
      <point x="300" y="242" type="curve"/>
      <point x="350" y="242"/>
      <point x="383" y="207"/>
      <point x="389" y="153" type="curve"/>
    </contour>
    <component base="dvTopbar" xScale="1.02245666141" xOffset="1"/>
  </outline>
</glyph>
<glyph name="dvmU" format="1">
  <advance width="0"/>
  <unicode hex="0941"/>
  <outline>
    <contour>
      <point x="-81" y="5" type="move" name="_blwm.u"/>
    </contour>
    <contour>
      <point x="-189" y="-64" type="line"/>
      <point x="-145" y="-64"/>
      <point x="-114" y="-90"/>
      <point x="-114" y="-135" type="curve"/>
      <point x="-114" y="-177"/>
      <point x="-140" y="-201"/>
      <point x="-181" y="-201" type="curve"/>
      <point x="-251" y="-201"/>
      <point x="-282" y="-150"/>
      <point x="-323" y="-95" type="curve"/>
      <point x="-429" y="-158" type="line"/>
      <point x="-367" y="-255"/>
      <point x="-304" y="-329"/>
      <point x="-190" y="-329" type="curve"/>
      <point x="-63" y="-329"/>
      <point x="28" y="-259"/>
      <point x="28" y="-137" type="curve"/>
      <point x="28" y="-16"/>
      <point x="-63" y="52"/>
      <point x="-189" y="52" type="curve"/>
    </contour>
  </outline>
</glyph>
<glyph name="dvmAI" format="1">
  <advance width="0"/>
  <unicode hex="0948"/>
  <outline>
    <contour>
      <point x="-40" y="728" type="move" name="_abvm.e"/>
    </contour>
    <contour>
      <point x="-389" y="782" type="line"/>
      <point x="-372" y="793"/>
      <point x="-356" y="799"/>
      <point x="-336" y="799" type="curve"/>
      <point x="-257" y="799"/>
      <point x="-212" y="742"/>
      <point x="-173" y="686" type="curve"/>
      <point x="-45" y="715" type="line"/>
      <point x="-124" y="824"/>
      <point x="-187" y="921"/>
      <point x="-325" y="921" type="curve"/>
      <point x="-374" y="921"/>
      <point x="-416" y="906"/>
      <point x="-458" y="879" type="curve"/>
    </contour>
    <contour>
      <point x="-352" y="929" type="line"/>
      <point x="-336" y="938"/>
      <point x="-321" y="944"/>
      <point x="-301" y="944" type="curve"/>
      <point x="-185" y="944"/>
      <point x="-199" y="793"/>
      <point x="-173" y="686" type="curve"/>
      <point x="-45" y="715" type="line"/>
      <point x="-92" y="894"/>
      <point x="-122" y="1065"/>
      <point x="-293" y="1065" type="curve"/>
      <point x="-340" y="1065"/>
      <point x="-379" y="1052"/>
      <point x="-419" y="1026" type="curve"/>
    </contour>
  </outline>
</glyph>
<glyph name="dvDDHxA" format="1">
  <advance width="587"/>
  <unicode hex="095D"/>
  <outline>
    <contour>
      <point x="395" y="-314" type="move" name="blwm.virama"/>
    </contour>
    <contour>
      <point x="438" y="712" type="move" name="abvm.e"/>
    </contour>
    <contour>
      <point x="409" y="-383" type="move" name="blwm.u"/>
    </contour>
    <component base="dvTopbar" xScale="1.07828542116" xOffset="2"/>
    <component base="dvAnusvara" xOffset="461" yOffset="-1101"/>
    <component base="dvDDHA_base"/>
  </outline>
</glyph>
<glyph name="danda" format="1">
  <advance width="290"/>
  <unicode hex="0964"/>
  <outline>
    <contour>
      <point x="111" y="722" type="curve"/>
      <point x="111" y="481"/>
      <point x="111" y="241"/>
      <point x="111" y="0" type="curve"/>
      <point x="258" y="0"/>
      <point x="111" y="0"/>
      <point x="258" y="0" type="curve"/>
      <point x="258" y="241"/>
      <point x="258" y="481"/>
      <point x="258" y="722" type="curve"/>
      <point x="111" y="722"/>
      <point x="258" y="722"/>
    </contour>
  </outline>
</glyph>
<glyph name="doubledanda" format="1">
  <advance width="529"/>
  <unicode hex="0965"/>
  <outline>
    <contour>
      <point x="349" y="722" type="curve"/>
      <point x="349" y="481"/>
      <point x="349" y="241"/>
      <point x="349" y="0" type="curve"/>
      <point x="497" y="0"/>
      <point x="349" y="0"/>
      <point x="497" y="0" type="curve"/>
      <point x="497" y="241"/>
      <point x="497" y="481"/>
      <point x="497" y="722" type="curve"/>
      <point x="349" y="722"/>
      <point x="497" y="722"/>
    </contour>
    <contour>
      <point x="117" y="722" type="curve"/>
      <point x="117" y="481"/>
      <point x="117" y="241"/>
      <point x="117" y="0" type="curve"/>
      <point x="265" y="0"/>
      <point x="117" y="0"/>
      <point x="265" y="0" type="curve"/>
      <point x="265" y="241"/>
      <point x="265" y="481"/>
      <point x="265" y="722" type="curve"/>
      <point x="117" y="722"/>
      <point x="265" y="722"/>
    </contour>
  </outline>
</glyph>
<glyph name="partialdiff" format="1">
  <advance width="563"/>
  <unicode hex="2202"/>
  <outline>
    <contour>
      <point x="415" y="228" type="curve"/>
      <point x="406" y="301"/>
      <point x="359" y="353"/>
      <point x="274" y="353" type="curve"/>
      <point x="210" y="353"/>
      <point x="172" y="305"/>
      <point x="172" y="237" type="curve"/>
      <point x="172" y="166"/>
      <point x="196" y="107"/>
      <point x="269" y="108" type="curve"/>
      <point x="364" y="108"/>
      <point x="389" y="258"/>
      <point x="389" y="412" type="curve"/>
      <point x="389" y="518"/>
      <point x="370" y="615"/>
      <point x="280" y="615" type="curve"/>
      <point x="249" y="615"/>
      <point x="226" y="601"/>
      <point x="202" y="584" type="curve"/>
      <point x="128" y="663"/>
      <point x="202" y="584"/>
      <point x="128" y="663" type="curve"/>
      <point x="182" y="710"/>
      <point x="226" y="728"/>
      <point x="287" y="728" type="curve"/>
      <point x="449" y="728"/>
      <point x="521" y="589"/>
      <point x="521" y="412" type="curve"/>
      <point x="521" y="186"/>
      <point x="461" y="-5"/>
      <point x="259" y="-5" type="curve"/>
      <point x="122" y="-5"/>
      <point x="32" y="82"/>
      <point x="32" y="220" type="curve"/>
      <point x="32" y="365"/>
      <point x="123" y="460"/>
      <point x="267" y="460" type="curve"/>
      <point x="394" y="460"/>
      <point x="466" y="380"/>
      <point x="488" y="249" type="curve"/>
      <point x="410" y="227"/>
      <point x="492" y="250"/>
    </contour>
  </outline>
</glyph>
<glyph name="fl" format="1">
  <advance width="680"/>
  <unicode hex="FB02"/>
  <outline>
    <contour>
      <point x="185" y="-1" type="curve"/>
      <point x="235" y="-1"/>
      <point x="277" y="0"/>
      <point x="328" y="0" type="curve"/>
      <point x="328" y="113"/>
      <point x="328" y="0"/>
      <point x="328" y="113" type="curve"/>
      <point x="177" y="112"/>
      <point x="336" y="113"/>
      <point x="185" y="112" type="curve"/>
      <point x="185" y="-1"/>
      <point x="185" y="112"/>
    </contour>
    <contour>
      <point x="185" y="112" type="curve"/>
      <point x="34" y="113"/>
      <point x="193" y="112"/>
      <point x="42" y="113" type="curve"/>
      <point x="42" y="0"/>
      <point x="42" y="113"/>
      <point x="42" y="0" type="curve"/>
      <point x="92" y="0"/>
      <point x="135" y="-1"/>
      <point x="185" y="-1" type="curve"/>
      <point x="185" y="112"/>
      <point x="185" y="-1"/>
    </contour>
    <contour>
      <point x="25" y="421" type="curve"/>
      <point x="382" y="421" type="line"/>
      <point x="382" y="533"/>
      <point x="382" y="421"/>
      <point x="382" y="533" type="curve"/>
      <point x="25" y="533" type="line"/>
      <point x="25" y="421"/>
      <point x="25" y="533"/>
    </contour>
    <contour>
      <point x="259" y="0" type="curve"/>
      <point x="259" y="223"/>
      <point x="259" y="381"/>
      <point x="259" y="603" type="curve"/>
      <point x="258" y="667"/>
      <point x="309" y="696"/>
      <point x="377" y="696" type="curve"/>
      <point x="432" y="696"/>
      <point x="483" y="685"/>
      <point x="520" y="674" type="curve"/>
      <point x="542" y="707"/>
      <point x="560" y="729"/>
      <point x="582" y="762" type="curve"/>
      <point x="514" y="792"/>
      <point x="445" y="804"/>
      <point x="360" y="804" type="curve"/>
      <point x="216" y="804"/>
      <point x="110" y="736"/>
      <point x="111" y="603" type="curve"/>
      <point x="111" y="0" type="line"/>
      <point x="259" y="0"/>
      <point x="111" y="0"/>
    </contour>
    <contour>
      <point x="509" y="112" type="curve"/>
      <point x="356" y="112"/>
      <point x="509" y="112"/>
      <point x="356" y="112" type="curve"/>
      <point x="356" y="0"/>
      <point x="356" y="112"/>
      <point x="356" y="0" type="curve"/>
      <point x="407" y="0"/>
      <point x="458" y="0"/>
      <point x="509" y="0" type="curve"/>
      <point x="509" y="112"/>
      <point x="509" y="-1"/>
    </contour>
    <contour>
      <point x="509" y="0" type="curve"/>
      <point x="560" y="0"/>
      <point x="610" y="0"/>
      <point x="661" y="0" type="curve"/>
      <point x="661" y="112"/>
      <point x="661" y="0"/>
      <point x="661" y="112" type="curve"/>
      <point x="509" y="112"/>
      <point x="661" y="112"/>
      <point x="509" y="112" type="curve"/>
      <point x="509" y="-1"/>
      <point x="509" y="112"/>
    </contour>
    <contour>
      <point x="582" y="0" type="curve"/>
      <point x="582" y="255"/>
      <point x="582" y="507"/>
      <point x="582" y="762" type="curve"/>
      <point x="434" y="762"/>
      <point x="582" y="765"/>
      <point x="434" y="765" type="curve"/>
      <point x="434" y="509"/>
      <point x="434" y="256"/>
      <point x="434" y="0" type="curve"/>
      <point x="582" y="0"/>
      <point x="434" y="0"/>
    </contour>
  </outline>
</glyph>
